#VRML V2.0 utf8
# 3D model generated by easyeda2kicad.py (https://github.com/uPesy/easyeda2kicad.py)

Shape{
    appearance Appearance {
        material  Material 	{
            diffuseColor 0.8392156862745098 0.8392156862745098 0.8392156862745098
            specularColor 0.7372549019607844 0.7372549019607844 0.7372549019607844
            ambientIntensity 0.2
            transparency 0
            shininess 0.5
        }
    }
    geometry IndexedFaceSet {
        ccw TRUE
        solid FALSE
        coord DEF co Coordinate {
            point [
                0.0 -0.0984 -0.2362, 0.0 -0.0984 -0.0394, 0.0 0.0984 -0.2362, 0.0 0.0984 -0.0394, 0.1969 -0.1378 -0.2362, 0.0394 -0.1378 -0.2362, 0.0306 -0.1368 -0.2362, 0.001 -0.1072 -0.2362, 0.1969 0.1378 -0.2362, 0.2056 0.1368 -0.2362, 0.2362 0.0984 -0.2362, 0.2139 0.1339 -0.2362, 0.2352 0.1072 -0.2362, 0.2362 -0.0984 -0.2362, 0.0223 -0.1339 -0.2362, 0.0148 -0.1292 -0.2362, 0.0223 0.1339 -0.2362, 0.001 0.1072 -0.2362, 0.0306 0.1368 -0.2362, 0.0394 0.1378 -0.2362, 0.2214 0.1292 -0.2362, 0.2276 0.123 -0.2362, 0.2323 0.1155 -0.2362, 0.2352 -0.1072 -0.2362, 0.2323 -0.1155 -0.2362, 0.2276 -0.123 -0.2362, 0.0086 -0.123 -0.2362, 0.0039 -0.1155 -0.2362, 0.2214 -0.1292 -0.2362, 0.2139 -0.1339 -0.2362, 0.2056 -0.1368 -0.2362, 0.0039 0.1155 -0.2362, 0.0086 0.123 -0.2362, 0.0148 0.1292 -0.2362, 0.2362 0.0984 -0.0394, 0.2362 -0.0984 -0.0394, 0.1969 -0.1378 -0.0394, 0.0394 -0.1378 -0.0394, 0.0394 0.1378 -0.0394, 0.1969 0.1378 -0.0394, 0.1969 -0.0984 -0.0, 0.1969 0.0984 0.0, 0.0394 -0.0984 -0.0, 0.0394 0.0984 0.0, 0.035 -0.1028 -0.0002, 0.035 0.1028 -0.0002, 0.0306 0.1072 -0.001, 0.0306 -0.1072 -0.001, 0.0264 -0.1114 -0.0022, 0.0264 0.1114 -0.0022, 0.0223 0.1155 -0.0039, 0.0223 -0.1155 -0.0039, 0.0184 -0.1194 -0.006, 0.0148 0.123 -0.0086, 0.0115 0.1263 -0.0115, 0.0086 0.123 -0.0148, 0.0184 0.1194 -0.006, 0.0148 -0.123 -0.0086, 0.0115 -0.1263 -0.0115, 0.0086 -0.123 -0.0148, 0.006 -0.1194 -0.0184, 0.006 0.1194 -0.0184, 0.0039 -0.1155 -0.0223, 0.0039 0.1155 -0.0223, 0.0022 -0.1114 -0.0264, 0.0022 0.1114 -0.0264, 0.001 -0.1072 -0.0306, 0.0002 0.1028 -0.035, 0.001 0.1072 -0.0306, 0.0002 -0.1028 -0.035, 0.236 -0.1028 -0.035, 0.236 0.1028 -0.035, 0.2352 -0.1072 -0.0306, 0.2352 0.1072 -0.0306, 0.234 -0.1114 -0.0264, 0.234 0.1114 -0.0264, 0.2323 0.1155 -0.0223, 0.2323 -0.1155 -0.0223, 0.2302 -0.1194 -0.0184, 0.2276 0.123 -0.0148, 0.2247 0.1263 -0.0115, 0.2214 0.123 -0.0086, 0.2302 0.1194 -0.0184, 0.2276 -0.123 -0.0148, 0.2013 0.1028 -0.0002, 0.2013 -0.1028 -0.0002, 0.2056 0.1072 -0.001, 0.2056 -0.1072 -0.001, 0.2099 0.1114 -0.0022, 0.2099 -0.1114 -0.0022, 0.2139 0.1155 -0.0039, 0.2139 -0.1155 -0.0039, 0.2178 0.1194 -0.006, 0.2178 -0.1194 -0.006, 0.2214 -0.123 -0.0086, 0.2247 -0.1263 -0.0115, 0.0306 0.1368 -0.0306, 0.2056 0.1368 -0.0306, 0.2013 0.1375 -0.035, 0.035 0.1375 -0.035, 0.2099 0.1356 -0.0264, 0.0264 0.1356 -0.0264, 0.2139 0.1339 -0.0223, 0.0223 0.1339 -0.0223, 0.2178 0.1318 -0.0184, 0.0184 0.1318 -0.0184, 0.0148 0.1292 -0.0148, 0.2214 0.1292 -0.0148, 0.035 -0.1375 -0.035, 0.2013 -0.1375 -0.035, 0.0306 -0.1368 -0.0306, 0.2056 -0.1368 -0.0306, 0.0264 -0.1356 -0.0264, 0.2099 -0.1356 -0.0264, 0.0223 -0.1339 -0.0223, 0.2139 -0.1339 -0.0223, 0.0184 -0.1318 -0.0184, 0.2178 -0.1318 -0.0184, 0.0148 -0.1292 -0.0148, 0.2214 -0.1292 -0.0148, 0.2214 -0.1292 -0.0148
            ]
        }
        coordIndex [
            0,1,2,-1,2,1,3,-1,4,5,0,-1,0,5,6,-1,0,6,7,-1,0,2,8,-1,8,9,10,-1,10,9,11,-1,10,11,12,-1,0,8,4,-1,4,8,10,-1,4,10,13,-1,6,14,15,-1,16,2,17,-1,16,18,2,-1,2,18,19,-1,2,19,8,-1,20,21,11,-1,11,21,22,-1,11,22,12,-1,13,23,4,-1,4,23,24,-1,4,24,25,-1,15,26,6,-1,6,26,27,-1,6,27,7,-1,25,28,4,-1,4,28,29,-1,4,29,30,-1,17,31,16,-1,16,31,32,-1,16,32,33,-1,34,35,10,-1,10,35,13,-1,36,37,4,-1,4,37,5,-1,38,39,19,-1,19,39,8,-1,40,41,42,-1,42,41,43,-1,44,42,43,-1,43,45,44,-1,44,45,46,-1,44,46,47,-1,47,46,48,-1,46,49,48,-1,48,49,50,-1,48,50,51,-1,51,50,52,-1,53,54,55,-1,50,56,52,-1,52,56,53,-1,52,53,57,-1,57,53,55,-1,58,57,59,-1,59,57,55,-1,59,55,60,-1,60,55,61,-1,60,61,62,-1,62,61,63,-1,62,63,64,-1,64,63,65,-1,64,65,66,-1,67,3,1,-1,65,68,66,-1,66,68,67,-1,66,67,69,-1,69,67,1,-1,35,34,70,-1,70,34,71,-1,70,71,72,-1,72,71,73,-1,72,73,74,-1,73,75,74,-1,74,75,76,-1,74,76,77,-1,77,76,78,-1,79,80,81,-1,76,82,78,-1,78,82,79,-1,78,79,83,-1,83,79,81,-1,41,40,84,-1,84,40,85,-1,84,85,86,-1,86,85,87,-1,86,87,88,-1,88,87,89,-1,88,89,90,-1,90,89,91,-1,90,91,92,-1,92,91,93,-1,92,93,81,-1,81,93,94,-1,81,94,83,-1,83,94,95,-1,96,97,98,-1,39,38,98,-1,98,38,99,-1,98,99,96,-1,97,96,100,-1,100,96,101,-1,100,101,102,-1,102,101,103,-1,102,103,104,-1,103,105,104,-1,104,105,106,-1,104,106,107,-1,107,106,81,-1,107,81,80,-1,90,92,56,-1,56,92,81,-1,56,81,53,-1,53,81,106,-1,53,106,54,-1,56,50,90,-1,90,50,49,-1,90,49,88,-1,88,49,86,-1,45,43,41,-1,49,46,86,-1,86,46,45,-1,86,45,84,-1,84,45,41,-1,37,36,108,-1,108,36,109,-1,108,109,110,-1,110,109,111,-1,110,111,112,-1,112,111,113,-1,112,113,114,-1,114,113,115,-1,114,115,116,-1,116,115,117,-1,116,117,118,-1,118,117,119,-1,118,119,94,-1,94,119,95,-1,40,42,85,-1,85,42,44,-1,85,44,87,-1,87,44,47,-1,87,47,89,-1,89,47,48,-1,89,48,91,-1,91,48,51,-1,91,51,93,-1,93,51,52,-1,93,52,94,-1,94,52,57,-1,94,57,118,-1,118,57,58,-1,1,0,69,-1,69,0,7,-1,27,64,7,-1,7,64,66,-1,7,66,69,-1,15,59,26,-1,26,59,60,-1,26,60,27,-1,27,60,62,-1,27,62,64,-1,15,14,114,-1,58,59,118,-1,118,59,15,-1,118,15,116,-1,116,15,114,-1,6,5,37,-1,37,108,6,-1,6,108,110,-1,6,110,14,-1,14,110,112,-1,14,112,114,-1,83,95,119,-1,36,4,109,-1,109,4,30,-1,29,113,30,-1,30,113,111,-1,30,111,109,-1,28,117,29,-1,29,117,115,-1,29,115,113,-1,25,24,77,-1,77,78,25,-1,25,78,83,-1,25,83,28,-1,28,83,119,-1,28,119,117,-1,23,13,35,-1,35,70,23,-1,23,70,72,-1,23,72,24,-1,24,72,74,-1,24,74,77,-1,34,10,71,-1,71,10,12,-1,22,75,12,-1,12,75,73,-1,12,73,71,-1,20,79,21,-1,21,79,82,-1,21,82,22,-1,22,82,76,-1,22,76,75,-1,20,11,102,-1,80,79,107,-1,107,79,20,-1,107,20,104,-1,104,20,102,-1,9,8,39,-1,39,98,9,-1,9,98,97,-1,9,97,11,-1,11,97,100,-1,11,100,102,-1,55,54,106,-1,38,19,99,-1,99,19,18,-1,16,101,18,-1,18,101,96,-1,18,96,99,-1,33,105,16,-1,16,105,103,-1,16,103,101,-1,32,31,63,-1,63,61,32,-1,32,61,55,-1,32,55,33,-1,33,55,106,-1,33,106,105,-1,17,2,3,-1,3,67,17,-1,17,67,68,-1,17,68,31,-1,31,68,65,-1,31,65,63,-1,
        ]
    }
}
Shape{
    appearance Appearance {
        material  Material 	{
            diffuseColor 0.34901960784313724 0.34901960784313724 0.34901960784313724
            specularColor 0.34901960784313724 0.34901960784313724 0.34901960784313724
            ambientIntensity 0.2
            transparency 0
            shininess 0.5
        }
    }
    geometry IndexedFaceSet {
        ccw TRUE
        solid FALSE
        coord DEF co Coordinate {
            point [
                -1.063 -0.2165 -0.0, -1.063 -0.4921 -0.0, -0.5463 -0.4921 -0.0, 0.8794 0.4153 0.0, 0.8794 0.4046 0.0, 0.8884 0.4046 0.0, 0.9212 0.3479 0.0, 0.9212 0.3366 0.0, 0.9275 0.3366 0.0, 0.7109 0.3605 0.0, 0.7151 0.3567 0.0, 0.7247 0.3617 0.0, 0.6475 0.3816 0.0, 0.6492 0.3855 0.0, 0.6182 0.3855 0.0, 0.8814 0.3327 0.0, 0.8802 0.3326 0.0, 0.8884 0.3326 0.0, 1.063 -0.2953 -0.0, 1.063 -0.2165 -0.0, 0.938 -0.2165 -0.0, 0.9124 0.3567 0.0, 0.9029 0.3326 0.0, 0.9146 0.3326 0.0, 0.9502 0.3949 0.0, 0.938 0.3949 0.0, 0.9536 0.3858 0.0, 0.938 0.3855 0.0, 0.9584 0.3858 0.0, 1.063 0.3855 0.0, 0.9457 0.4191 0.0, 1.063 0.4194 0.0, 0.938 0.4194 0.0, 0.9363 0.3949 0.0, 0.9331 0.3858 0.0, 0.9275 0.3855 0.0, 0.9284 0.3858 0.0, 0.9275 0.4194 0.0, 0.938 0.411 0.0, 0.9411 0.4191 0.0, 0.8288 0.3617 0.0, 0.8288 0.3517 0.0, 0.8423 0.3617 0.0, 0.8407 0.3517 0.0, 0.8407 0.3479 0.0, 0.8288 0.3624 0.0, 0.8417 0.3624 0.0, 0.8417 0.3662 0.0, 0.8423 0.3855 0.0, 0.8423 0.3326 0.0, 0.8423 0.3328 0.0, 0.8245 0.3328 0.0, 0.8245 0.3662 0.0, 0.8108 0.3855 0.0, 0.8245 0.3617 0.0, 0.8108 0.3617 0.0, 0.8108 0.3326 0.0, 0.8424 0.3328 0.0, 0.8429 0.3326 0.0, 0.8424 0.3366 0.0, 0.8429 0.3617 0.0, 0.8423 0.3366 0.0, 0.9411 0.3328 0.0, 0.9411 0.3617 0.0, 0.938 0.3617 0.0, 0.9411 0.3662 0.0, 0.9829 0.3662 0.0, 0.9875 0.3662 0.0, 0.9507 0.3662 0.0, 0.9562 0.3655 0.0, 0.9634 0.3617 0.0, 0.9812 0.3617 0.0, 0.9633 0.3618 0.0, 0.9602 0.364 0.0, 0.9597 0.335 0.0, 0.9559 0.3335 0.0, 0.9702 0.3328 0.0, 0.9954 0.3328 0.0, 0.938 0.3326 0.0, 1.0002 0.3328 0.0, 1.063 0.3326 0.0, 0.9892 0.3617 0.0, 1.063 0.3617 0.0, 0.9503 0.3328 0.0, 0.9749 0.3328 0.0, 0.9781 0.342 0.0, 0.992 0.342 0.0, 0.9648 0.3603 0.0, 0.9667 0.3573 0.0, 0.9679 0.354 0.0, 0.9656 0.3403 0.0, 0.9633 0.3375 0.0, 0.9629 0.3372 0.0, 0.9683 0.3499 0.0, 0.9682 0.3476 0.0, 0.9673 0.3437 0.0, 0.8698 0.4194 0.0, 0.8684 0.4183 0.0, 0.8684 0.4138 0.0, 0.8684 0.3913 0.0, 0.8684 0.3872 0.0, 0.8698 0.3855 0.0, 0.8679 0.3869 0.0, 0.8643 0.3857 0.0, 0.8621 0.3855 0.0, 0.8615 0.3891 0.0, 0.8653 0.3898 0.0, 0.848 0.4018 0.0, 0.848 0.4021 0.0, 0.851 0.4115 0.0, 0.8494 0.4092 0.0, 0.8484 0.4062 0.0, 0.8485 0.3977 0.0, 0.8496 0.395 0.0, 0.8513 0.3926 0.0, 0.8519 0.3919 0.0, 0.854 0.3904 0.0, 0.8644 0.4154 0.0, 0.8606 0.4158 0.0, 0.8591 0.4157 0.0, 0.8562 0.4151 0.0, 0.8564 0.3895 0.0, 0.8598 0.389 0.0, 0.8536 0.4139 0.0, 0.8515 0.4121 0.0, 0.8608 0.4197 0.0, 0.864 0.4194 0.0, 0.8652 0.4193 0.0, 0.8578 0.4194 0.0, 0.8605 0.4197 0.0, 0.8698 0.4921 0.0, 0.8563 0.3855 0.0, 0.8429 0.3855 0.0, 0.8535 0.3861 0.0, 0.8504 0.3876 0.0, 0.8444 0.4082 0.0, 0.846 0.4119 0.0, 0.8429 0.4194 0.0, 0.8429 0.4921 0.0, 0.8564 0.4193 0.0, 0.8528 0.418 0.0, 0.8477 0.3898 0.0, 0.8474 0.3901 0.0, 0.8454 0.393 0.0, 0.8483 0.4148 0.0, 0.8495 0.4159 0.0, 0.8441 0.3965 0.0, 0.8435 0.4018 0.0, 0.8435 0.4039 0.0, 0.8698 0.3617 0.0, 0.8592 0.3852 0.0, 0.8571 0.3853 0.0, 0.9004 0.3388 0.0, 0.9009 0.3368 0.0, 0.901 0.3368 0.0, 0.9146 0.3617 0.0, 0.8962 0.3617 0.0, 0.9081 0.3567 0.0, 0.8962 0.3509 0.0, 0.9016 0.3387 0.0, 0.9012 0.3376 0.0, 0.8962 0.3397 0.0, 0.8895 0.3567 0.0, 0.8962 0.3326 0.0, 0.8987 0.3326 0.0, 0.8989 0.3329 0.0, 0.8962 0.3271 0.0, 0.8962 0.3271 0.0, 0.897 0.3286 0.0, 0.8884 0.3193 0.0, 0.8904 0.322 0.0, 0.8904 0.3257 0.0, 0.8928 0.3252 0.0, 0.8938 0.3253 0.0, 0.8962 0.3224 0.0, 0.8948 0.3218 0.0, 0.8962 0.3193 0.0, 0.8931 0.3216 0.0, 0.8922 0.3216 0.0, 0.8947 0.3257 0.0, 0.8954 0.3262 0.0, 0.9016 0.3292 0.0, 0.8997 0.3256 0.0, 0.9146 0.3193 0.0, 0.8982 0.3237 0.0, 0.8979 0.3235 0.0, 0.8964 0.3224 0.0, -0.5463 -0.2165 -0.0, -0.5463 -0.1772 -0.0, -0.5906 -0.1772 -0.0, 0.5906 0.1772 0.0, 0.6182 0.3193 0.0, -0.5463 0.1772 0.0, -0.5463 0.3193 0.0, -0.5906 0.1772 0.0, 0.5906 -0.1772 -0.0, 0.6182 -0.2165 -0.0, 0.938 -0.4203 -0.0, 0.9275 -0.2165 -0.0, 0.9275 -0.4308 -0.0, 0.9146 -0.2165 -0.0, 0.9146 -0.4436 -0.0, 0.8962 -0.2165 -0.0, 0.8962 -0.4621 -0.0, 0.8884 -0.2165 -0.0, 0.8884 -0.4698 -0.0, 0.8732 -0.2165 -0.0, 0.8732 -0.4851 -0.0, 0.8698 -0.2165 -0.0, 0.8698 -0.4884 -0.0, -1.0389 0.3193 0.0, -0.5463 0.3326 0.0, -1.0257 0.3326 0.0, -0.5463 0.3617 0.0, -0.9966 0.3617 0.0, -0.5463 0.3855 0.0, -0.9728 0.3855 0.0, -0.5463 0.4194 0.0, -0.9389 0.4194 0.0, -0.5463 0.4921 0.0, -0.8661 0.4921 0.0, 0.8884 0.3617 0.0, 0.8862 0.3562 0.0, 0.8862 0.3521 0.0, 0.8859 0.3433 0.0, 0.8867 0.3421 0.0, 0.8749 0.3559 0.0, 0.8732 0.3617 0.0, 0.874 0.3553 0.0, 0.8732 0.3546 0.0, 0.8872 0.3409 0.0, 0.8873 0.3393 0.0, 0.8871 0.3376 0.0, 0.8866 0.3363 0.0, 0.8859 0.3352 0.0, 0.8771 0.3568 0.0, 0.8806 0.3572 0.0, 0.883 0.357 0.0, 0.8942 0.3567 0.0, 0.8847 0.3342 0.0, 0.8836 0.3335 0.0, 0.8801 0.3538 0.0, 0.8789 0.3537 0.0, 0.8756 0.3506 0.0, 0.8778 0.3534 0.0, 0.8769 0.3529 0.0, 0.8756 0.3501 0.0, 0.8758 0.3494 0.0, 0.8761 0.3488 0.0, 0.8765 0.3484 0.0, 0.878 0.3475 0.0, 0.8829 0.3535 0.0, 0.8806 0.3464 0.0, 0.8853 0.3526 0.0, 0.8822 0.3457 0.0, 0.885 0.3442 0.0, 0.8762 0.3524 0.0, 0.8759 0.3518 0.0, 0.8757 0.3513 0.0, 0.8713 0.338 0.0, 0.8698 0.3326 0.0, 0.8727 0.3542 0.0, 0.8719 0.3531 0.0, 0.8729 0.337 0.0, 0.8732 0.3369 0.0, 0.8732 0.3457 0.0, 0.8725 0.3465 0.0, 0.8719 0.3473 0.0, 0.8715 0.3486 0.0, 0.8713 0.3502 0.0, 0.8714 0.3517 0.0, 0.8731 0.3458 0.0, 0.8755 0.336 0.0, 0.8776 0.3433 0.0, 0.8751 0.3445 0.0, 0.8781 0.3357 0.0, 0.8783 0.3357 0.0, 0.8804 0.3422 0.0, 0.8805 0.3359 0.0, 0.8831 0.3389 0.0, 0.883 0.3394 0.0, 0.8815 0.3363 0.0, 0.8819 0.3366 0.0, 0.8824 0.337 0.0, 0.8828 0.3375 0.0, 0.883 0.3381 0.0, 0.8828 0.3401 0.0, 0.8825 0.3406 0.0, 0.882 0.3412 0.0, 0.875 0.3326 0.0, 0.8742 0.3326 0.0, 0.8732 0.3326 0.0, 0.8732 0.333 0.0, 0.8713 0.3337 0.0, 0.8732 0.3193 0.0, 0.8777 0.3323 0.0, 0.8912 0.3254 0.0, 0.8516 0.3326 0.0, 0.8515 0.3326 0.0, 0.8593 0.3341 0.0, 0.8578 0.3331 0.0, 0.8614 0.3328 0.0, 0.8563 0.3326 0.0, 0.8499 0.3332 0.0, 0.8485 0.3342 0.0, 0.848 0.3346 0.0, 0.8612 0.3565 0.0, 0.8626 0.3557 0.0, 0.8637 0.3546 0.0, 0.8646 0.3533 0.0, 0.8472 0.3359 0.0, 0.8466 0.3373 0.0, 0.8464 0.3392 0.0, 0.858 0.3537 0.0, 0.8566 0.3538 0.0, 0.8543 0.347 0.0, 0.8488 0.3509 0.0, 0.8488 0.355 0.0, 0.8499 0.3557 0.0, 0.8614 0.3365 0.0, 0.8613 0.3365 0.0, 0.8606 0.3355 0.0, 0.8465 0.3397 0.0, 0.8467 0.3415 0.0, 0.8473 0.343 0.0, 0.8481 0.3442 0.0, 0.8494 0.3453 0.0, 0.8512 0.3462 0.0, 0.8517 0.3528 0.0, 0.8543 0.3536 0.0, 0.8653 0.3514 0.0, 0.8656 0.3482 0.0, 0.8656 0.3328 0.0, 0.8531 0.3568 0.0, 0.857 0.3572 0.0, 0.8594 0.357 0.0, 0.8614 0.348 0.0, 0.8613 0.3498 0.0, 0.8608 0.3513 0.0, 0.8603 0.3522 0.0, 0.8597 0.3529 0.0, 0.859 0.3533 0.0, 0.8698 0.3193 0.0, 0.8562 0.3325 0.0, 0.8429 0.3193 0.0, 0.854 0.3323 0.0, 0.7899 0.3855 0.0, 0.7883 0.3877 0.0, 0.8108 0.4194 0.0, 0.7819 0.3931 0.0, 0.7503 0.4229 0.0, 0.7554 0.4194 0.0, 0.7609 0.4158 0.0, 0.7687 0.4066 0.0, 0.7737 0.397 0.0, 0.7748 0.3966 0.0, 0.7384 0.4271 0.0, 0.8108 0.4921 0.0, 0.7059 0.4224 0.0, 0.7169 0.4266 0.0, 0.6182 0.4921 0.0, 0.7286 0.4281 0.0, 0.6182 0.4194 0.0, 0.6749 0.4077 0.0, 0.6843 0.4089 0.0, 0.6513 0.3902 0.0, 0.657 0.3975 0.0, 0.7011 0.4194 0.0, 0.7002 0.4188 0.0, 0.6946 0.4141 0.0, 0.687 0.4087 0.0, 0.6897 0.4084 0.0, 0.6586 0.399 0.0, 0.6661 0.4043 0.0, 0.6182 0.3617 0.0, 0.6469 0.3617 0.0, 0.6458 0.3704 0.0, 0.6459 0.3727 0.0, 0.6751 0.3326 0.0, 0.6748 0.3332 0.0, 0.6182 0.3326 0.0, 0.6718 0.3341 0.0, 0.6632 0.3383 0.0, 0.6558 0.3446 0.0, 0.6504 0.3523 0.0, 0.647 0.3611 0.0, 0.6875 0.3193 0.0, 0.6853 0.3202 0.0, 0.6807 0.3237 0.0, 0.6772 0.3281 0.0, 0.6908 0.318 0.0, 0.7071 0.3193 0.0, 0.7031 0.3178 0.0, 0.8108 -0.2165 -0.0, 0.6973 0.3171 0.0, 0.6964 0.3171 0.0, 0.8108 0.3193 0.0, 0.7195 0.3324 0.0, 0.7167 0.3271 0.0, 0.7131 0.3231 0.0, 0.7084 0.3198 0.0, 0.7966 0.3617 0.0, 0.7961 0.3575 0.0, 0.7498 0.3466 0.0, 0.7514 0.3472 0.0, 0.7542 0.3607 0.0, 0.7884 0.3434 0.0, 0.7819 0.3379 0.0, 0.7484 0.3455 0.0, 0.7533 0.3474 0.0, 0.7535 0.3474 0.0, 0.7542 0.3473 0.0, 0.7931 0.35 0.0, 0.7547 0.3472 0.0, 0.7654 0.3472 0.0, 0.7675 0.3475 0.0, 0.7459 0.3401 0.0, 0.746 0.341 0.0, 0.721 0.3432 0.0, 0.7465 0.3428 0.0, 0.7474 0.3444 0.0, 0.7515 0.3329 0.0, 0.7499 0.3336 0.0, 0.7195 0.3326 0.0, 0.7484 0.3347 0.0, 0.7478 0.3352 0.0, 0.7468 0.3367 0.0, 0.7462 0.3383 0.0, 0.7209 0.3383 0.0, 0.721 0.3408 0.0, 0.7781 0.3537 0.0, 0.7806 0.3575 0.0, 0.782 0.3617 0.0, 0.7537 0.3617 0.0, 0.7747 0.3344 0.0, 0.7668 0.3327 0.0, 0.7528 0.3327 0.0, 0.7719 0.3489 0.0, 0.7758 0.3514 0.0, 0.7002 0.3646 0.0, 0.7059 0.3632 0.0, 0.7618 0.3855 0.0, 0.6973 0.3647 0.0, 0.7621 0.3842 0.0, 0.7469 0.3733 0.0, 0.764 0.3842 0.0, 0.7821 0.3618 0.0, 0.7825 0.3657 0.0, 0.7823 0.3679 0.0, 0.6916 0.364 0.0, 0.666 0.3855 0.0, 0.6864 0.362 0.0, 0.6635 0.382 0.0, 0.6615 0.3767 0.0, 0.6627 0.3617 0.0, 0.6859 0.3617 0.0, 0.6611 0.3672 0.0, 0.6608 0.3709 0.0, 0.7758 0.3799 0.0, 0.772 0.3823 0.0, 0.7678 0.3838 0.0, 0.7812 0.3725 0.0, 0.7789 0.3766 0.0, 0.7086 0.3617 0.0, 0.6628 0.3614 0.0, 0.6776 0.3542 0.0, 0.6815 0.3587 0.0, 0.6656 0.3567 0.0, 0.6698 0.3523 0.0, 0.675 0.3491 0.0, 0.7569 0.3985 0.0, 0.7516 0.4049 0.0, 0.6971 0.3911 0.0, 0.751 0.4054 0.0, 0.7444 0.41 0.0, 0.7007 0.3986 0.0, 0.6954 0.392 0.0, 0.7606 0.3909 0.0, 0.6901 0.3939 0.0, 0.6845 0.3946 0.0, 0.682 0.3945 0.0, 0.706 0.4049 0.0, 0.7369 0.4129 0.0, 0.7124 0.4096 0.0, 0.7289 0.4139 0.0, 0.7201 0.4127 0.0, 0.6761 0.3931 0.0, 0.6708 0.3903 0.0, 0.6668 0.3867 0.0, 0.7932 0.3809 0.0, 0.7961 0.3737 0.0, 0.7972 0.3659 0.0, 0.9255 0.3966 0.0, 0.9239 0.3932 0.0, 0.9146 0.4194 0.0, 0.9146 0.4184 0.0, 0.9184 0.4169 0.0, 0.9215 0.4147 0.0, 0.923 0.4132 0.0, 0.925 0.4102 0.0, 0.9146 0.3866 0.0, 0.9146 0.3855 0.0, 0.9179 0.3879 0.0, 0.9215 0.3904 0.0, 0.9212 0.3901 0.0, 0.9261 0.4069 0.0, 0.9265 0.4029 0.0, 0.9264 0.4005 0.0, 0.8962 0.4194 0.0, 0.9089 0.4191 0.0, 0.9144 0.4185 0.0, 0.9141 0.3864 0.0, 0.9085 0.3858 0.0, 0.8962 0.3855 0.0, 0.8994 0.3858 0.0, 0.8994 0.4191 0.0, 0.9348 0.3366 0.0, 0.9348 0.3328 0.0, 0.9275 0.3326 0.0, 0.9275 0.3617 0.0, 0.9275 0.3517 0.0, 0.9331 0.3517 0.0, 0.9331 0.3479 0.0, 0.9275 0.3479 0.0, 0.9212 0.3517 0.0, 0.9212 0.3617 0.0, 0.9212 0.3624 0.0, 0.9275 0.3624 0.0, 0.9169 0.3328 0.0, 0.9169 0.3617 0.0, 0.9169 0.3662 0.0, 0.9275 0.3328 0.0, 0.8794 0.3896 0.0, 0.8884 0.3896 0.0, 0.8794 0.4008 0.0, 0.8884 0.4008 0.0, 0.8884 0.4194 0.0, 0.8923 0.4191 0.0, 0.8884 0.4191 0.0, 0.8914 0.4008 0.0, 0.8931 0.3896 0.0, 0.8914 0.4046 0.0, 0.8923 0.4153 0.0, 0.8884 0.4153 0.0, 0.8751 0.3858 0.0, 0.8732 0.3855 0.0, 0.8884 0.3855 0.0, 0.8931 0.3858 0.0, 0.8884 0.3858 0.0, 0.8751 0.4191 0.0, 0.8732 0.4194 0.0, -0.4914 -0.2953 -0.0, -0.4993 -0.3143 -0.0, -0.502 -0.3346 -0.0, -0.4436 -0.4107 -0.0, -0.4626 -0.4028 -0.0, -0.4789 -0.3903 -0.0, -0.4914 -0.374 -0.0, -0.4993 -0.355 -0.0, -1.063 0.2953 0.0, -0.4789 -0.279 -0.0, -0.4626 -0.2665 -0.0, -0.4436 -0.2586 -0.0, -0.4232 -0.2559 -0.0, -0.4028 -0.2586 -0.0, -0.3839 -0.2665 -0.0, -0.3676 -0.279 -0.0, -0.355 -0.2953 -0.0, -0.3472 -0.3143 -0.0, -0.3445 -0.3346 -0.0, -0.3472 -0.355 -0.0, -0.355 -0.374 -0.0, 0.6182 -0.4921 -0.0, -0.3676 -0.3903 -0.0, -0.3839 -0.4028 -0.0, -0.4028 -0.4107 -0.0, -0.4232 -0.4134 -0.0, 0.8423 0.4194 0.0, 0.8423 0.4921 0.0, 0.8421 0.3896 0.0, 0.8421 0.3858 0.0, 0.8245 0.3858 0.0, 0.8288 0.3896 0.0, 0.8288 0.4191 0.0, 0.8245 0.4191 0.0, 0.8288 0.3479 0.0, 0.8288 0.3366 0.0, 0.8423 0.3193 0.0, 0.8661 -0.4921 -0.0, 0.8429 -0.2165 -0.0, 0.8429 -0.4921 -0.0, 0.8423 -0.2165 -0.0, 0.8423 -0.4921 -0.0, 0.8108 -0.4921 -0.0, 0.8678 0.4142 0.0, 0.9341 0.3624 0.0, 0.9341 0.3662 0.0, 0.9275 0.3662 0.0, 0.8732 0.4921 0.0, 0.8884 0.4921 0.0, 0.8962 0.4921 0.0, 0.9146 0.4921 0.0, 0.9275 0.4921 0.0, 0.938 0.4921 0.0, 1.063 0.4921 0.0, 0.9275 0.3193 0.0, 0.938 0.3193 0.0, 1.063 0.3193 0.0, -0.2559 -0.1378 -0.1378, 0.2559 -0.1378 -0.1378, 0.2559 -0.1378 -0.2362, -0.2559 -0.1378 -0.2362, -0.2559 -0.1378 -0.2362
            ]
        }
        coordIndex [
            0,1,2,-1,3,4,5,-1,6,7,8,-1,9,10,11,-1,12,13,14,-1,15,16,17,-1,18,19,20,-1,21,22,23,-1,24,25,26,-1,26,25,27,-1,28,29,30,-1,30,29,31,-1,30,31,32,-1,25,33,27,-1,27,33,34,-1,27,34,35,-1,35,34,36,-1,35,36,37,-1,37,36,38,-1,37,38,32,-1,32,38,39,-1,32,39,30,-1,40,41,42,-1,42,41,43,-1,42,43,44,-1,45,40,46,-1,46,40,42,-1,46,42,47,-1,47,42,48,-1,49,50,51,-1,52,53,54,-1,54,53,55,-1,54,55,51,-1,51,55,56,-1,51,56,49,-1,50,49,57,-1,57,49,58,-1,57,58,59,-1,59,58,60,-1,59,60,61,-1,62,63,64,-1,64,63,65,-1,64,65,27,-1,27,66,67,-1,65,68,27,-1,27,68,69,-1,27,69,66,-1,70,71,72,-1,72,71,66,-1,72,66,73,-1,73,66,69,-1,74,75,76,-1,77,78,79,-1,79,78,80,-1,79,80,81,-1,81,80,82,-1,81,82,67,-1,67,82,29,-1,67,29,27,-1,27,29,28,-1,27,28,26,-1,75,83,76,-1,76,83,78,-1,76,78,84,-1,84,78,77,-1,84,77,85,-1,85,77,86,-1,70,87,71,-1,71,87,88,-1,71,88,89,-1,90,91,76,-1,76,91,92,-1,76,92,74,-1,89,93,71,-1,71,93,94,-1,71,94,76,-1,76,94,95,-1,76,95,90,-1,96,97,98,-1,99,100,101,-1,100,102,101,-1,101,102,103,-1,101,103,104,-1,105,106,107,-1,107,106,99,-1,107,99,108,-1,109,110,99,-1,99,110,111,-1,99,111,108,-1,112,113,114,-1,112,114,107,-1,107,114,115,-1,107,115,116,-1,117,118,99,-1,99,118,119,-1,99,119,120,-1,116,121,107,-1,107,121,122,-1,107,122,105,-1,120,123,99,-1,99,123,124,-1,99,124,109,-1,125,126,96,-1,96,126,127,-1,96,127,97,-1,128,129,130,-1,130,129,125,-1,60,131,132,-1,132,131,133,-1,132,133,134,-1,135,136,137,-1,130,138,128,-1,128,138,137,-1,128,137,139,-1,139,137,140,-1,134,141,132,-1,132,141,142,-1,132,142,143,-1,136,144,137,-1,137,144,145,-1,137,145,140,-1,143,146,132,-1,132,146,147,-1,132,147,137,-1,137,147,148,-1,137,148,135,-1,149,150,60,-1,60,150,151,-1,60,151,131,-1,152,153,154,-1,155,156,157,-1,157,156,158,-1,157,158,159,-1,159,158,152,-1,159,152,160,-1,160,152,154,-1,161,162,17,-1,17,163,161,-1,161,163,164,-1,161,164,165,-1,166,167,163,-1,163,167,168,-1,163,168,164,-1,169,170,171,-1,163,172,173,-1,174,175,176,-1,176,175,177,-1,176,177,169,-1,169,177,178,-1,169,178,170,-1,173,179,163,-1,163,179,180,-1,163,180,166,-1,181,182,183,-1,181,183,22,-1,182,184,183,-1,183,184,185,-1,183,185,176,-1,176,185,186,-1,176,186,174,-1,187,188,189,-1,190,191,192,-1,192,191,193,-1,192,193,194,-1,188,187,195,-1,195,187,196,-1,195,196,190,-1,18,20,197,-1,197,20,198,-1,197,198,199,-1,199,198,200,-1,199,200,201,-1,201,200,202,-1,201,202,203,-1,203,202,204,-1,203,204,205,-1,205,204,206,-1,205,206,207,-1,207,206,208,-1,207,208,209,-1,210,211,212,-1,212,211,213,-1,212,213,214,-1,214,213,215,-1,214,215,216,-1,216,215,217,-1,216,217,218,-1,218,217,219,-1,218,219,220,-1,221,222,223,-1,224,225,223,-1,226,227,228,-1,228,227,229,-1,230,231,17,-1,231,232,17,-1,17,232,233,-1,17,233,234,-1,226,235,227,-1,227,235,236,-1,227,236,221,-1,221,236,237,-1,221,237,222,-1,225,230,223,-1,223,230,17,-1,223,17,221,-1,221,17,162,-1,221,162,156,-1,156,162,238,-1,156,238,158,-1,234,239,17,-1,17,239,240,-1,17,240,15,-1,241,242,243,-1,243,242,244,-1,243,244,245,-1,243,246,241,-1,241,246,247,-1,241,247,248,-1,248,249,241,-1,241,249,250,-1,241,250,251,-1,251,250,252,-1,251,252,253,-1,253,252,254,-1,253,254,223,-1,223,254,255,-1,223,255,224,-1,256,257,245,-1,245,257,258,-1,245,258,243,-1,259,149,260,-1,229,227,261,-1,261,227,149,-1,261,149,262,-1,263,264,265,-1,266,267,259,-1,267,268,259,-1,259,268,269,-1,259,269,149,-1,149,269,270,-1,149,270,262,-1,263,265,259,-1,259,265,271,-1,259,271,266,-1,272,273,264,-1,264,273,274,-1,264,274,265,-1,272,275,273,-1,273,275,276,-1,273,276,277,-1,277,276,278,-1,277,279,280,-1,278,281,277,-1,277,281,282,-1,277,282,283,-1,283,284,277,-1,277,284,285,-1,277,285,279,-1,280,286,277,-1,277,286,287,-1,277,287,288,-1,289,290,291,-1,291,290,292,-1,291,292,260,-1,260,292,293,-1,260,293,259,-1,294,295,289,-1,295,294,16,-1,16,294,169,-1,16,169,17,-1,17,169,171,-1,17,171,163,-1,163,171,296,-1,163,296,172,-1,58,297,298,-1,299,300,301,-1,301,300,302,-1,301,302,260,-1,298,303,58,-1,58,303,304,-1,58,304,305,-1,306,307,149,-1,149,307,308,-1,149,308,309,-1,305,310,58,-1,58,310,311,-1,58,311,312,-1,313,314,315,-1,58,316,60,-1,60,316,317,-1,60,317,318,-1,319,320,301,-1,301,320,321,-1,301,321,299,-1,312,322,58,-1,58,322,323,-1,58,323,316,-1,316,323,324,-1,316,324,325,-1,325,326,316,-1,316,326,327,-1,316,327,328,-1,328,327,315,-1,328,315,329,-1,329,315,314,-1,309,330,149,-1,149,330,331,-1,149,331,260,-1,260,331,332,-1,260,332,301,-1,318,333,60,-1,60,333,334,-1,60,334,149,-1,149,334,335,-1,149,335,306,-1,336,337,315,-1,315,337,338,-1,315,338,339,-1,339,340,315,-1,315,340,341,-1,315,341,313,-1,342,343,344,-1,344,343,345,-1,344,345,297,-1,346,53,347,-1,347,53,348,-1,347,348,349,-1,350,351,348,-1,348,351,352,-1,348,352,353,-1,353,354,348,-1,348,354,355,-1,348,355,349,-1,356,350,357,-1,358,359,360,-1,360,359,357,-1,357,359,361,-1,357,361,356,-1,362,363,364,-1,14,13,362,-1,362,13,365,-1,362,365,366,-1,358,360,367,-1,367,360,362,-1,367,362,368,-1,368,362,364,-1,368,364,369,-1,369,364,370,-1,369,370,371,-1,366,372,362,-1,362,372,373,-1,362,373,363,-1,374,375,376,-1,374,376,14,-1,14,376,377,-1,14,377,12,-1,378,379,380,-1,380,379,381,-1,380,381,382,-1,382,383,380,-1,380,383,384,-1,380,384,374,-1,374,384,385,-1,374,385,375,-1,386,387,191,-1,191,387,388,-1,191,388,389,-1,190,196,191,-1,191,196,390,-1,191,390,386,-1,391,392,393,-1,393,392,394,-1,393,394,196,-1,196,394,395,-1,196,395,390,-1,396,397,398,-1,398,399,396,-1,396,399,400,-1,396,400,391,-1,55,401,402,-1,403,404,405,-1,406,407,56,-1,403,405,408,-1,404,409,405,-1,405,409,410,-1,405,410,411,-1,55,402,56,-1,56,402,412,-1,56,412,406,-1,411,413,405,-1,405,413,414,-1,405,414,415,-1,416,417,418,-1,418,417,419,-1,418,419,405,-1,405,419,420,-1,405,420,408,-1,421,422,423,-1,423,422,424,-1,423,424,425,-1,425,426,423,-1,423,426,427,-1,423,427,428,-1,428,427,416,-1,428,416,429,-1,429,416,418,-1,430,431,405,-1,405,431,432,-1,405,432,433,-1,407,434,56,-1,56,434,435,-1,56,435,423,-1,423,435,436,-1,423,436,421,-1,415,437,405,-1,405,437,438,-1,405,438,430,-1,439,440,441,-1,439,441,442,-1,443,444,445,-1,445,444,433,-1,432,446,433,-1,433,446,447,-1,433,447,448,-1,449,450,451,-1,451,450,452,-1,451,452,453,-1,454,455,456,-1,456,455,451,-1,456,451,457,-1,457,451,453,-1,458,459,433,-1,433,459,460,-1,433,460,445,-1,448,461,433,-1,433,461,462,-1,433,462,458,-1,443,441,444,-1,444,441,440,-1,444,440,11,-1,11,440,463,-1,11,463,9,-1,464,465,454,-1,454,465,466,-1,454,466,455,-1,464,467,465,-1,465,467,468,-1,465,468,469,-1,470,471,472,-1,471,473,472,-1,472,473,474,-1,472,474,475,-1,450,472,476,-1,449,442,450,-1,450,442,441,-1,450,441,472,-1,472,441,477,-1,472,477,470,-1,476,478,450,-1,450,478,479,-1,450,479,480,-1,475,474,481,-1,481,474,482,-1,481,482,483,-1,483,482,484,-1,483,484,485,-1,486,487,480,-1,480,487,488,-1,480,488,450,-1,346,489,53,-1,53,489,490,-1,53,490,55,-1,55,490,491,-1,55,491,401,-1,492,493,35,-1,494,495,37,-1,37,495,496,-1,496,497,37,-1,37,497,498,-1,37,498,499,-1,500,501,502,-1,502,501,35,-1,493,503,35,-1,35,503,504,-1,35,504,502,-1,499,505,37,-1,37,505,506,-1,37,506,35,-1,35,506,507,-1,35,507,492,-1,508,509,494,-1,494,509,510,-1,494,510,495,-1,500,511,501,-1,501,511,512,-1,501,512,513,-1,513,512,514,-1,513,514,508,-1,508,514,515,-1,508,515,509,-1,516,517,78,-1,78,517,518,-1,519,520,64,-1,64,520,521,-1,64,521,522,-1,83,62,78,-1,78,62,64,-1,78,64,516,-1,516,64,522,-1,516,522,8,-1,8,522,523,-1,8,523,6,-1,524,520,525,-1,525,520,519,-1,525,519,526,-1,526,519,527,-1,528,529,155,-1,155,529,530,-1,517,531,518,-1,518,531,528,-1,518,528,23,-1,23,528,155,-1,23,155,21,-1,21,155,157,-1,532,533,534,-1,534,533,535,-1,508,536,537,-1,537,536,538,-1,535,533,539,-1,539,533,540,-1,539,540,541,-1,541,540,542,-1,541,542,5,-1,5,542,543,-1,5,543,3,-1,544,545,546,-1,537,542,508,-1,508,542,540,-1,508,540,513,-1,513,540,547,-1,513,547,546,-1,546,547,548,-1,546,548,544,-1,538,536,549,-1,549,536,550,-1,549,550,544,-1,211,380,213,-1,213,380,374,-1,213,374,215,-1,215,374,14,-1,215,14,217,-1,217,14,362,-1,217,362,219,-1,219,362,360,-1,551,187,552,-1,552,187,553,-1,2,554,555,-1,555,556,2,-1,2,556,557,-1,2,557,558,-1,558,553,2,-1,2,553,187,-1,2,187,0,-1,0,187,189,-1,0,189,559,-1,559,189,194,-1,559,194,210,-1,210,194,193,-1,210,193,211,-1,211,193,191,-1,211,191,380,-1,380,191,389,-1,380,389,378,-1,551,560,187,-1,187,560,561,-1,187,561,562,-1,562,563,187,-1,187,563,564,-1,187,564,196,-1,196,564,565,-1,196,565,566,-1,566,567,196,-1,196,567,568,-1,196,568,569,-1,570,571,572,-1,572,571,573,-1,573,574,572,-1,572,574,575,-1,572,575,2,-1,2,575,576,-1,2,576,554,-1,350,348,357,-1,357,348,577,-1,357,577,578,-1,577,579,48,-1,48,579,580,-1,48,580,581,-1,582,579,583,-1,583,579,577,-1,583,577,584,-1,584,577,348,-1,584,348,581,-1,581,348,53,-1,581,53,48,-1,48,53,52,-1,48,52,47,-1,585,586,44,-1,44,586,61,-1,44,61,42,-1,42,61,60,-1,42,60,48,-1,48,60,132,-1,48,132,577,-1,577,132,137,-1,577,137,578,-1,578,137,138,-1,297,58,344,-1,344,58,49,-1,344,49,587,-1,587,49,56,-1,587,56,396,-1,396,56,423,-1,396,423,397,-1,209,208,588,-1,588,208,589,-1,588,589,590,-1,590,589,591,-1,590,591,592,-1,592,591,393,-1,592,393,593,-1,593,393,196,-1,593,196,572,-1,572,196,569,-1,572,569,570,-1,544,550,545,-1,545,550,96,-1,545,96,101,-1,101,96,98,-1,101,98,99,-1,99,98,594,-1,99,594,117,-1,289,291,294,-1,294,291,260,-1,294,260,342,-1,342,260,302,-1,342,302,343,-1,527,519,595,-1,595,519,64,-1,595,64,596,-1,596,64,27,-1,596,27,597,-1,597,27,35,-1,597,35,530,-1,530,35,501,-1,530,501,155,-1,155,501,513,-1,155,513,156,-1,156,513,546,-1,156,546,221,-1,221,546,545,-1,221,545,227,-1,227,545,101,-1,227,101,149,-1,149,101,104,-1,149,104,150,-1,125,96,130,-1,130,96,550,-1,130,550,598,-1,598,550,536,-1,598,536,599,-1,599,536,508,-1,599,508,600,-1,600,508,494,-1,600,494,601,-1,601,494,37,-1,601,37,602,-1,602,37,32,-1,602,32,603,-1,603,32,31,-1,603,31,604,-1,22,183,23,-1,23,183,605,-1,23,605,518,-1,518,605,606,-1,518,606,78,-1,78,606,607,-1,78,607,80,-1,391,393,396,-1,396,393,591,-1,396,591,587,-1,587,591,589,-1,587,589,344,-1,344,589,208,-1,344,208,342,-1,342,208,206,-1,342,206,294,-1,294,206,204,-1,294,204,169,-1,169,204,202,-1,169,202,176,-1,176,202,200,-1,176,200,183,-1,183,200,198,-1,183,198,605,-1,605,198,20,-1,605,20,606,-1,606,20,19,-1,606,19,607,-1,189,195,608,-1,608,195,609,-1,610,611,609,-1,609,611,608,-1,
        ]
    }
}
Shape{
    appearance Appearance {
        material  Material 	{
            diffuseColor 0.8431372549019608 0.8431372549019608 0.8431372549019608
            specularColor 0.8431372549019608 0.8431372549019608 0.8431372549019608
            ambientIntensity 0.2
            transparency 0
            shininess 0.5
        }
    }
    geometry IndexedFaceSet {
        ccw TRUE
        solid FALSE
        coord DEF co Coordinate {
            point [
                0.2559 0.1378 -0.2362, -0.2559 0.1378 -0.2362, 0.2559 -0.1378 -0.2362, -0.2559 -0.1378 -0.2362, -0.2559 -0.1378 -0.2362
            ]
        }
        coordIndex [
            0,1,2,-1,2,1,3,-1,
        ]
    }
}
Shape{
    appearance Appearance {
        material  Material 	{
            diffuseColor 0.34901960784313724 0.34901960784313724 0.34901960784313724
            specularColor 0.34901960784313724 0.34901960784313724 0.34901960784313724
            ambientIntensity 0.2
            transparency 0
            shininess 0.5
        }
    }
    geometry IndexedFaceSet {
        ccw TRUE
        solid FALSE
        coord DEF co Coordinate {
            point [
                0.2559 0.1378 -0.1378, -0.2559 0.1378 -0.1378, 0.2559 0.1378 -0.2362, -0.2559 0.1378 -0.2362, -0.5906 0.1772 0.0, 0.5906 0.1772 0.0, -1.063 0.4921 -0.1181, -1.063 0.4921 -0.8661, -1.063 0.2953 -0.1181, -1.063 -0.4921 -0.8661, -1.063 0.2953 0.0, -1.063 -0.4921 -0.0, 1.063 0.4921 0.0, 0.1181 0.4921 -0.6103, -0.8661 0.4921 0.0, -0.1181 0.4921 -0.6103, -0.8661 0.4921 -0.1181, -0.2165 0.4921 -0.8661, -0.2165 0.4921 -0.9449, -0.4724 0.4921 -0.9449, 0.4724 0.4921 -0.9449, 0.2165 0.4921 -0.9449, 0.2165 0.4921 -0.8661, 1.063 0.4921 -0.8661, 0.4724 0.4921 -0.8661, 0.1181 0.4921 -0.669, -0.1181 0.4921 -0.669, -0.4724 0.4921 -0.8661, 1.063 -0.4921 -0.1181, 1.063 -0.4921 -0.8661, 1.063 -0.2953 -0.1181, 1.063 -0.2953 -0.0, -0.4724 -0.4921 -0.8661, -0.4724 -0.4921 -0.9449, -0.2165 -0.4921 -0.9449, 0.2165 -0.4921 -0.9449, 0.4724 -0.4921 -0.9449, 0.2165 -0.4921 -0.8661, 0.4724 -0.4921 -0.8661, -0.5709 -0.4921 -0.669, -0.8071 -0.4921 -0.669, -0.8071 -0.4921 -0.6103, 0.8661 -0.4921 -0.0, 0.8661 -0.4921 -0.1181, 0.5709 -0.4921 -0.6103, 0.8071 -0.4921 -0.6103, 0.8071 -0.4921 -0.669, 0.5709 -0.4921 -0.669, -0.5709 -0.4921 -0.6103, -0.2165 -0.4921 -0.8661, 0.4724 0.0984 -0.9449, 0.8661 0.0984 -0.9449, 0.8661 -0.0984 -0.9449, -0.4724 -0.0984 -0.9449, -0.8661 -0.0984 -0.9449, -0.8661 0.0984 -0.9449, -0.4724 0.0984 -0.9449, -0.2165 0.0984 -0.9449, -0.2165 -0.0984 -0.9449, 0.2165 0.0984 -0.9449, 0.4724 -0.0984 -0.9449, 0.2165 -0.0984 -0.9449, -0.4724 0.0984 -0.8661, -0.8661 0.0984 -0.8661, -0.8661 -0.0984 -0.8661, -0.4724 -0.0984 -0.8661, -0.2165 -0.0984 -0.8661, 0.2165 -0.0984 -0.8661, 0.4724 -0.0984 -0.8661, 0.8661 -0.0984 -0.8661, 0.8661 0.0984 -0.8661, 0.4724 0.0984 -0.8661, -0.2165 0.0984 -0.8661, 0.2165 0.0984 -0.8661, 0.5906 -0.1772 -0.0, 0.2559 -0.1378 -0.1378, 0.2559 -0.1378 -0.2362, -0.2559 -0.1378 -0.1378, -0.5906 -0.1772 -0.0, -0.2559 -0.1378 -0.2362, -0.2559 -0.1378 -0.2362
            ]
        }
        coordIndex [
            0,1,2,-1,2,1,3,-1,1,0,4,-1,4,0,5,-1,6,7,8,-1,8,7,9,-1,8,9,10,-1,10,9,11,-1,12,13,14,-1,14,13,15,-1,14,15,16,-1,17,18,19,-1,20,21,22,-1,12,23,13,-1,13,23,24,-1,13,24,25,-1,24,20,25,-1,25,20,22,-1,25,22,26,-1,22,17,26,-1,26,17,19,-1,26,19,15,-1,15,19,27,-1,15,27,16,-1,16,27,7,-1,16,7,6,-1,28,29,30,-1,30,29,23,-1,30,23,31,-1,31,23,12,-1,32,33,34,-1,35,36,37,-1,37,36,38,-1,39,40,9,-1,9,40,11,-1,11,40,41,-1,11,41,42,-1,43,44,28,-1,28,44,45,-1,28,45,29,-1,29,45,46,-1,29,46,38,-1,38,46,47,-1,38,47,37,-1,9,32,39,-1,39,32,34,-1,39,34,48,-1,48,34,49,-1,47,44,37,-1,37,44,43,-1,37,43,49,-1,49,43,42,-1,49,42,48,-1,48,42,41,-1,50,51,52,-1,53,54,55,-1,19,18,56,-1,56,18,57,-1,34,33,58,-1,58,33,53,-1,21,20,59,-1,59,20,50,-1,59,50,60,-1,60,50,52,-1,55,56,53,-1,53,56,57,-1,53,57,58,-1,58,57,59,-1,58,59,61,-1,61,59,60,-1,61,60,35,-1,35,60,36,-1,43,30,42,-1,42,30,31,-1,43,28,30,-1,16,8,14,-1,14,8,10,-1,8,16,6,-1,27,19,62,-1,62,19,56,-1,62,56,63,-1,63,56,55,-1,64,54,65,-1,65,54,53,-1,65,53,32,-1,32,53,33,-1,63,55,64,-1,64,55,54,-1,65,32,64,-1,64,32,9,-1,64,9,63,-1,63,9,7,-1,63,7,62,-1,62,7,27,-1,49,34,66,-1,66,34,58,-1,66,58,67,-1,67,58,61,-1,67,61,37,-1,37,61,35,-1,66,67,49,-1,49,67,37,-1,38,36,68,-1,68,36,60,-1,68,60,69,-1,69,60,52,-1,69,52,70,-1,70,52,51,-1,70,51,71,-1,71,51,50,-1,71,50,24,-1,24,50,20,-1,71,24,70,-1,70,24,23,-1,70,23,69,-1,69,23,29,-1,69,29,68,-1,68,29,38,-1,72,17,73,-1,73,17,22,-1,72,57,17,-1,17,57,18,-1,73,59,72,-1,72,59,57,-1,22,21,73,-1,73,21,59,-1,5,0,74,-1,74,0,75,-1,0,2,75,-1,75,2,76,-1,1,4,77,-1,77,4,78,-1,3,1,79,-1,79,1,77,-1,
        ]
    }
}
Shape{
    appearance Appearance {
        material  Material 	{
            diffuseColor 0.7254901960784313 0.7254901960784313 0.0
            specularColor 0.7254901960784313 0.7254901960784313 0.0
            ambientIntensity 0.2
            transparency 0
            shininess 0.5
        }
    }
    geometry IndexedFaceSet {
        ccw TRUE
        solid FALSE
        coord DEF co Coordinate {
            point [
                0.8071 -0.8268 -0.9252, 0.8071 -0.6697 -0.9252, 0.5709 -0.8268 -0.9252, 0.5709 -0.6697 -0.9252, 0.8071 -0.8268 -0.9843, 0.5709 -0.8268 -0.9843, 0.8071 -0.6693 -0.9843, 0.5709 -0.6693 -0.9843, 0.5709 -0.6468 -0.9817, 0.8071 -0.6468 -0.9817, 0.5709 -0.6255 -0.974, 0.8071 -0.6255 -0.974, 0.5709 -0.6066 -0.9617, 0.8071 -0.6066 -0.9617, 0.5709 -0.5909 -0.9454, 0.8071 -0.5909 -0.9454, 0.5709 -0.5794 -0.9259, 0.8071 -0.5794 -0.9259, 0.8071 -0.4921 -0.669, 0.5709 -0.4921 -0.669, 0.8071 -0.4921 -0.6103, 0.5709 -0.4921 -0.6103, 0.5709 -0.507 -0.6127, 0.8071 -0.507 -0.6127, 0.5709 -0.5209 -0.6187, 0.8071 -0.5209 -0.6187, 0.5709 -0.533 -0.6277, 0.8071 -0.533 -0.6277, 0.5709 -0.5425 -0.6394, 0.8071 -0.5425 -0.6394, 0.5709 -0.5491 -0.653, 0.8071 -0.5491 -0.653, 0.8071 -0.5491 -0.653
            ]
        }
        coordIndex [
            0,1,2,-1,2,1,3,-1,4,0,5,-1,5,0,2,-1,6,4,7,-1,7,4,5,-1,6,7,8,-1,6,8,9,-1,9,8,10,-1,9,10,11,-1,11,10,12,-1,11,12,13,-1,13,12,14,-1,13,14,15,-1,15,14,16,-1,15,16,17,-1,17,16,18,-1,18,16,19,-1,20,21,22,-1,20,22,23,-1,23,22,24,-1,23,24,25,-1,25,24,26,-1,25,26,27,-1,27,26,28,-1,27,28,29,-1,29,28,30,-1,29,30,31,-1,
        ]
    }
}
Shape{
    appearance Appearance {
        material  Material 	{
            diffuseColor 0.7215686274509804 0.7215686274509804 0.0
            specularColor 0.7215686274509804 0.7215686274509804 0.0
            ambientIntensity 0.2
            transparency 0
            shininess 0.5
        }
    }
    geometry IndexedFaceSet {
        ccw TRUE
        solid FALSE
        coord DEF co Coordinate {
            point [
                0.8071 -0.6325 -0.8985, 0.8071 -0.5491 -0.653, 0.5709 -0.6325 -0.8985, 0.5709 -0.5491 -0.653, 0.5709 -0.5491 -0.653
            ]
        }
        coordIndex [
            0,1,2,-1,2,1,3,-1,
        ]
    }
}
Shape{
    appearance Appearance {
        material  Material 	{
            diffuseColor 0.7254901960784313 0.7254901960784313 0.0
            specularColor 0.7254901960784313 0.7254901960784313 0.0
            ambientIntensity 0.2
            transparency 0
            shininess 0.5
        }
    }
    geometry IndexedFaceSet {
        ccw TRUE
        solid FALSE
        coord DEF co Coordinate {
            point [
                0.8071 -0.6325 -0.8985, 0.5709 -0.6325 -0.8985, 0.8071 -0.6367 -0.9073, 0.5709 -0.6367 -0.9073, 0.8071 -0.643 -0.9147, 0.5709 -0.643 -0.9147, 0.8071 -0.6509 -0.9204, 0.5709 -0.6509 -0.9204, 0.8071 -0.66 -0.924, 0.5709 -0.66 -0.924, 0.8071 -0.6697 -0.9252, 0.5709 -0.6697 -0.9252, 0.5709 -0.6697 -0.9252
            ]
        }
        coordIndex [
            0,1,2,-1,2,1,3,-1,2,3,4,-1,4,3,5,-1,4,5,6,-1,6,5,7,-1,6,7,8,-1,8,7,9,-1,8,9,10,-1,10,9,11,-1,
        ]
    }
}
Shape{
    appearance Appearance {
        material  Material 	{
            diffuseColor 0.7215686274509804 0.7215686274509804 0.0
            specularColor 0.7215686274509804 0.7215686274509804 0.0
            ambientIntensity 0.2
            transparency 0
            shininess 0.5
        }
    }
    geometry IndexedFaceSet {
        ccw TRUE
        solid FALSE
        coord DEF co Coordinate {
            point [
                0.8071 -0.8268 -0.9252, 0.8071 -0.8268 -0.9843, 0.8071 -0.6697 -0.9252, 0.8071 -0.6693 -0.9843, 0.8071 -0.66 -0.924, 0.8071 -0.6468 -0.9817, 0.8071 -0.6509 -0.9204, 0.8071 -0.6255 -0.974, 0.8071 -0.643 -0.9147, 0.8071 -0.6066 -0.9617, 0.8071 -0.6367 -0.9073, 0.8071 -0.5909 -0.9454, 0.8071 -0.6325 -0.8985, 0.8071 -0.5794 -0.9259, 0.8071 -0.5491 -0.653, 0.8071 -0.4921 -0.669, 0.8071 -0.5209 -0.6187, 0.8071 -0.507 -0.6127, 0.8071 -0.4921 -0.6103, 0.8071 -0.533 -0.6277, 0.8071 -0.5425 -0.6394, 0.8071 -0.5425 -0.6394
            ]
        }
        coordIndex [
            0,1,2,-1,2,1,3,-1,2,3,4,-1,4,3,5,-1,4,5,6,-1,6,5,7,-1,6,7,8,-1,8,7,9,-1,8,9,10,-1,10,9,11,-1,10,11,12,-1,12,11,13,-1,12,13,14,-1,14,13,15,-1,16,15,17,-1,17,15,18,-1,16,19,15,-1,15,19,20,-1,15,20,14,-1,
        ]
    }
}
Shape{
    appearance Appearance {
        material  Material 	{
            diffuseColor 0.7254901960784313 0.7254901960784313 0.0
            specularColor 0.7254901960784313 0.7254901960784313 0.0
            ambientIntensity 0.2
            transparency 0
            shininess 0.5
        }
    }
    geometry IndexedFaceSet {
        ccw TRUE
        solid FALSE
        coord DEF co Coordinate {
            point [
                0.5709 -0.507 -0.6127, 0.5709 -0.4921 -0.6103, 0.5709 -0.4921 -0.669, 0.5709 -0.8268 -0.9843, 0.5709 -0.8268 -0.9252, 0.5709 -0.6693 -0.9843, 0.5709 -0.6697 -0.9252, 0.5709 -0.6468 -0.9817, 0.5709 -0.66 -0.924, 0.5709 -0.6255 -0.974, 0.5709 -0.6509 -0.9204, 0.5709 -0.6066 -0.9617, 0.5709 -0.643 -0.9147, 0.5709 -0.5909 -0.9454, 0.5709 -0.6367 -0.9073, 0.5709 -0.5794 -0.9259, 0.5709 -0.6325 -0.8985, 0.5709 -0.5491 -0.653, 0.5709 -0.5425 -0.6394, 0.5709 -0.533 -0.6277, 0.5709 -0.5209 -0.6187, 0.5709 -0.5209 -0.6187
            ]
        }
        coordIndex [
            0,1,2,-1,3,4,5,-1,5,4,6,-1,5,6,7,-1,7,6,8,-1,7,8,9,-1,9,8,10,-1,9,10,11,-1,11,10,12,-1,11,12,13,-1,13,12,14,-1,13,14,15,-1,15,14,16,-1,15,16,2,-1,2,16,17,-1,2,17,18,-1,18,19,2,-1,2,19,20,-1,2,20,0,-1,
        ]
    }
}
Shape{
    appearance Appearance {
        material  Material 	{
            diffuseColor 0.7215686274509804 0.7215686274509804 0.0
            specularColor 0.7215686274509804 0.7215686274509804 0.0
            ambientIntensity 0.2
            transparency 0
            shininess 0.5
        }
    }
    geometry IndexedFaceSet {
        ccw TRUE
        solid FALSE
        coord DEF co Coordinate {
            point [
                -0.5709 -0.8268 -0.9252, -0.5709 -0.6697 -0.9252, -0.8071 -0.8268 -0.9252, -0.8071 -0.6697 -0.9252, -0.5709 -0.8268 -0.9843, -0.8071 -0.8268 -0.9843, -0.5709 -0.6693 -0.9843, -0.8071 -0.6693 -0.9843, -0.8071 -0.6468 -0.9817, -0.5709 -0.6468 -0.9817, -0.8071 -0.6255 -0.974, -0.5709 -0.6255 -0.974, -0.8071 -0.6066 -0.9617, -0.5709 -0.6066 -0.9617, -0.8071 -0.5909 -0.9454, -0.5709 -0.5909 -0.9454, -0.8071 -0.5794 -0.9259, -0.5709 -0.5794 -0.9259, -0.5709 -0.4921 -0.669, -0.8071 -0.4921 -0.669, -0.5709 -0.4921 -0.6103, -0.8071 -0.4921 -0.6103, -0.8071 -0.507 -0.6127, -0.5709 -0.507 -0.6127, -0.8071 -0.5209 -0.6187, -0.5709 -0.5209 -0.6187, -0.8071 -0.533 -0.6277, -0.5709 -0.533 -0.6277, -0.8071 -0.5425 -0.6394, -0.5709 -0.5425 -0.6394, -0.8071 -0.5491 -0.653, -0.5709 -0.5491 -0.653, -0.5709 -0.6325 -0.8985, -0.8071 -0.6325 -0.8985, -0.5709 -0.6367 -0.9073, -0.8071 -0.6367 -0.9073, -0.5709 -0.643 -0.9147, -0.8071 -0.643 -0.9147, -0.5709 -0.6509 -0.9204, -0.8071 -0.6509 -0.9204, -0.5709 -0.66 -0.924, -0.8071 -0.66 -0.924, -0.1181 0.4921 -0.669, -0.1181 0.5794 -0.9259, 0.1181 0.4921 -0.669, 0.1181 0.5794 -0.9259, 0.1181 0.5491 -0.653, -0.1181 0.5491 -0.653, -0.1181 0.5425 -0.6394, 0.1181 0.5425 -0.6394, -0.1181 0.533 -0.6277, 0.1181 0.533 -0.6277, -0.1181 0.5209 -0.6187, 0.1181 0.5209 -0.6187, -0.1181 0.507 -0.6127, 0.1181 0.507 -0.6127, -0.1181 0.4921 -0.6103, 0.1181 0.4921 -0.6103, 0.1181 0.8268 -0.9843, 0.1181 0.8268 -0.9252, 0.1181 0.6693 -0.9843, 0.1181 0.6697 -0.9252, 0.1181 0.6468 -0.9817, 0.1181 0.66 -0.924, 0.1181 0.6255 -0.974, 0.1181 0.6509 -0.9204, 0.1181 0.6066 -0.9617, 0.1181 0.643 -0.9147, 0.1181 0.5909 -0.9454, 0.1181 0.6367 -0.9073, 0.1181 0.6325 -0.8985, -0.1181 0.8268 -0.9252, -0.1181 0.8268 -0.9843, -0.1181 0.6697 -0.9252, -0.1181 0.6693 -0.9843, -0.1181 0.66 -0.924, -0.1181 0.6468 -0.9817, -0.1181 0.6509 -0.9204, -0.1181 0.6255 -0.974, -0.1181 0.643 -0.9147, -0.1181 0.6066 -0.9617, -0.1181 0.6367 -0.9073, -0.1181 0.5909 -0.9454, -0.1181 0.6325 -0.8985, -0.1181 0.6325 -0.8985
            ]
        }
        coordIndex [
            0,1,2,-1,2,1,3,-1,4,0,5,-1,5,0,2,-1,6,4,7,-1,7,4,5,-1,6,7,8,-1,6,8,9,-1,9,8,10,-1,9,10,11,-1,11,10,12,-1,11,12,13,-1,13,12,14,-1,13,14,15,-1,15,14,16,-1,15,16,17,-1,17,16,18,-1,18,16,19,-1,20,21,22,-1,20,22,23,-1,23,22,24,-1,23,24,25,-1,25,24,26,-1,25,26,27,-1,27,26,28,-1,27,28,29,-1,29,28,30,-1,29,30,31,-1,32,31,33,-1,33,31,30,-1,32,33,34,-1,34,33,35,-1,34,35,36,-1,36,35,37,-1,36,37,38,-1,38,37,39,-1,38,39,40,-1,40,39,41,-1,40,41,1,-1,1,41,3,-1,0,4,1,-1,1,4,6,-1,1,6,40,-1,40,6,9,-1,40,9,38,-1,38,9,11,-1,38,11,36,-1,36,11,13,-1,36,13,34,-1,34,13,15,-1,34,15,32,-1,32,15,17,-1,32,17,31,-1,31,17,18,-1,25,18,23,-1,23,18,20,-1,25,27,18,-1,18,27,29,-1,18,29,31,-1,22,21,19,-1,5,2,7,-1,7,2,3,-1,7,3,8,-1,8,3,41,-1,8,41,10,-1,10,41,39,-1,10,39,12,-1,12,39,37,-1,12,37,14,-1,14,37,35,-1,14,35,16,-1,16,35,33,-1,16,33,19,-1,19,33,30,-1,19,30,28,-1,28,26,19,-1,19,26,24,-1,19,24,22,-1,42,43,44,-1,44,43,45,-1,46,47,48,-1,46,48,49,-1,49,48,50,-1,49,50,51,-1,51,50,52,-1,51,52,53,-1,53,52,54,-1,53,54,55,-1,55,54,56,-1,55,56,57,-1,58,59,60,-1,60,59,61,-1,60,61,62,-1,62,61,63,-1,62,63,64,-1,64,63,65,-1,64,65,66,-1,66,65,67,-1,66,67,68,-1,68,67,69,-1,68,69,45,-1,45,69,70,-1,45,70,44,-1,70,46,44,-1,44,46,49,-1,44,49,51,-1,51,53,44,-1,44,53,55,-1,44,55,57,-1,71,72,73,-1,73,72,74,-1,73,74,75,-1,75,74,76,-1,75,76,77,-1,77,76,78,-1,77,78,79,-1,79,78,80,-1,79,80,81,-1,81,80,82,-1,81,82,83,-1,83,82,43,-1,83,43,47,-1,47,43,42,-1,47,42,48,-1,42,56,54,-1,54,52,42,-1,42,52,50,-1,42,50,48,-1,45,43,82,-1,45,82,68,-1,68,82,80,-1,68,80,66,-1,66,80,78,-1,66,78,64,-1,64,78,76,-1,64,76,62,-1,62,76,74,-1,62,74,60,-1,58,60,72,-1,72,60,74,-1,59,58,71,-1,71,58,72,-1,61,59,73,-1,73,59,71,-1,61,73,63,-1,63,73,75,-1,63,75,65,-1,65,75,77,-1,65,77,67,-1,67,77,79,-1,67,79,69,-1,69,79,81,-1,69,81,70,-1,70,81,83,-1,46,70,47,-1,47,70,83,-1,
        ]
    }
}
Shape{
    appearance Appearance {
        material  Material 	{
            diffuseColor 0.34901960784313724 0.34901960784313724 0.34901960784313724
            specularColor 0.34901960784313724 0.34901960784313724 0.34901960784313724
            ambientIntensity 0.2
            transparency 0
            shininess 0.5
        }
    }
    geometry IndexedFaceSet {
        ccw TRUE
        solid FALSE
        coord DEF co Coordinate {
            point [
                -0.4232 -0.4134 -0.0079, -0.4232 -0.4134 -0.0, -0.4028 -0.4107 -0.0079, -0.4028 -0.4107 -0.0, -0.3839 -0.4028 -0.0079, -0.3839 -0.4028 -0.0, -0.3676 -0.3903 -0.0079, -0.3676 -0.3903 -0.0, -0.355 -0.374 -0.0079, -0.355 -0.374 -0.0, -0.3472 -0.355 -0.0079, -0.3472 -0.355 -0.0, -0.3445 -0.3346 -0.0079, -0.3445 -0.3346 -0.0, -0.3472 -0.3143 -0.0079, -0.3472 -0.3143 -0.0, -0.355 -0.2953 -0.0079, -0.355 -0.2953 -0.0, -0.3676 -0.279 -0.0079, -0.3676 -0.279 -0.0, -0.3839 -0.2665 -0.0079, -0.3839 -0.2665 -0.0, -0.4028 -0.2586 -0.0079, -0.4028 -0.2586 -0.0, -0.4232 -0.2559 -0.0079, -0.4232 -0.2559 -0.0, -0.4436 -0.2586 -0.0079, -0.4436 -0.2586 -0.0, -0.4626 -0.2665 -0.0079, -0.4626 -0.2665 -0.0, -0.4789 -0.279 -0.0079, -0.4789 -0.279 -0.0, -0.4914 -0.2953 -0.0079, -0.4914 -0.2953 -0.0, -0.4993 -0.3143 -0.0079, -0.4993 -0.3143 -0.0, -0.502 -0.3346 -0.0079, -0.502 -0.3346 -0.0, -0.4993 -0.355 -0.0079, -0.4993 -0.355 -0.0, -0.4914 -0.374 -0.0079, -0.4914 -0.374 -0.0, -0.4789 -0.3903 -0.0079, -0.4789 -0.3903 -0.0, -0.4626 -0.4028 -0.0079, -0.4626 -0.4028 -0.0, -0.4436 -0.4107 -0.0079, -0.4436 -0.4107 -0.0, -0.4436 -0.4107 -0.0
            ]
        }
        coordIndex [
            0,1,2,-1,2,1,3,-1,2,3,4,-1,4,3,5,-1,4,5,6,-1,6,5,7,-1,6,7,8,-1,8,7,9,-1,8,9,10,-1,10,9,11,-1,10,11,12,-1,12,11,13,-1,12,13,14,-1,14,13,15,-1,14,15,16,-1,16,15,17,-1,16,17,18,-1,18,17,19,-1,18,19,20,-1,20,19,21,-1,20,21,22,-1,22,21,23,-1,22,23,24,-1,24,23,25,-1,24,25,26,-1,26,25,27,-1,26,27,28,-1,28,27,29,-1,28,29,30,-1,30,29,31,-1,30,31,32,-1,32,31,33,-1,32,33,34,-1,34,33,35,-1,34,35,36,-1,36,35,37,-1,36,37,38,-1,38,37,39,-1,38,39,40,-1,40,39,41,-1,40,41,42,-1,42,41,43,-1,42,43,44,-1,44,43,45,-1,44,45,46,-1,46,45,47,-1,46,47,0,-1,0,47,1,-1,
        ]
    }
}
Shape{
    appearance Appearance {
        material  Material 	{
            diffuseColor 0.6980392156862745 0.6980392156862745 0.6980392156862745
            specularColor 0.6980392156862745 0.6980392156862745 0.6980392156862745
            ambientIntensity 0.2
            transparency 0
            shininess 0.5
        }
    }
    geometry IndexedFaceSet {
        ccw TRUE
        solid FALSE
        coord DEF co Coordinate {
            point [
                -0.355 -0.374 -0.0079, -0.3472 -0.355 -0.0079, -0.4232 -0.3346 -0.0079, -0.3445 -0.3346 -0.0079, -0.3472 -0.3143 -0.0079, -0.4028 -0.4107 -0.0079, -0.3839 -0.4028 -0.0079, -0.3676 -0.3903 -0.0079, -0.4626 -0.4028 -0.0079, -0.4436 -0.4107 -0.0079, -0.4232 -0.4134 -0.0079, -0.4993 -0.355 -0.0079, -0.4914 -0.374 -0.0079, -0.4789 -0.3903 -0.0079, -0.4914 -0.2953 -0.0079, -0.4993 -0.3143 -0.0079, -0.502 -0.3346 -0.0079, -0.4436 -0.2586 -0.0079, -0.4626 -0.2665 -0.0079, -0.4789 -0.279 -0.0079, -0.3839 -0.2665 -0.0079, -0.4028 -0.2586 -0.0079, -0.4232 -0.2559 -0.0079, -0.355 -0.2953 -0.0079, -0.3676 -0.279 -0.0079, -0.3676 -0.279 -0.0079
            ]
        }
        coordIndex [
            0,1,2,-1,2,1,3,-1,2,3,4,-1,5,6,2,-1,2,6,7,-1,2,7,0,-1,8,9,2,-1,2,9,10,-1,2,10,5,-1,11,12,2,-1,2,12,13,-1,2,13,8,-1,14,15,2,-1,2,15,16,-1,2,16,11,-1,17,18,2,-1,2,18,19,-1,2,19,14,-1,20,21,2,-1,2,21,22,-1,2,22,17,-1,4,23,2,-1,2,23,24,-1,2,24,20,-1,
        ]
    }
}
Shape{
    appearance Appearance {
        material  Material 	{
            diffuseColor 1.0 1.0 1.0
            specularColor 0.5019607843137255 0.5019607843137255 0.5019607843137255
            ambientIntensity 0.2
            transparency 0
            shininess 0.5
        }
    }
    geometry IndexedFaceSet {
        ccw TRUE
        solid FALSE
        coord DEF co Coordinate {
            point [
                0.9612 0.3581 0.0039, 0.9648 0.3603 0.0039, 0.9601 0.3592 0.0039, 0.9633 0.3618 0.0039, 0.9576 0.3609 0.0039, 0.9602 0.364 0.0039, 0.9546 0.3619 0.0039, 0.9562 0.3655 0.0039, 0.9505 0.3624 0.0039, 0.9507 0.3662 0.0039, 0.9455 0.3624 0.0039, 0.9411 0.3662 0.0039, 0.9455 0.3366 0.0039, 0.9411 0.3328 0.0039, 0.9503 0.3366 0.0039, 0.9503 0.3328 0.0039, 0.9544 0.3371 0.0039, 0.9559 0.3335 0.0039, 0.9573 0.3381 0.0039, 0.9597 0.335 0.0039, 0.9595 0.3395 0.0039, 0.9629 0.3372 0.0039, 0.9602 0.3401 0.0039, 0.9633 0.3375 0.0039, 0.962 0.3423 0.0039, 0.9656 0.3403 0.0039, 0.9631 0.3448 0.0039, 0.9673 0.3437 0.0039, 0.9637 0.3479 0.0039, 0.9682 0.3476 0.0039, 0.9638 0.3498 0.0039, 0.9683 0.3499 0.0039, 0.9634 0.3537 0.0039, 0.9679 0.354 0.0039, 0.9625 0.3562 0.0039, 0.9667 0.3573 0.0039, 0.9633 0.3375 0.0, 0.9656 0.3403 0.0, 0.9673 0.3437 0.0, 0.9682 0.3476 0.0, 0.9683 0.3499 0.0, 0.9679 0.354 0.0, 0.9667 0.3573 0.0, 0.9648 0.3603 0.0, 0.9634 0.3617 0.0, 0.9633 0.3618 0.0, 0.9602 0.364 0.0, 0.9562 0.3655 0.0, 0.9507 0.3662 0.0, 0.9411 0.3662 0.0, 0.9411 0.3328 0.0, 0.9411 0.3617 0.0, 0.9503 0.3328 0.0, 0.9559 0.3335 0.0, 0.9597 0.335 0.0, 0.9629 0.3372 0.0, 0.9601 0.3592 0.0, 0.9612 0.3581 0.0, 0.9625 0.3562 0.0, 0.9634 0.3537 0.0, 0.9638 0.3498 0.0, 0.9505 0.3624 0.0, 0.9546 0.3619 0.0, 0.9576 0.3609 0.0, 0.9455 0.3624 0.0, 0.9455 0.3366 0.0, 0.9503 0.3366 0.0, 0.9602 0.3401 0.0, 0.9595 0.3395 0.0, 0.9573 0.3381 0.0, 0.9544 0.3371 0.0, 0.9637 0.3479 0.0, 0.9631 0.3448 0.0, 0.962 0.3423 0.0, 0.962 0.3423 0.0
            ]
        }
        coordIndex [
            0,1,2,-1,2,1,3,-1,2,3,4,-1,4,3,5,-1,4,5,6,-1,6,5,7,-1,6,7,8,-1,8,7,9,-1,8,9,10,-1,10,9,11,-1,10,11,12,-1,12,11,13,-1,12,13,14,-1,14,13,15,-1,14,15,16,-1,16,15,17,-1,16,17,18,-1,18,17,19,-1,18,19,20,-1,20,19,21,-1,20,21,22,-1,22,21,23,-1,22,23,24,-1,24,23,25,-1,24,25,26,-1,26,25,27,-1,26,27,28,-1,28,27,29,-1,28,29,30,-1,30,29,31,-1,30,31,32,-1,32,31,33,-1,32,33,34,-1,34,33,35,-1,34,35,0,-1,0,35,1,-1,23,36,37,-1,23,37,25,-1,25,37,38,-1,25,38,27,-1,27,38,39,-1,27,39,29,-1,29,39,40,-1,29,40,31,-1,31,40,41,-1,31,41,33,-1,33,41,42,-1,33,42,35,-1,35,42,43,-1,35,43,1,-1,1,43,3,-1,3,43,44,-1,3,44,45,-1,3,45,46,-1,3,46,5,-1,5,46,47,-1,5,47,7,-1,7,47,48,-1,7,48,9,-1,11,9,49,-1,49,9,48,-1,50,13,51,-1,51,13,11,-1,51,11,49,-1,15,13,52,-1,52,13,50,-1,15,52,53,-1,15,53,17,-1,17,53,54,-1,17,54,19,-1,19,54,55,-1,19,55,21,-1,21,55,36,-1,21,36,23,-1,2,56,57,-1,2,57,0,-1,0,57,58,-1,0,58,34,-1,34,58,59,-1,34,59,32,-1,32,59,60,-1,32,60,30,-1,8,61,62,-1,8,62,6,-1,6,62,63,-1,6,63,4,-1,4,63,56,-1,4,56,2,-1,8,10,61,-1,61,10,64,-1,10,12,64,-1,64,12,65,-1,12,14,65,-1,65,14,66,-1,22,67,68,-1,22,68,20,-1,20,68,69,-1,20,69,18,-1,18,69,70,-1,18,70,16,-1,16,70,66,-1,16,66,14,-1,30,60,71,-1,30,71,28,-1,28,71,72,-1,28,72,26,-1,26,72,73,-1,26,73,24,-1,24,73,67,-1,24,67,22,-1,
        ]
    }
}
Shape{
    appearance Appearance {
        material  Material 	{
            diffuseColor 1.0 1.0 1.0
            specularColor 0.8784313725490196 0.8784313725490196 0.8784313725490196
            ambientIntensity 0.2
            transparency 0
            shininess 0.5
        }
    }
    geometry IndexedFaceSet {
        ccw TRUE
        solid FALSE
        coord DEF co Coordinate {
            point [
                0.9455 0.3624 0.0, 0.9455 0.3366 0.0, 0.9505 0.3624 0.0, 0.9503 0.3366 0.0, 0.9544 0.3371 0.0, 0.9573 0.3381 0.0, 0.9595 0.3395 0.0, 0.9602 0.3401 0.0, 0.962 0.3423 0.0, 0.9631 0.3448 0.0, 0.9637 0.3479 0.0, 0.9638 0.3498 0.0, 0.9634 0.3537 0.0, 0.9625 0.3562 0.0, 0.9612 0.3581 0.0, 0.9601 0.3592 0.0, 0.9546 0.3619 0.0, 0.9576 0.3609 0.0, 0.9576 0.3609 0.0
            ]
        }
        coordIndex [
            0,1,2,-1,2,1,3,-1,2,3,4,-1,4,5,2,-1,2,5,6,-1,2,6,7,-1,7,8,2,-1,2,8,9,-1,2,9,10,-1,10,11,2,-1,2,11,12,-1,2,12,13,-1,13,14,2,-1,2,14,15,-1,2,15,16,-1,16,15,17,-1,
        ]
    }
}
Shape{
    appearance Appearance {
        material  Material 	{
            diffuseColor 1.0 1.0 1.0
            specularColor 0.5019607843137255 0.5019607843137255 0.5019607843137255
            ambientIntensity 0.2
            transparency 0
            shininess 0.5
        }
    }
    geometry IndexedFaceSet {
        ccw TRUE
        solid FALSE
        coord DEF co Coordinate {
            point [
                0.9016 0.3387 0.0039, 0.9016 0.3387 0.0, 0.9012 0.3376 0.0, 0.9012 0.3376 0.0039, 0.901 0.3368 0.0, 0.901 0.3368 0.0039, 0.9009 0.3368 0.0039, 0.9009 0.3368 0.0, 0.9004 0.3388 0.0039, 0.9004 0.3388 0.0, 0.8942 0.3567 0.0039, 0.8962 0.3509 0.0, 0.8942 0.3567 0.0, 0.8895 0.3567 0.0039, 0.8895 0.3567 0.0, 0.8989 0.3329 0.0039, 0.8962 0.3397 0.0, 0.8989 0.3329 0.0, 0.897 0.3286 0.0, 0.897 0.3286 0.0039, 0.8987 0.3326 0.0, 0.8962 0.3271 0.0, 0.8962 0.3271 0.0, 0.8954 0.3262 0.0039, 0.8962 0.3271 0.0039, 0.8954 0.3262 0.0, 0.8947 0.3257 0.0, 0.8947 0.3257 0.0039, 0.8938 0.3253 0.0, 0.8938 0.3253 0.0039, 0.8928 0.3252 0.0, 0.8928 0.3252 0.0039, 0.8912 0.3254 0.0, 0.8912 0.3254 0.0039, 0.8904 0.3257 0.0, 0.8904 0.3257 0.0039, 0.8904 0.322 0.0039, 0.8904 0.322 0.0, 0.8922 0.3216 0.0, 0.8922 0.3216 0.0039, 0.8931 0.3216 0.0, 0.8931 0.3216 0.0039, 0.8948 0.3218 0.0, 0.8948 0.3218 0.0039, 0.8962 0.3224 0.0, 0.8964 0.3224 0.0039, 0.8964 0.3224 0.0, 0.8979 0.3235 0.0, 0.8979 0.3235 0.0039, 0.8982 0.3237 0.0, 0.8982 0.3237 0.0039, 0.8997 0.3256 0.0, 0.8997 0.3256 0.0039, 0.9016 0.3292 0.0, 0.9016 0.3292 0.0039, 0.9124 0.3567 0.0, 0.9124 0.3567 0.0039, 0.9029 0.3326 0.0, 0.9081 0.3567 0.0039, 0.9081 0.3567 0.0, 0.8777 0.3323 0.0, 0.8802 0.3326 0.0, 0.8777 0.3323 0.0039, 0.8814 0.3327 0.0039, 0.8814 0.3327 0.0, 0.8836 0.3335 0.0, 0.8836 0.3335 0.0039, 0.8847 0.3342 0.0, 0.8847 0.3342 0.0039, 0.8859 0.3352 0.0, 0.8859 0.3352 0.0039, 0.8866 0.3363 0.0, 0.8866 0.3363 0.0039, 0.8871 0.3376 0.0, 0.8871 0.3376 0.0039, 0.8873 0.3393 0.0, 0.8873 0.3393 0.0039, 0.8872 0.3409 0.0, 0.8872 0.3409 0.0039, 0.8867 0.3421 0.0, 0.8867 0.3421 0.0039, 0.8859 0.3433 0.0, 0.8859 0.3433 0.0039, 0.885 0.3442 0.0, 0.885 0.3442 0.0039, 0.8822 0.3457 0.0, 0.8822 0.3457 0.0039, 0.8806 0.3464 0.0, 0.8806 0.3464 0.0039, 0.878 0.3475 0.0, 0.878 0.3475 0.0039, 0.8765 0.3484 0.0, 0.8765 0.3484 0.0039, 0.8761 0.3488 0.0, 0.8761 0.3488 0.0039, 0.8758 0.3494 0.0, 0.8758 0.3494 0.0039, 0.8756 0.3501 0.0, 0.8756 0.3501 0.0039, 0.8756 0.3506 0.0, 0.8756 0.3506 0.0039, 0.8757 0.3513 0.0, 0.8757 0.3513 0.0039, 0.8759 0.3518 0.0, 0.8759 0.3518 0.0039, 0.8762 0.3524 0.0, 0.8762 0.3524 0.0039, 0.8769 0.3529 0.0, 0.8769 0.3529 0.0039, 0.8778 0.3534 0.0, 0.8778 0.3534 0.0039, 0.8789 0.3537 0.0, 0.8789 0.3537 0.0039, 0.8801 0.3538 0.0, 0.8801 0.3538 0.0039, 0.8829 0.3535 0.0, 0.8829 0.3535 0.0039, 0.8853 0.3526 0.0, 0.8853 0.3526 0.0039, 0.8862 0.3521 0.0, 0.8862 0.3521 0.0039, 0.8862 0.3562 0.0039, 0.8862 0.3562 0.0, 0.883 0.357 0.0, 0.883 0.357 0.0039, 0.8806 0.3572 0.0, 0.8806 0.3572 0.0039, 0.8771 0.3568 0.0, 0.8771 0.3568 0.0039, 0.8749 0.3559 0.0, 0.8749 0.3559 0.0039, 0.874 0.3553 0.0, 0.874 0.3553 0.0039, 0.8732 0.3546 0.0, 0.8727 0.3542 0.0039, 0.8727 0.3542 0.0, 0.8719 0.3531 0.0, 0.8719 0.3531 0.0039, 0.8714 0.3517 0.0, 0.8714 0.3517 0.0039, 0.8713 0.3502 0.0, 0.8713 0.3502 0.0039, 0.8715 0.3486 0.0, 0.8715 0.3486 0.0039, 0.8719 0.3473 0.0, 0.8719 0.3473 0.0039, 0.8725 0.3465 0.0, 0.8725 0.3465 0.0039, 0.8776 0.3433 0.0, 0.8776 0.3433 0.0039, 0.8751 0.3445 0.0039, 0.8731 0.3458 0.0, 0.8731 0.3458 0.0039, 0.8732 0.3457 0.0, 0.8751 0.3445 0.0, 0.8804 0.3422 0.0, 0.8804 0.3422 0.0039, 0.882 0.3412 0.0, 0.882 0.3412 0.0039, 0.8825 0.3406 0.0, 0.8825 0.3406 0.0039, 0.8828 0.3401 0.0, 0.8828 0.3401 0.0039, 0.883 0.3394 0.0, 0.883 0.3394 0.0039, 0.8831 0.3389 0.0, 0.8831 0.3389 0.0039, 0.883 0.3381 0.0, 0.883 0.3381 0.0039, 0.8828 0.3375 0.0, 0.8828 0.3375 0.0039, 0.8824 0.337 0.0, 0.8824 0.337 0.0039, 0.8819 0.3366 0.0, 0.8819 0.3366 0.0039, 0.8815 0.3363 0.0, 0.8815 0.3363 0.0039, 0.8805 0.3359 0.0, 0.8805 0.3359 0.0039, 0.8783 0.3357 0.0, 0.8783 0.3357 0.0039, 0.8781 0.3357 0.0, 0.8781 0.3357 0.0039, 0.8713 0.338 0.0, 0.8713 0.338 0.0039, 0.8729 0.337 0.0039, 0.8755 0.336 0.0, 0.8755 0.336 0.0039, 0.8732 0.3369 0.0, 0.8729 0.337 0.0, 0.8713 0.3337 0.0039, 0.8713 0.3337 0.0, 0.8732 0.333 0.0, 0.8742 0.3326 0.0039, 0.875 0.3326 0.0, 0.8742 0.3326 0.0, 0.8614 0.3328 0.0039, 0.8656 0.3328 0.0039, 0.8614 0.3365 0.0039, 0.8656 0.3482 0.0039, 0.8614 0.348 0.0039, 0.8524 0.343 0.0039, 0.8534 0.3435 0.0039, 0.8613 0.3365 0.0039, 0.8591 0.3371 0.0039, 0.8606 0.3355 0.0039, 0.8579 0.3363 0.0039, 0.8558 0.344 0.0039, 0.8614 0.3448 0.0039, 0.8614 0.3425 0.0039, 0.8614 0.3422 0.0039, 0.8611 0.3404 0.0039, 0.8605 0.3389 0.0039, 0.8596 0.3377 0.0039, 0.8613 0.3498 0.0039, 0.8653 0.3514 0.0039, 0.8608 0.3513 0.0039, 0.8646 0.3533 0.0039, 0.8603 0.3522 0.0039, 0.8637 0.3546 0.0039, 0.8597 0.3529 0.0039, 0.8626 0.3557 0.0039, 0.859 0.3533 0.0039, 0.8612 0.3565 0.0039, 0.858 0.3537 0.0039, 0.8594 0.357 0.0039, 0.8566 0.3538 0.0039, 0.857 0.3572 0.0039, 0.8543 0.3536 0.0039, 0.8531 0.3568 0.0039, 0.8517 0.3528 0.0039, 0.8499 0.3557 0.0039, 0.8488 0.3509 0.0039, 0.8488 0.355 0.0039, 0.8515 0.3371 0.0039, 0.8485 0.3342 0.0039, 0.8519 0.3368 0.0039, 0.8499 0.3332 0.0039, 0.8527 0.3362 0.0039, 0.8515 0.3326 0.0039, 0.8537 0.3359 0.0039, 0.854 0.3323 0.0039, 0.8551 0.3357 0.0039, 0.8562 0.3325 0.0039, 0.8566 0.3359 0.0039, 0.8578 0.3331 0.0039, 0.8593 0.3341 0.0039, 0.8507 0.3402 0.0039, 0.8465 0.3397 0.0039, 0.8507 0.3396 0.0039, 0.8464 0.3392 0.0039, 0.8508 0.3386 0.0039, 0.8466 0.3373 0.0039, 0.8511 0.3378 0.0039, 0.8472 0.3359 0.0039, 0.848 0.3346 0.0039, 0.8543 0.347 0.0039, 0.8512 0.3462 0.0039, 0.8518 0.3426 0.0039, 0.8494 0.3453 0.0039, 0.8513 0.342 0.0039, 0.8481 0.3442 0.0039, 0.8509 0.3412 0.0039, 0.8473 0.343 0.0039, 0.8467 0.3415 0.0039, 0.8566 0.3538 0.0, 0.858 0.3537 0.0, 0.859 0.3533 0.0, 0.8597 0.3529 0.0, 0.8603 0.3522 0.0, 0.8608 0.3513 0.0, 0.8613 0.3498 0.0, 0.8614 0.348 0.0, 0.8543 0.347 0.0, 0.8512 0.3462 0.0, 0.8494 0.3453 0.0, 0.8481 0.3442 0.0, 0.8473 0.343 0.0, 0.8467 0.3415 0.0, 0.8465 0.3397 0.0, 0.8464 0.3392 0.0, 0.8466 0.3373 0.0, 0.8472 0.3359 0.0, 0.848 0.3346 0.0, 0.8485 0.3342 0.0, 0.854 0.3323 0.0, 0.8516 0.3326 0.0, 0.8515 0.3326 0.0, 0.8499 0.3332 0.0, 0.8562 0.3325 0.0, 0.8563 0.3326 0.0, 0.8578 0.3331 0.0, 0.8593 0.3341 0.0, 0.8606 0.3355 0.0, 0.8613 0.3365 0.0, 0.8614 0.3365 0.0, 0.8614 0.3328 0.0, 0.8656 0.3328 0.0, 0.8656 0.3482 0.0, 0.8653 0.3514 0.0, 0.8646 0.3533 0.0, 0.8637 0.3546 0.0, 0.8626 0.3557 0.0, 0.8612 0.3565 0.0, 0.8594 0.357 0.0, 0.857 0.3572 0.0, 0.8531 0.3568 0.0, 0.8499 0.3557 0.0, 0.8488 0.355 0.0, 0.8488 0.3509 0.0, 0.8517 0.3528 0.0, 0.8543 0.3536 0.0, 0.8596 0.3377 0.0, 0.8591 0.3371 0.0, 0.8579 0.3363 0.0, 0.8566 0.3359 0.0, 0.8551 0.3357 0.0, 0.8614 0.3425 0.0, 0.8614 0.3422 0.0, 0.8611 0.3404 0.0, 0.8605 0.3389 0.0, 0.8614 0.3448 0.0, 0.8558 0.344 0.0, 0.8518 0.3426 0.0, 0.8524 0.343 0.0, 0.8534 0.3435 0.0, 0.8507 0.3396 0.0, 0.8507 0.3402 0.0, 0.8509 0.3412 0.0, 0.8513 0.342 0.0, 0.8519 0.3368 0.0, 0.8515 0.3371 0.0, 0.8511 0.3378 0.0, 0.8508 0.3386 0.0, 0.8537 0.3359 0.0, 0.8527 0.3362 0.0, 0.8527 0.3362 0.0
            ]
        }
        coordIndex [
            0,1,2,-1,0,2,3,-1,3,2,4,-1,3,4,5,-1,6,5,7,-1,7,5,4,-1,8,6,9,-1,9,6,7,-1,8,9,10,-1,10,9,11,-1,10,11,12,-1,13,10,14,-1,14,10,12,-1,13,14,15,-1,15,14,16,-1,15,16,17,-1,18,19,20,-1,20,19,15,-1,20,15,17,-1,19,18,21,-1,22,23,21,-1,21,23,24,-1,21,24,19,-1,22,25,23,-1,23,25,26,-1,23,26,27,-1,27,26,28,-1,27,28,29,-1,29,28,30,-1,29,30,31,-1,31,30,32,-1,31,32,33,-1,33,32,34,-1,33,34,35,-1,36,35,37,-1,37,35,34,-1,36,37,38,-1,36,38,39,-1,39,38,40,-1,39,40,41,-1,41,40,42,-1,41,42,43,-1,43,42,44,-1,43,44,45,-1,44,46,45,-1,45,46,47,-1,45,47,48,-1,48,47,49,-1,48,49,50,-1,50,49,51,-1,50,51,52,-1,52,51,53,-1,52,53,54,-1,55,56,57,-1,57,56,54,-1,57,54,53,-1,58,56,59,-1,59,56,55,-1,0,58,1,-1,1,58,59,-1,3,5,54,-1,56,58,54,-1,54,58,0,-1,54,0,3,-1,10,13,8,-1,8,13,15,-1,8,15,6,-1,52,24,50,-1,50,24,23,-1,35,36,33,-1,33,36,39,-1,33,39,31,-1,31,39,41,-1,31,41,29,-1,29,41,43,-1,29,43,27,-1,27,43,45,-1,27,45,23,-1,23,45,48,-1,23,48,50,-1,5,6,54,-1,54,6,15,-1,54,15,52,-1,52,15,19,-1,52,19,24,-1,60,61,62,-1,62,61,63,-1,61,64,63,-1,63,64,65,-1,63,65,66,-1,66,65,67,-1,66,67,68,-1,68,67,69,-1,68,69,70,-1,70,69,71,-1,70,71,72,-1,72,71,73,-1,72,73,74,-1,74,73,75,-1,74,75,76,-1,76,75,77,-1,76,77,78,-1,78,77,79,-1,78,79,80,-1,80,79,81,-1,80,81,82,-1,82,81,83,-1,82,83,84,-1,84,83,85,-1,84,85,86,-1,86,85,87,-1,86,87,88,-1,88,87,89,-1,88,89,90,-1,90,89,91,-1,90,91,92,-1,92,91,93,-1,92,93,94,-1,94,93,95,-1,94,95,96,-1,96,95,97,-1,96,97,98,-1,98,97,99,-1,98,99,100,-1,100,99,101,-1,100,101,102,-1,102,101,103,-1,102,103,104,-1,104,103,105,-1,104,105,106,-1,106,105,107,-1,106,107,108,-1,108,107,109,-1,108,109,110,-1,110,109,111,-1,110,111,112,-1,112,111,113,-1,112,113,114,-1,114,113,115,-1,114,115,116,-1,116,115,117,-1,116,117,118,-1,118,117,119,-1,118,119,120,-1,121,120,122,-1,122,120,119,-1,121,122,123,-1,121,123,124,-1,124,123,125,-1,124,125,126,-1,126,125,127,-1,126,127,128,-1,128,127,129,-1,128,129,130,-1,130,129,131,-1,130,131,132,-1,131,133,132,-1,132,133,134,-1,133,135,134,-1,134,135,136,-1,134,136,137,-1,137,136,138,-1,137,138,139,-1,139,138,140,-1,139,140,141,-1,141,140,142,-1,141,142,143,-1,143,142,144,-1,143,144,145,-1,145,144,146,-1,145,146,147,-1,148,149,150,-1,147,146,151,-1,147,151,152,-1,152,151,153,-1,152,153,150,-1,150,153,154,-1,150,154,148,-1,149,148,155,-1,149,155,156,-1,156,155,157,-1,156,157,158,-1,158,157,159,-1,158,159,160,-1,160,159,161,-1,160,161,162,-1,162,161,163,-1,162,163,164,-1,164,163,165,-1,164,165,166,-1,166,165,167,-1,166,167,168,-1,168,167,169,-1,168,169,170,-1,170,169,171,-1,170,171,172,-1,172,171,173,-1,172,173,174,-1,174,173,175,-1,174,175,176,-1,176,175,177,-1,176,177,178,-1,178,177,179,-1,178,179,180,-1,180,179,181,-1,180,181,182,-1,183,184,185,-1,182,181,186,-1,182,186,187,-1,187,186,188,-1,187,188,185,-1,185,188,189,-1,185,189,183,-1,190,184,191,-1,191,184,183,-1,191,192,190,-1,190,192,193,-1,60,62,194,-1,194,62,193,-1,194,193,195,-1,195,193,192,-1,106,108,130,-1,130,108,128,-1,156,88,149,-1,149,88,90,-1,66,68,172,-1,172,68,70,-1,172,70,170,-1,170,70,72,-1,170,72,168,-1,168,72,74,-1,168,74,166,-1,166,74,76,-1,166,76,164,-1,164,76,78,-1,164,78,162,-1,162,78,80,-1,162,80,160,-1,160,80,82,-1,160,82,158,-1,158,82,84,-1,158,84,156,-1,156,84,86,-1,156,86,88,-1,62,182,193,-1,193,182,187,-1,193,187,190,-1,190,187,185,-1,190,185,184,-1,108,110,128,-1,128,110,112,-1,128,112,126,-1,126,112,114,-1,126,114,124,-1,124,114,116,-1,124,116,121,-1,121,116,118,-1,121,118,120,-1,172,174,66,-1,66,174,176,-1,66,176,63,-1,63,176,178,-1,63,178,62,-1,62,178,180,-1,62,180,182,-1,130,132,106,-1,106,132,134,-1,106,134,104,-1,104,134,137,-1,104,137,102,-1,102,137,139,-1,102,139,100,-1,100,139,141,-1,100,141,98,-1,98,141,143,-1,98,143,96,-1,96,143,145,-1,96,145,94,-1,94,145,147,-1,94,147,92,-1,92,147,152,-1,92,152,90,-1,90,152,150,-1,90,150,149,-1,196,197,198,-1,198,197,199,-1,200,201,202,-1,203,204,205,-1,205,204,206,-1,207,208,199,-1,199,208,209,-1,209,210,199,-1,199,210,211,-1,199,211,198,-1,198,211,212,-1,198,212,203,-1,203,212,213,-1,203,213,204,-1,202,207,200,-1,200,207,199,-1,200,199,214,-1,214,199,215,-1,214,215,216,-1,216,215,217,-1,216,217,218,-1,218,217,219,-1,218,219,220,-1,220,219,221,-1,220,221,222,-1,222,221,223,-1,222,223,224,-1,224,223,225,-1,224,225,226,-1,226,225,227,-1,226,227,228,-1,228,227,229,-1,228,229,230,-1,230,229,231,-1,230,231,232,-1,232,231,233,-1,234,235,236,-1,236,235,237,-1,236,237,238,-1,238,237,239,-1,238,239,240,-1,240,239,241,-1,240,241,242,-1,242,241,243,-1,242,243,244,-1,244,243,245,-1,244,245,206,-1,206,245,246,-1,206,246,205,-1,247,248,249,-1,249,248,250,-1,249,250,251,-1,251,250,252,-1,251,252,253,-1,253,252,254,-1,253,254,234,-1,234,254,255,-1,234,255,235,-1,200,256,201,-1,201,256,257,-1,201,257,258,-1,258,257,259,-1,258,259,260,-1,260,259,261,-1,260,261,262,-1,262,261,263,-1,262,263,247,-1,247,263,264,-1,247,264,248,-1,226,265,266,-1,226,266,224,-1,224,266,267,-1,224,267,222,-1,222,267,268,-1,222,268,220,-1,220,268,269,-1,220,269,218,-1,218,269,270,-1,218,270,216,-1,216,270,271,-1,216,271,214,-1,214,271,272,-1,214,272,200,-1,256,200,273,-1,273,200,272,-1,256,273,274,-1,256,274,257,-1,257,274,275,-1,257,275,259,-1,259,275,276,-1,259,276,261,-1,261,276,277,-1,261,277,263,-1,263,277,278,-1,263,278,264,-1,264,278,279,-1,264,279,248,-1,248,279,280,-1,248,280,250,-1,250,280,281,-1,250,281,252,-1,252,281,282,-1,252,282,254,-1,254,282,283,-1,254,283,255,-1,255,283,284,-1,255,284,235,-1,285,241,286,-1,286,241,239,-1,286,239,287,-1,287,239,237,-1,287,237,288,-1,288,237,235,-1,288,235,284,-1,241,285,289,-1,241,289,243,-1,243,289,290,-1,243,290,245,-1,290,291,245,-1,245,291,292,-1,245,292,246,-1,246,292,293,-1,246,293,205,-1,205,293,294,-1,205,294,203,-1,198,203,295,-1,295,203,294,-1,196,198,296,-1,296,198,295,-1,197,196,297,-1,297,196,296,-1,199,197,298,-1,298,197,297,-1,199,298,299,-1,199,299,215,-1,215,299,300,-1,215,300,217,-1,217,300,301,-1,217,301,219,-1,219,301,302,-1,219,302,221,-1,221,302,303,-1,221,303,223,-1,223,303,304,-1,223,304,225,-1,225,304,305,-1,225,305,227,-1,227,305,306,-1,227,306,229,-1,229,306,307,-1,229,307,231,-1,231,307,308,-1,231,308,233,-1,232,233,309,-1,309,233,308,-1,232,309,310,-1,232,310,230,-1,230,310,311,-1,230,311,228,-1,228,311,265,-1,228,265,226,-1,213,312,313,-1,213,313,204,-1,204,313,314,-1,204,314,206,-1,206,314,315,-1,206,315,244,-1,244,315,316,-1,244,316,242,-1,209,317,318,-1,209,318,210,-1,210,318,319,-1,210,319,211,-1,211,319,320,-1,211,320,212,-1,212,320,312,-1,212,312,213,-1,209,208,317,-1,317,208,321,-1,208,207,321,-1,321,207,322,-1,258,323,324,-1,258,324,201,-1,201,324,325,-1,201,325,202,-1,202,325,322,-1,202,322,207,-1,249,326,327,-1,249,327,247,-1,247,327,328,-1,247,328,262,-1,262,328,329,-1,262,329,260,-1,260,329,323,-1,260,323,258,-1,236,330,331,-1,236,331,234,-1,234,331,332,-1,234,332,253,-1,253,332,333,-1,253,333,251,-1,251,333,326,-1,251,326,249,-1,242,316,334,-1,242,334,240,-1,240,334,335,-1,240,335,238,-1,238,335,330,-1,238,330,236,-1,
        ]
    }
}
Shape{
    appearance Appearance {
        material  Material 	{
            diffuseColor 0.34901960784313724 0.34901960784313724 0.34901960784313724
            specularColor 0.34901960784313724 0.34901960784313724 0.34901960784313724
            ambientIntensity 0.2
            transparency 0
            shininess 0.5
        }
    }
    geometry IndexedFaceSet {
        ccw TRUE
        solid FALSE
        coord DEF co Coordinate {
            point [
                0.8614 0.3448 0.0, 0.8558 0.344 0.0, 0.8614 0.3425 0.0, 0.8534 0.3435 0.0, 0.8524 0.343 0.0, 0.8518 0.3426 0.0, 0.8614 0.3422 0.0, 0.8611 0.3404 0.0, 0.8513 0.342 0.0, 0.8605 0.3389 0.0, 0.8515 0.3371 0.0, 0.8519 0.3368 0.0, 0.8591 0.3371 0.0, 0.8511 0.3378 0.0, 0.8579 0.3363 0.0, 0.8566 0.3359 0.0, 0.8551 0.3357 0.0, 0.8509 0.3412 0.0, 0.8507 0.3402 0.0, 0.8596 0.3377 0.0, 0.8507 0.3396 0.0, 0.8508 0.3386 0.0, 0.8527 0.3362 0.0, 0.8537 0.3359 0.0, 0.8537 0.3359 0.0
            ]
        }
        coordIndex [
            0,1,2,-1,2,1,3,-1,3,4,2,-1,2,4,5,-1,2,5,6,-1,6,5,7,-1,7,5,8,-1,7,8,9,-1,10,11,12,-1,10,12,13,-1,14,12,15,-1,15,12,16,-1,8,17,9,-1,9,17,18,-1,9,18,19,-1,19,18,20,-1,19,20,12,-1,12,20,21,-1,12,21,13,-1,11,22,12,-1,12,22,23,-1,12,23,16,-1,
        ]
    }
}
Shape{
    appearance Appearance {
        material  Material 	{
            diffuseColor 1.0 1.0 1.0
            specularColor 0.5019607843137255 0.5019607843137255 0.5019607843137255
            ambientIntensity 0.2
            transparency 0
            shininess 0.5
        }
    }
    geometry IndexedFaceSet {
        ccw TRUE
        solid FALSE
        coord DEF co Coordinate {
            point [
                0.6772 0.3281 0.0039, 0.6807 0.3237 0.0039, 0.675 0.3491 0.0039, 0.721 0.3432 0.0039, 0.7542 0.3607 0.0039, 0.7063 0.3417 0.0039, 0.7057 0.3439 0.0039, 0.6708 0.3903 0.0039, 0.6761 0.3931 0.0039, 0.6749 0.4077 0.0039, 0.7151 0.3567 0.0039, 0.6971 0.3498 0.0039, 0.699 0.3496 0.0039, 0.6897 0.4084 0.0039, 0.6971 0.3911 0.0039, 0.7007 0.3986 0.0039, 0.7012 0.3488 0.0039, 0.7032 0.3475 0.0039, 0.7047 0.3458 0.0039, 0.6698 0.3523 0.0039, 0.6718 0.3341 0.0039, 0.6748 0.3332 0.0039, 0.6843 0.4089 0.0039, 0.7469 0.3733 0.0039, 0.721 0.3408 0.0039, 0.7063 0.3395 0.0039, 0.7209 0.3383 0.0039, 0.6947 0.3495 0.0039, 0.6916 0.364 0.0039, 0.6927 0.3487 0.0039, 0.6864 0.362 0.0039, 0.6908 0.3474 0.0039, 0.6815 0.3587 0.0039, 0.6899 0.3464 0.0039, 0.6776 0.3542 0.0039, 0.6887 0.3444 0.0039, 0.688 0.3422 0.0039, 0.6878 0.3399 0.0039, 0.7059 0.3632 0.0039, 0.7002 0.3646 0.0039, 0.6973 0.3647 0.0039, 0.6946 0.4141 0.0039, 0.706 0.4049 0.0039, 0.7002 0.4188 0.0039, 0.7124 0.4096 0.0039, 0.7059 0.4224 0.0039, 0.682 0.3945 0.0039, 0.6845 0.3946 0.0039, 0.687 0.4087 0.0039, 0.6901 0.3939 0.0039, 0.6954 0.392 0.0039, 0.7668 0.3327 0.0039, 0.7654 0.3472 0.0039, 0.7528 0.3327 0.0039, 0.7547 0.3472 0.0039, 0.7515 0.3329 0.0039, 0.7109 0.3605 0.0039, 0.7621 0.3842 0.0039, 0.764 0.3842 0.0039, 0.7737 0.397 0.0039, 0.7678 0.3838 0.0039, 0.7748 0.3966 0.0039, 0.772 0.3823 0.0039, 0.7819 0.3931 0.0039, 0.7758 0.3799 0.0039, 0.7883 0.3877 0.0039, 0.7789 0.3766 0.0039, 0.7932 0.3809 0.0039, 0.7812 0.3725 0.0039, 0.7961 0.3737 0.0039, 0.7823 0.3679 0.0039, 0.7972 0.3659 0.0039, 0.7825 0.3657 0.0039, 0.7961 0.3575 0.0039, 0.7821 0.3618 0.0039, 0.7931 0.35 0.0039, 0.7806 0.3575 0.0039, 0.7884 0.3434 0.0039, 0.7781 0.3537 0.0039, 0.7819 0.3379 0.0039, 0.7758 0.3514 0.0039, 0.7747 0.3344 0.0039, 0.7719 0.3489 0.0039, 0.7675 0.3475 0.0039, 0.7609 0.4158 0.0039, 0.7516 0.4049 0.0039, 0.7687 0.4066 0.0039, 0.7569 0.3985 0.0039, 0.7606 0.3909 0.0039, 0.6615 0.3767 0.0039, 0.6459 0.3727 0.0039, 0.6608 0.3709 0.0039, 0.6458 0.3704 0.0039, 0.6611 0.3672 0.0039, 0.647 0.3611 0.0039, 0.6628 0.3614 0.0039, 0.6504 0.3523 0.0039, 0.6656 0.3567 0.0039, 0.6558 0.3446 0.0039, 0.6632 0.3383 0.0039, 0.6883 0.3376 0.0039, 0.6892 0.3357 0.0039, 0.7535 0.3474 0.0039, 0.7478 0.3352 0.0039, 0.7484 0.3347 0.0039, 0.7169 0.4266 0.0039, 0.7201 0.4127 0.0039, 0.7286 0.4281 0.0039, 0.7289 0.4139 0.0039, 0.7384 0.4271 0.0039, 0.7369 0.4129 0.0039, 0.7503 0.4229 0.0039, 0.7444 0.41 0.0039, 0.751 0.4054 0.0039, 0.6661 0.4043 0.0039, 0.6586 0.399 0.0039, 0.6668 0.3867 0.0039, 0.657 0.3975 0.0039, 0.6635 0.382 0.0039, 0.6513 0.3902 0.0039, 0.6475 0.3816 0.0039, 0.7195 0.3324 0.0039, 0.7057 0.3372 0.0039, 0.7167 0.3271 0.0039, 0.7046 0.3352 0.0039, 0.7131 0.3231 0.0039, 0.7033 0.3337 0.0039, 0.7084 0.3198 0.0039, 0.7015 0.3324 0.0039, 0.7031 0.3178 0.0039, 0.6994 0.3316 0.0039, 0.6973 0.3171 0.0039, 0.6971 0.3313 0.0039, 0.6964 0.3171 0.0039, 0.6967 0.3313 0.0039, 0.6908 0.318 0.0039, 0.6945 0.3317 0.0039, 0.6853 0.3202 0.0039, 0.6924 0.3326 0.0039, 0.6906 0.334 0.0039, 0.7542 0.3473 0.0039, 0.7499 0.3336 0.0039, 0.7459 0.3401 0.0039, 0.7462 0.3383 0.0039, 0.7468 0.3367 0.0039, 0.7514 0.3472 0.0039, 0.7498 0.3466 0.0039, 0.746 0.341 0.0039, 0.7484 0.3455 0.0039, 0.7474 0.3444 0.0039, 0.7465 0.3428 0.0039, 0.7533 0.3474 0.0039, 0.7932 0.3809 0.0, 0.7961 0.3737 0.0, 0.7972 0.3659 0.0, 0.7899 0.3855 0.0, 0.7883 0.3877 0.0, 0.7819 0.3931 0.0, 0.7748 0.3966 0.0, 0.7737 0.397 0.0, 0.7687 0.4066 0.0, 0.7609 0.4158 0.0, 0.7554 0.4194 0.0, 0.7503 0.4229 0.0, 0.7384 0.4271 0.0, 0.7286 0.4281 0.0, 0.7002 0.4188 0.0, 0.7011 0.4194 0.0, 0.7059 0.4224 0.0, 0.7169 0.4266 0.0, 0.6946 0.4141 0.0, 0.6897 0.4084 0.0, 0.687 0.4087 0.0, 0.6843 0.4089 0.0, 0.6749 0.4077 0.0, 0.6661 0.4043 0.0, 0.6586 0.399 0.0, 0.657 0.3975 0.0, 0.6513 0.3902 0.0, 0.6492 0.3855 0.0, 0.6475 0.3816 0.0, 0.6459 0.3727 0.0, 0.6458 0.3704 0.0, 0.6469 0.3617 0.0, 0.647 0.3611 0.0, 0.6504 0.3523 0.0, 0.6558 0.3446 0.0, 0.6632 0.3383 0.0, 0.6718 0.3341 0.0, 0.6748 0.3332 0.0, 0.6751 0.3326 0.0, 0.6772 0.3281 0.0, 0.6807 0.3237 0.0, 0.6853 0.3202 0.0, 0.6875 0.3193 0.0, 0.6908 0.318 0.0, 0.6964 0.3171 0.0, 0.6973 0.3171 0.0, 0.721 0.3408 0.0, 0.7031 0.3178 0.0, 0.7071 0.3193 0.0, 0.7084 0.3198 0.0, 0.7131 0.3231 0.0, 0.7167 0.3271 0.0, 0.7195 0.3324 0.0, 0.7195 0.3326 0.0, 0.7209 0.3383 0.0, 0.721 0.3432 0.0, 0.7542 0.3607 0.0, 0.7469 0.3733 0.0, 0.7537 0.3617 0.0, 0.7247 0.3617 0.0, 0.7151 0.3567 0.0, 0.7109 0.3605 0.0, 0.7086 0.3617 0.0, 0.7059 0.3632 0.0, 0.7002 0.3646 0.0, 0.6973 0.3647 0.0, 0.6916 0.364 0.0, 0.6864 0.362 0.0, 0.6859 0.3617 0.0, 0.6815 0.3587 0.0, 0.6776 0.3542 0.0, 0.675 0.3491 0.0, 0.6608 0.3709 0.0, 0.6698 0.3523 0.0, 0.6656 0.3567 0.0, 0.6628 0.3614 0.0, 0.6627 0.3617 0.0, 0.6611 0.3672 0.0, 0.6615 0.3767 0.0, 0.6635 0.382 0.0, 0.666 0.3855 0.0, 0.6668 0.3867 0.0, 0.6708 0.3903 0.0, 0.6761 0.3931 0.0, 0.682 0.3945 0.0, 0.6845 0.3946 0.0, 0.6901 0.3939 0.0, 0.6954 0.392 0.0, 0.6971 0.3911 0.0, 0.7007 0.3986 0.0, 0.706 0.4049 0.0, 0.7124 0.4096 0.0, 0.7201 0.4127 0.0, 0.7289 0.4139 0.0, 0.7621 0.3842 0.0, 0.7618 0.3855 0.0, 0.7606 0.3909 0.0, 0.7569 0.3985 0.0, 0.7516 0.4049 0.0, 0.751 0.4054 0.0, 0.7444 0.41 0.0, 0.7369 0.4129 0.0, 0.764 0.3842 0.0, 0.7678 0.3838 0.0, 0.772 0.3823 0.0, 0.7758 0.3799 0.0, 0.7789 0.3766 0.0, 0.7812 0.3725 0.0, 0.7823 0.3679 0.0, 0.7825 0.3657 0.0, 0.7821 0.3618 0.0, 0.782 0.3617 0.0, 0.7806 0.3575 0.0, 0.7781 0.3537 0.0, 0.7758 0.3514 0.0, 0.7719 0.3489 0.0, 0.7675 0.3475 0.0, 0.7654 0.3472 0.0, 0.7547 0.3472 0.0, 0.7542 0.3473 0.0, 0.7535 0.3474 0.0, 0.7533 0.3474 0.0, 0.7514 0.3472 0.0, 0.7498 0.3466 0.0, 0.7484 0.3455 0.0, 0.7474 0.3444 0.0, 0.7465 0.3428 0.0, 0.746 0.341 0.0, 0.7459 0.3401 0.0, 0.7462 0.3383 0.0, 0.7468 0.3367 0.0, 0.7478 0.3352 0.0, 0.7484 0.3347 0.0, 0.7499 0.3336 0.0, 0.7515 0.3329 0.0, 0.7528 0.3327 0.0, 0.7668 0.3327 0.0, 0.7747 0.3344 0.0, 0.7819 0.3379 0.0, 0.7884 0.3434 0.0, 0.7931 0.35 0.0, 0.7961 0.3575 0.0, 0.7966 0.3617 0.0, 0.6971 0.3498 0.0, 0.699 0.3496 0.0, 0.7012 0.3488 0.0, 0.7032 0.3475 0.0, 0.7047 0.3458 0.0, 0.7057 0.3439 0.0, 0.7063 0.3417 0.0, 0.7063 0.3395 0.0, 0.7057 0.3372 0.0, 0.7046 0.3352 0.0, 0.7033 0.3337 0.0, 0.7015 0.3324 0.0, 0.6994 0.3316 0.0, 0.6971 0.3313 0.0, 0.6967 0.3313 0.0, 0.6945 0.3317 0.0, 0.6924 0.3326 0.0, 0.6906 0.334 0.0, 0.6892 0.3357 0.0, 0.6883 0.3376 0.0, 0.6878 0.3399 0.0, 0.688 0.3422 0.0, 0.6887 0.3444 0.0, 0.6899 0.3464 0.0, 0.6908 0.3474 0.0, 0.6927 0.3487 0.0, 0.6947 0.3495 0.0, 0.6947 0.3495 0.0
            ]
        }
        coordIndex [
            0,1,2,-1,3,4,5,-1,5,4,6,-1,7,8,9,-1,10,11,12,-1,13,14,15,-1,12,16,10,-1,10,16,17,-1,10,17,18,-1,19,20,2,-1,2,20,21,-1,2,21,0,-1,9,8,22,-1,6,4,18,-1,18,4,23,-1,18,23,10,-1,3,5,24,-1,24,5,25,-1,24,25,26,-1,27,28,29,-1,29,28,30,-1,29,30,31,-1,31,30,32,-1,31,32,33,-1,33,32,34,-1,33,34,35,-1,35,34,2,-1,35,2,36,-1,36,2,37,-1,38,39,27,-1,27,39,40,-1,27,40,28,-1,13,15,41,-1,41,15,42,-1,41,42,43,-1,43,42,44,-1,43,44,45,-1,8,46,22,-1,22,46,47,-1,22,47,48,-1,48,47,49,-1,48,49,13,-1,13,49,50,-1,13,50,14,-1,51,52,53,-1,53,52,54,-1,53,54,55,-1,11,10,27,-1,27,10,56,-1,27,56,38,-1,57,58,59,-1,59,58,60,-1,59,60,61,-1,61,60,62,-1,61,62,63,-1,63,62,64,-1,63,64,65,-1,65,64,66,-1,65,66,67,-1,67,66,68,-1,67,68,69,-1,69,68,70,-1,69,70,71,-1,71,70,72,-1,71,72,73,-1,73,72,74,-1,73,74,75,-1,75,74,76,-1,75,76,77,-1,77,76,78,-1,77,78,79,-1,79,78,80,-1,79,80,81,-1,81,80,82,-1,81,82,51,-1,51,82,83,-1,51,83,52,-1,84,85,86,-1,86,85,87,-1,86,87,59,-1,59,87,88,-1,59,88,57,-1,89,90,91,-1,91,90,92,-1,91,92,93,-1,93,92,94,-1,93,94,95,-1,95,94,96,-1,95,96,97,-1,97,96,98,-1,97,98,19,-1,19,98,99,-1,19,99,20,-1,37,2,100,-1,100,2,1,-1,100,1,101,-1,102,103,104,-1,45,44,105,-1,105,44,106,-1,105,106,107,-1,107,106,108,-1,107,108,109,-1,109,108,110,-1,109,110,111,-1,111,110,112,-1,111,112,84,-1,84,112,113,-1,84,113,85,-1,9,114,7,-1,7,114,115,-1,7,115,116,-1,116,115,117,-1,116,117,118,-1,118,117,119,-1,118,119,89,-1,89,119,120,-1,89,120,90,-1,26,25,121,-1,121,25,122,-1,121,122,123,-1,123,122,124,-1,123,124,125,-1,125,124,126,-1,125,126,127,-1,127,126,128,-1,127,128,129,-1,129,128,130,-1,129,130,131,-1,131,130,132,-1,131,132,133,-1,133,132,134,-1,133,134,135,-1,135,134,136,-1,135,136,137,-1,137,136,138,-1,137,138,1,-1,1,138,139,-1,1,139,101,-1,54,140,55,-1,55,140,102,-1,55,102,141,-1,141,102,104,-1,142,143,102,-1,102,143,144,-1,102,144,103,-1,145,146,147,-1,146,148,147,-1,147,148,149,-1,147,149,150,-1,142,102,147,-1,147,102,151,-1,147,151,145,-1,152,69,153,-1,153,69,71,-1,153,71,154,-1,155,65,152,-1,152,65,67,-1,152,67,69,-1,155,156,65,-1,65,156,157,-1,65,157,63,-1,63,157,158,-1,63,158,61,-1,61,158,159,-1,61,159,59,-1,59,159,160,-1,59,160,86,-1,86,160,161,-1,86,161,84,-1,84,161,111,-1,111,161,162,-1,162,163,111,-1,111,163,164,-1,111,164,109,-1,109,164,165,-1,109,165,107,-1,166,43,167,-1,167,43,45,-1,167,45,168,-1,168,45,105,-1,168,105,169,-1,169,105,107,-1,169,107,165,-1,43,166,170,-1,43,170,41,-1,41,170,171,-1,41,171,13,-1,13,171,172,-1,13,172,48,-1,48,172,173,-1,48,173,22,-1,22,173,174,-1,22,174,9,-1,9,174,175,-1,9,175,114,-1,114,175,176,-1,114,176,115,-1,115,176,177,-1,115,177,117,-1,117,177,178,-1,179,120,178,-1,178,120,119,-1,178,119,117,-1,179,180,120,-1,120,180,181,-1,120,181,90,-1,90,181,182,-1,90,182,92,-1,182,183,92,-1,92,183,94,-1,183,184,94,-1,94,184,185,-1,94,185,96,-1,96,185,186,-1,96,186,98,-1,98,186,187,-1,98,187,99,-1,99,187,188,-1,99,188,20,-1,20,188,189,-1,20,189,21,-1,21,189,190,-1,21,190,0,-1,190,191,0,-1,0,191,192,-1,0,192,1,-1,1,192,193,-1,1,193,137,-1,137,193,194,-1,137,194,135,-1,194,195,135,-1,135,195,196,-1,135,196,133,-1,133,196,197,-1,133,197,131,-1,198,24,26,-1,131,197,199,-1,131,199,129,-1,129,199,200,-1,129,200,127,-1,200,201,127,-1,127,201,202,-1,127,202,125,-1,125,202,203,-1,125,203,123,-1,123,203,204,-1,123,204,121,-1,121,204,205,-1,121,205,26,-1,26,205,206,-1,26,206,198,-1,3,24,207,-1,207,24,198,-1,4,3,208,-1,208,3,207,-1,209,23,210,-1,210,23,4,-1,210,4,208,-1,23,209,10,-1,10,209,211,-1,10,211,212,-1,10,212,213,-1,10,213,56,-1,56,213,214,-1,56,214,38,-1,214,215,38,-1,38,215,216,-1,38,216,39,-1,39,216,217,-1,39,217,40,-1,40,217,218,-1,40,218,28,-1,28,218,219,-1,28,219,30,-1,30,219,220,-1,30,220,32,-1,220,221,32,-1,32,221,222,-1,32,222,34,-1,34,222,223,-1,34,223,2,-1,224,91,93,-1,2,223,225,-1,2,225,19,-1,19,225,226,-1,19,226,97,-1,97,226,227,-1,97,227,95,-1,95,227,228,-1,95,228,93,-1,93,228,229,-1,93,229,224,-1,91,224,230,-1,91,230,89,-1,89,230,231,-1,89,231,118,-1,118,231,232,-1,118,232,116,-1,232,233,116,-1,116,233,234,-1,116,234,7,-1,7,234,235,-1,7,235,8,-1,8,235,236,-1,8,236,46,-1,46,236,237,-1,46,237,47,-1,47,237,238,-1,47,238,49,-1,49,238,239,-1,49,239,50,-1,50,239,240,-1,50,240,14,-1,14,240,241,-1,14,241,15,-1,15,241,242,-1,15,242,42,-1,42,242,243,-1,42,243,44,-1,44,243,244,-1,44,244,106,-1,106,244,245,-1,106,245,108,-1,246,57,247,-1,247,57,88,-1,247,88,248,-1,248,88,87,-1,248,87,249,-1,249,87,85,-1,249,85,250,-1,250,85,113,-1,250,113,251,-1,251,113,112,-1,251,112,252,-1,252,112,110,-1,252,110,253,-1,253,110,108,-1,253,108,245,-1,58,57,254,-1,254,57,246,-1,58,254,255,-1,58,255,60,-1,60,255,256,-1,60,256,62,-1,62,256,257,-1,62,257,64,-1,64,257,258,-1,64,258,66,-1,66,258,259,-1,66,259,68,-1,68,259,260,-1,68,260,70,-1,70,260,261,-1,70,261,72,-1,72,261,262,-1,72,262,74,-1,74,262,263,-1,74,263,76,-1,263,264,76,-1,76,264,265,-1,76,265,78,-1,78,265,266,-1,78,266,80,-1,80,266,267,-1,80,267,82,-1,82,267,268,-1,82,268,83,-1,83,268,269,-1,83,269,52,-1,54,52,270,-1,270,52,269,-1,54,270,271,-1,54,271,140,-1,140,271,272,-1,140,272,102,-1,102,272,273,-1,102,273,151,-1,151,273,274,-1,151,274,145,-1,145,274,275,-1,145,275,146,-1,146,275,276,-1,146,276,148,-1,148,276,277,-1,148,277,149,-1,149,277,278,-1,149,278,150,-1,150,278,279,-1,150,279,147,-1,147,279,280,-1,147,280,142,-1,142,280,281,-1,142,281,143,-1,143,281,282,-1,143,282,144,-1,144,282,283,-1,144,283,103,-1,103,283,284,-1,103,284,104,-1,104,284,285,-1,104,285,141,-1,141,285,286,-1,141,286,55,-1,55,286,287,-1,55,287,53,-1,51,53,288,-1,288,53,287,-1,51,288,289,-1,51,289,81,-1,81,289,290,-1,81,290,79,-1,79,290,291,-1,79,291,77,-1,77,291,292,-1,77,292,75,-1,75,292,293,-1,75,293,73,-1,73,293,71,-1,71,293,294,-1,71,294,154,-1,11,295,296,-1,11,296,12,-1,12,296,297,-1,12,297,16,-1,16,297,298,-1,16,298,17,-1,17,298,299,-1,17,299,18,-1,18,299,300,-1,18,300,6,-1,6,300,301,-1,6,301,5,-1,5,301,302,-1,5,302,25,-1,25,302,303,-1,25,303,122,-1,122,303,304,-1,122,304,124,-1,124,304,305,-1,124,305,126,-1,126,305,306,-1,126,306,128,-1,128,306,307,-1,128,307,130,-1,130,307,308,-1,130,308,132,-1,132,308,309,-1,132,309,134,-1,134,309,310,-1,134,310,136,-1,136,310,311,-1,136,311,138,-1,138,311,312,-1,138,312,139,-1,139,312,313,-1,139,313,101,-1,101,313,314,-1,101,314,100,-1,100,314,315,-1,100,315,37,-1,37,315,316,-1,37,316,36,-1,36,316,317,-1,36,317,35,-1,35,317,318,-1,35,318,33,-1,33,318,319,-1,33,319,31,-1,31,319,320,-1,31,320,29,-1,29,320,321,-1,29,321,27,-1,27,321,295,-1,27,295,11,-1,
        ]
    }
}
Shape{
    appearance Appearance {
        material  Material 	{
            diffuseColor 0.34901960784313724 0.34901960784313724 0.34901960784313724
            specularColor 0.34901960784313724 0.34901960784313724 0.34901960784313724
            ambientIntensity 0.2
            transparency 0
            shininess 0.5
        }
    }
    geometry IndexedFaceSet {
        ccw TRUE
        solid FALSE
        coord DEF co Coordinate {
            point [
                0.6967 0.3313 0.0, 0.6908 0.3474 0.0, 0.6899 0.3464 0.0, 0.6994 0.3316 0.0, 0.7015 0.3324 0.0, 0.699 0.3496 0.0, 0.6971 0.3498 0.0, 0.6947 0.3495 0.0, 0.6927 0.3487 0.0, 0.6883 0.3376 0.0, 0.6892 0.3357 0.0, 0.6906 0.334 0.0, 0.6971 0.3313 0.0, 0.6887 0.3444 0.0, 0.688 0.3422 0.0, 0.6878 0.3399 0.0, 0.6924 0.3326 0.0, 0.6945 0.3317 0.0, 0.7033 0.3337 0.0, 0.7046 0.3352 0.0, 0.7057 0.3372 0.0, 0.7063 0.3395 0.0, 0.7063 0.3417 0.0, 0.7057 0.3439 0.0, 0.7047 0.3458 0.0, 0.7032 0.3475 0.0, 0.7012 0.3488 0.0, 0.7012 0.3488 0.0
            ]
        }
        coordIndex [
            0,1,2,-1,3,4,5,-1,6,7,0,-1,0,7,8,-1,0,8,1,-1,9,10,2,-1,2,10,11,-1,6,0,5,-1,5,0,12,-1,5,12,3,-1,13,14,2,-1,2,14,15,-1,2,15,9,-1,11,16,2,-1,2,16,17,-1,2,17,0,-1,4,18,5,-1,5,18,19,-1,5,19,20,-1,20,21,5,-1,5,21,22,-1,5,22,23,-1,23,24,5,-1,5,24,25,-1,5,25,26,-1,
        ]
    }
}
Shape{
    appearance Appearance {
        material  Material 	{
            diffuseColor 1.0 1.0 1.0
            specularColor 0.5019607843137255 0.5019607843137255 0.5019607843137255
            ambientIntensity 0.2
            transparency 0
            shininess 0.5
        }
    }
    geometry IndexedFaceSet {
        ccw TRUE
        solid FALSE
        coord DEF co Coordinate {
            point [
                0.9194 0.4111 0.0039, 0.923 0.4132 0.0039, 0.9183 0.4122 0.0039, 0.9215 0.4147 0.0039, 0.9158 0.4138 0.0039, 0.9184 0.4169 0.0039, 0.9129 0.4149 0.0039, 0.9144 0.4185 0.0039, 0.9087 0.4153 0.0039, 0.9089 0.4191 0.0039, 0.9037 0.4153 0.0039, 0.8994 0.4191 0.0039, 0.9037 0.3896 0.0039, 0.8994 0.3858 0.0039, 0.9085 0.3896 0.0039, 0.9085 0.3858 0.0039, 0.9126 0.39 0.0039, 0.9141 0.3864 0.0039, 0.9155 0.391 0.0039, 0.9179 0.3879 0.0039, 0.9177 0.3924 0.0039, 0.9212 0.3901 0.0039, 0.9184 0.3931 0.0039, 0.9215 0.3904 0.0039, 0.9202 0.3952 0.0039, 0.9239 0.3932 0.0039, 0.9213 0.3978 0.0039, 0.9255 0.3966 0.0039, 0.9219 0.4009 0.0039, 0.9264 0.4005 0.0039, 0.922 0.4028 0.0039, 0.9265 0.4029 0.0039, 0.9216 0.4067 0.0039, 0.9261 0.4069 0.0039, 0.9207 0.4092 0.0039, 0.925 0.4102 0.0039, 0.9215 0.3904 0.0, 0.9239 0.3932 0.0, 0.9255 0.3966 0.0, 0.9264 0.4005 0.0, 0.9265 0.4029 0.0, 0.9261 0.4069 0.0, 0.925 0.4102 0.0, 0.923 0.4132 0.0, 0.9215 0.4147 0.0, 0.9089 0.4191 0.0, 0.9184 0.4169 0.0, 0.9146 0.4184 0.0, 0.9144 0.4185 0.0, 0.8994 0.4191 0.0, 0.8994 0.3858 0.0, 0.9085 0.3858 0.0, 0.9141 0.3864 0.0, 0.9146 0.3866 0.0, 0.9179 0.3879 0.0, 0.9212 0.3901 0.0, 0.9183 0.4122 0.0, 0.9194 0.4111 0.0, 0.9207 0.4092 0.0, 0.9216 0.4067 0.0, 0.922 0.4028 0.0, 0.9087 0.4153 0.0, 0.9129 0.4149 0.0, 0.9158 0.4138 0.0, 0.9037 0.4153 0.0, 0.9037 0.3896 0.0, 0.9085 0.3896 0.0, 0.9184 0.3931 0.0, 0.9177 0.3924 0.0, 0.9155 0.391 0.0, 0.9126 0.39 0.0, 0.9219 0.4009 0.0, 0.9213 0.3978 0.0, 0.9202 0.3952 0.0, 0.9202 0.3952 0.0
            ]
        }
        coordIndex [
            0,1,2,-1,2,1,3,-1,2,3,4,-1,4,3,5,-1,4,5,6,-1,6,5,7,-1,6,7,8,-1,8,7,9,-1,8,9,10,-1,10,9,11,-1,10,11,12,-1,12,11,13,-1,12,13,14,-1,14,13,15,-1,14,15,16,-1,16,15,17,-1,16,17,18,-1,18,17,19,-1,18,19,20,-1,20,19,21,-1,20,21,22,-1,22,21,23,-1,22,23,24,-1,24,23,25,-1,24,25,26,-1,26,25,27,-1,26,27,28,-1,28,27,29,-1,28,29,30,-1,30,29,31,-1,30,31,32,-1,32,31,33,-1,32,33,34,-1,34,33,35,-1,34,35,0,-1,0,35,1,-1,23,36,37,-1,23,37,25,-1,25,37,38,-1,25,38,27,-1,27,38,39,-1,27,39,29,-1,29,39,40,-1,29,40,31,-1,31,40,41,-1,31,41,33,-1,33,41,42,-1,33,42,35,-1,35,42,43,-1,35,43,1,-1,1,43,44,-1,1,44,3,-1,45,9,7,-1,3,44,46,-1,3,46,5,-1,5,46,47,-1,5,47,7,-1,7,47,48,-1,7,48,45,-1,11,9,49,-1,49,9,45,-1,13,11,50,-1,50,11,49,-1,15,13,51,-1,51,13,50,-1,15,51,52,-1,15,52,17,-1,17,52,53,-1,17,53,19,-1,53,54,19,-1,19,54,55,-1,19,55,21,-1,21,55,36,-1,21,36,23,-1,2,56,57,-1,2,57,0,-1,0,57,58,-1,0,58,34,-1,34,58,59,-1,34,59,32,-1,32,59,60,-1,32,60,30,-1,8,61,62,-1,8,62,6,-1,6,62,63,-1,6,63,4,-1,4,63,56,-1,4,56,2,-1,8,10,61,-1,61,10,64,-1,10,12,64,-1,64,12,65,-1,12,14,65,-1,65,14,66,-1,22,67,68,-1,22,68,20,-1,20,68,69,-1,20,69,18,-1,18,69,70,-1,18,70,16,-1,16,70,66,-1,16,66,14,-1,30,60,71,-1,30,71,28,-1,28,71,72,-1,28,72,26,-1,26,72,73,-1,26,73,24,-1,24,73,67,-1,24,67,22,-1,
        ]
    }
}
Shape{
    appearance Appearance {
        material  Material 	{
            diffuseColor 0.34901960784313724 0.34901960784313724 0.34901960784313724
            specularColor 0.34901960784313724 0.34901960784313724 0.34901960784313724
            ambientIntensity 0.2
            transparency 0
            shininess 0.5
        }
    }
    geometry IndexedFaceSet {
        ccw TRUE
        solid FALSE
        coord DEF co Coordinate {
            point [
                0.9037 0.4153 0.0, 0.9037 0.3896 0.0, 0.9087 0.4153 0.0, 0.9085 0.3896 0.0, 0.9126 0.39 0.0, 0.9155 0.391 0.0, 0.9177 0.3924 0.0, 0.9184 0.3931 0.0, 0.9202 0.3952 0.0, 0.9213 0.3978 0.0, 0.9219 0.4009 0.0, 0.922 0.4028 0.0, 0.9216 0.4067 0.0, 0.9207 0.4092 0.0, 0.9194 0.4111 0.0, 0.9183 0.4122 0.0, 0.9129 0.4149 0.0, 0.9158 0.4138 0.0, 0.9158 0.4138 0.0
            ]
        }
        coordIndex [
            0,1,2,-1,2,1,3,-1,2,3,4,-1,4,5,2,-1,2,5,6,-1,2,6,7,-1,7,8,2,-1,2,8,9,-1,2,9,10,-1,10,11,2,-1,2,11,12,-1,2,12,13,-1,13,14,2,-1,2,14,15,-1,2,15,16,-1,16,15,17,-1,
        ]
    }
}
Shape{
    appearance Appearance {
        material  Material 	{
            diffuseColor 1.0 1.0 1.0
            specularColor 0.5019607843137255 0.5019607843137255 0.5019607843137255
            ambientIntensity 0.2
            transparency 0
            shininess 0.5
        }
    }
    geometry IndexedFaceSet {
        ccw TRUE
        solid FALSE
        coord DEF co Coordinate {
            point [
                0.8598 0.389 0.0039, 0.8598 0.389 0.0, 0.8564 0.3895 0.0, 0.8564 0.3895 0.0039, 0.854 0.3904 0.0, 0.854 0.3904 0.0039, 0.8519 0.3919 0.0, 0.8519 0.3919 0.0039, 0.8513 0.3926 0.0, 0.8513 0.3926 0.0039, 0.8496 0.395 0.0, 0.8496 0.395 0.0039, 0.8485 0.3977 0.0, 0.8485 0.3977 0.0039, 0.848 0.4018 0.0, 0.848 0.4018 0.0039, 0.848 0.4021 0.0, 0.848 0.4021 0.0039, 0.8484 0.4062 0.0, 0.8484 0.4062 0.0039, 0.8494 0.4092 0.0, 0.8494 0.4092 0.0039, 0.851 0.4115 0.0, 0.851 0.4115 0.0039, 0.8515 0.4121 0.0, 0.8515 0.4121 0.0039, 0.8536 0.4139 0.0, 0.8536 0.4139 0.0039, 0.8562 0.4151 0.0, 0.8562 0.4151 0.0039, 0.8591 0.4157 0.0, 0.8591 0.4157 0.0039, 0.8606 0.4158 0.0, 0.8606 0.4158 0.0039, 0.8644 0.4154 0.0, 0.8644 0.4154 0.0039, 0.8678 0.4142 0.0, 0.8678 0.4142 0.0039, 0.8684 0.4138 0.0, 0.8684 0.4138 0.0039, 0.8684 0.4183 0.0039, 0.8684 0.4183 0.0, 0.8605 0.4197 0.0, 0.8605 0.4197 0.0039, 0.8608 0.4197 0.0039, 0.8652 0.4193 0.0, 0.8652 0.4193 0.0039, 0.864 0.4194 0.0, 0.8608 0.4197 0.0, 0.8578 0.4194 0.0, 0.8564 0.4193 0.0039, 0.8564 0.4193 0.0, 0.8528 0.418 0.0, 0.8528 0.418 0.0039, 0.8495 0.4159 0.0, 0.8495 0.4159 0.0039, 0.8483 0.4148 0.0, 0.8483 0.4148 0.0039, 0.846 0.4119 0.0, 0.846 0.4119 0.0039, 0.8444 0.4082 0.0, 0.8444 0.4082 0.0039, 0.8435 0.4039 0.0, 0.8435 0.4039 0.0039, 0.8435 0.4018 0.0, 0.8435 0.4018 0.0039, 0.8441 0.3965 0.0, 0.8441 0.3965 0.0039, 0.8454 0.393 0.0, 0.8454 0.393 0.0039, 0.8474 0.3901 0.0, 0.8474 0.3901 0.0039, 0.8477 0.3898 0.0, 0.8477 0.3898 0.0039, 0.8592 0.3852 0.0, 0.8592 0.3852 0.0039, 0.8571 0.3853 0.0039, 0.8504 0.3876 0.0, 0.8504 0.3876 0.0039, 0.8535 0.3861 0.0, 0.8535 0.3861 0.0039, 0.8563 0.3855 0.0, 0.8571 0.3853 0.0, 0.8621 0.3855 0.0, 0.8643 0.3857 0.0039, 0.8643 0.3857 0.0, 0.8679 0.3869 0.0, 0.8679 0.3869 0.0039, 0.8684 0.3872 0.0, 0.8684 0.3872 0.0039, 0.8684 0.3913 0.0039, 0.8684 0.3913 0.0, 0.8653 0.3898 0.0, 0.8653 0.3898 0.0039, 0.8615 0.3891 0.0, 0.8615 0.3891 0.0039, 0.9795 0.3457 0.0039, 0.9781 0.342 0.0039, 0.9907 0.3457 0.0039, 0.992 0.342 0.0039, 0.9845 0.3596 0.0039, 0.9829 0.3662 0.0039, 0.9702 0.3328 0.0039, 0.9749 0.3328 0.0039, 0.9848 0.3606 0.0039, 0.985 0.3619 0.0039, 0.9875 0.3662 0.0039, 0.9851 0.3619 0.0039, 0.9854 0.3605 0.0039, 0.9856 0.3596 0.0039, 1.0002 0.3328 0.0039, 0.9954 0.3328 0.0039, 0.9829 0.3662 0.0, 0.9875 0.3662 0.0, 0.9702 0.3328 0.0, 0.9812 0.3617 0.0, 0.9749 0.3328 0.0, 0.9781 0.342 0.0, 0.992 0.342 0.0, 0.9954 0.3328 0.0, 1.0002 0.3328 0.0, 0.9892 0.3617 0.0, 0.9845 0.3596 0.0, 0.9848 0.3606 0.0, 0.985 0.3619 0.0, 0.9795 0.3457 0.0, 0.9907 0.3457 0.0, 0.9856 0.3596 0.0, 0.9851 0.3619 0.0, 0.9854 0.3605 0.0, 0.9854 0.3605 0.0
            ]
        }
        coordIndex [
            0,1,2,-1,0,2,3,-1,3,2,4,-1,3,4,5,-1,5,4,6,-1,5,6,7,-1,7,6,8,-1,7,8,9,-1,9,8,10,-1,9,10,11,-1,11,10,12,-1,11,12,13,-1,13,12,14,-1,13,14,15,-1,15,14,16,-1,15,16,17,-1,17,16,18,-1,17,18,19,-1,19,18,20,-1,19,20,21,-1,21,20,22,-1,21,22,23,-1,23,22,24,-1,23,24,25,-1,25,24,26,-1,25,26,27,-1,27,26,28,-1,27,28,29,-1,29,28,30,-1,29,30,31,-1,31,30,32,-1,31,32,33,-1,33,32,34,-1,33,34,35,-1,35,34,36,-1,35,36,37,-1,37,36,38,-1,37,38,39,-1,40,39,41,-1,41,39,38,-1,42,43,44,-1,40,41,45,-1,40,45,46,-1,46,45,47,-1,46,47,44,-1,44,47,48,-1,44,48,42,-1,42,49,43,-1,43,49,50,-1,49,51,50,-1,50,51,52,-1,50,52,53,-1,53,52,54,-1,53,54,55,-1,55,54,56,-1,55,56,57,-1,57,56,58,-1,57,58,59,-1,59,58,60,-1,59,60,61,-1,61,60,62,-1,61,62,63,-1,63,62,64,-1,63,64,65,-1,65,64,66,-1,65,66,67,-1,67,66,68,-1,67,68,69,-1,69,68,70,-1,69,70,71,-1,71,70,72,-1,71,72,73,-1,74,75,76,-1,73,72,77,-1,73,77,78,-1,78,77,79,-1,78,79,80,-1,80,79,81,-1,80,81,76,-1,76,81,82,-1,76,82,74,-1,74,83,75,-1,75,83,84,-1,83,85,84,-1,84,85,86,-1,84,86,87,-1,87,86,88,-1,87,88,89,-1,90,89,91,-1,91,89,88,-1,90,91,92,-1,90,92,93,-1,93,92,94,-1,93,94,95,-1,95,94,1,-1,95,1,0,-1,37,39,40,-1,19,21,59,-1,89,90,87,-1,87,90,93,-1,87,93,84,-1,84,93,95,-1,84,95,75,-1,75,95,0,-1,75,0,76,-1,76,0,3,-1,76,3,80,-1,80,3,5,-1,80,5,78,-1,78,5,7,-1,78,7,73,-1,73,7,9,-1,73,9,71,-1,71,9,11,-1,71,11,69,-1,69,11,67,-1,67,11,13,-1,67,13,65,-1,59,21,57,-1,37,40,35,-1,35,40,46,-1,35,46,33,-1,33,46,44,-1,33,44,31,-1,31,44,43,-1,31,43,29,-1,29,43,50,-1,29,50,27,-1,50,53,27,-1,27,53,55,-1,27,55,25,-1,25,55,57,-1,25,57,23,-1,23,57,21,-1,13,15,65,-1,65,15,17,-1,65,17,63,-1,63,17,19,-1,63,19,61,-1,61,19,59,-1,96,97,98,-1,98,97,99,-1,100,101,96,-1,96,101,102,-1,96,102,97,-1,97,102,103,-1,100,104,101,-1,101,104,105,-1,101,105,106,-1,106,105,107,-1,106,107,108,-1,108,109,106,-1,106,109,98,-1,106,98,110,-1,110,98,99,-1,110,99,111,-1,101,106,112,-1,112,106,113,-1,114,102,115,-1,115,102,101,-1,115,101,112,-1,103,102,116,-1,116,102,114,-1,97,103,117,-1,117,103,116,-1,99,97,118,-1,118,97,117,-1,111,99,119,-1,119,99,118,-1,110,111,120,-1,120,111,119,-1,110,120,106,-1,106,120,121,-1,106,121,113,-1,100,122,123,-1,100,123,104,-1,104,123,124,-1,104,124,105,-1,100,96,122,-1,122,96,125,-1,96,98,125,-1,125,98,126,-1,98,109,126,-1,126,109,127,-1,107,128,129,-1,107,129,108,-1,108,129,127,-1,108,127,109,-1,107,105,128,-1,128,105,124,-1,
        ]
    }
}
Shape{
    appearance Appearance {
        material  Material 	{
            diffuseColor 0.34901960784313724 0.34901960784313724 0.34901960784313724
            specularColor 0.34901960784313724 0.34901960784313724 0.34901960784313724
            ambientIntensity 0.2
            transparency 0
            shininess 0.5
        }
    }
    geometry IndexedFaceSet {
        ccw TRUE
        solid FALSE
        coord DEF co Coordinate {
            point [
                0.9851 0.3619 0.0, 0.985 0.3619 0.0, 0.9854 0.3605 0.0, 0.9848 0.3606 0.0, 0.9856 0.3596 0.0, 0.9845 0.3596 0.0, 0.9907 0.3457 0.0, 0.9795 0.3457 0.0, 0.9795 0.3457 0.0
            ]
        }
        coordIndex [
            0,1,2,-1,2,1,3,-1,2,3,4,-1,4,3,5,-1,4,5,6,-1,6,5,7,-1,
        ]
    }
}
Shape{
    appearance Appearance {
        material  Material 	{
            diffuseColor 1.0 1.0 1.0
            specularColor 0.5019607843137255 0.5019607843137255 0.5019607843137255
            ambientIntensity 0.2
            transparency 0
            shininess 0.5
        }
    }
    geometry IndexedFaceSet {
        ccw TRUE
        solid FALSE
        coord DEF co Coordinate {
            point [
                0.9348 0.3366 0.0039, 0.9348 0.3366 0.0, 0.9212 0.3366 0.0039, 0.9275 0.3366 0.0, 0.9212 0.3366 0.0, 0.9212 0.3479 0.0039, 0.9212 0.3479 0.0, 0.9331 0.3479 0.0039, 0.9275 0.3479 0.0, 0.9331 0.3479 0.0, 0.9331 0.3517 0.0039, 0.9331 0.3517 0.0, 0.9212 0.3517 0.0, 0.9212 0.3517 0.0039, 0.9275 0.3517 0.0, 0.9212 0.3624 0.0, 0.9212 0.3624 0.0039, 0.9212 0.3617 0.0, 0.9341 0.3624 0.0, 0.9341 0.3624 0.0039, 0.9275 0.3624 0.0, 0.9341 0.3662 0.0039, 0.9341 0.3662 0.0, 0.9169 0.3662 0.0, 0.9169 0.3662 0.0039, 0.9275 0.3662 0.0, 0.9169 0.3328 0.0, 0.9169 0.3328 0.0039, 0.9169 0.3617 0.0, 0.9348 0.3328 0.0039, 0.9275 0.3328 0.0, 0.9348 0.3328 0.0, 0.8288 0.3366 0.0, 0.8288 0.3366 0.0039, 0.8423 0.3366 0.0, 0.8424 0.3366 0.0039, 0.8424 0.3366 0.0, 0.8288 0.3479 0.0039, 0.8288 0.3479 0.0, 0.8407 0.3479 0.0039, 0.8407 0.3479 0.0, 0.8407 0.3517 0.0039, 0.8407 0.3517 0.0, 0.8288 0.3517 0.0039, 0.8288 0.3517 0.0, 0.8288 0.3624 0.0, 0.8288 0.3624 0.0039, 0.8288 0.3617 0.0, 0.8417 0.3624 0.0039, 0.8417 0.3624 0.0, 0.8417 0.3662 0.0039, 0.8417 0.3662 0.0, 0.8245 0.3662 0.0039, 0.8245 0.3662 0.0, 0.8245 0.3328 0.0, 0.8245 0.3328 0.0039, 0.8245 0.3617 0.0, 0.8424 0.3328 0.0, 0.8424 0.3328 0.0039, 0.8423 0.3328 0.0, 0.9377 0.3987 0.0039, 0.9363 0.3949 0.0039, 0.9489 0.3987 0.0039, 0.9502 0.3949 0.0039, 0.9427 0.4125 0.0039, 0.9411 0.4191 0.0039, 0.9284 0.3858 0.0039, 0.9331 0.3858 0.0039, 0.943 0.4135 0.0039, 0.9432 0.4149 0.0039, 0.9457 0.4191 0.0039, 0.9433 0.4149 0.0039, 0.9436 0.4135 0.0039, 0.9439 0.4125 0.0039, 0.9584 0.3858 0.0039, 0.9536 0.3858 0.0039, 0.9411 0.4191 0.0, 0.9457 0.4191 0.0, 0.9284 0.3858 0.0, 0.938 0.411 0.0, 0.9331 0.3858 0.0, 0.9363 0.3949 0.0, 0.9502 0.3949 0.0, 0.938 0.3949 0.0, 0.9536 0.3858 0.0, 0.9584 0.3858 0.0, 0.9427 0.4125 0.0, 0.943 0.4135 0.0, 0.9432 0.4149 0.0, 0.9377 0.3987 0.0, 0.9489 0.3987 0.0, 0.9439 0.4125 0.0, 0.9433 0.4149 0.0, 0.9436 0.4135 0.0, 0.9436 0.4135 0.0
            ]
        }
        coordIndex [
            0,1,2,-1,2,1,3,-1,2,3,4,-1,5,2,6,-1,6,2,4,-1,5,6,7,-1,7,6,8,-1,7,8,9,-1,10,7,11,-1,11,7,9,-1,12,13,14,-1,14,13,10,-1,14,10,11,-1,15,16,17,-1,17,16,13,-1,17,13,12,-1,18,19,20,-1,20,19,16,-1,20,16,15,-1,21,19,22,-1,22,19,18,-1,23,24,25,-1,25,24,21,-1,25,21,22,-1,26,27,28,-1,28,27,24,-1,28,24,23,-1,27,26,29,-1,29,26,30,-1,29,30,31,-1,0,29,1,-1,1,29,31,-1,27,29,0,-1,0,2,27,-1,27,2,5,-1,27,5,24,-1,19,21,16,-1,16,21,24,-1,16,24,13,-1,13,24,5,-1,13,5,10,-1,10,5,7,-1,32,33,34,-1,34,33,35,-1,34,35,36,-1,37,33,38,-1,38,33,32,-1,39,37,40,-1,40,37,38,-1,41,39,42,-1,42,39,40,-1,43,41,44,-1,44,41,42,-1,45,46,47,-1,47,46,43,-1,47,43,44,-1,48,46,49,-1,49,46,45,-1,50,48,51,-1,51,48,49,-1,52,50,53,-1,53,50,51,-1,54,55,56,-1,56,55,52,-1,56,52,53,-1,57,58,59,-1,59,58,55,-1,59,55,54,-1,35,58,36,-1,36,58,57,-1,55,58,35,-1,35,33,55,-1,55,33,37,-1,55,37,52,-1,48,50,46,-1,46,50,52,-1,46,52,43,-1,43,52,37,-1,43,37,41,-1,41,37,39,-1,60,61,62,-1,62,61,63,-1,64,65,60,-1,60,65,66,-1,60,66,61,-1,61,66,67,-1,64,68,65,-1,65,68,69,-1,65,69,70,-1,70,69,71,-1,70,71,72,-1,72,73,70,-1,70,73,62,-1,70,62,74,-1,74,62,63,-1,74,63,75,-1,65,70,76,-1,76,70,77,-1,78,66,79,-1,79,66,65,-1,79,65,76,-1,67,66,80,-1,80,66,78,-1,61,67,81,-1,81,67,80,-1,82,63,83,-1,83,63,61,-1,83,61,81,-1,75,63,84,-1,84,63,82,-1,74,75,85,-1,85,75,84,-1,70,74,77,-1,77,74,85,-1,64,86,87,-1,64,87,68,-1,68,87,88,-1,68,88,69,-1,64,60,86,-1,86,60,89,-1,60,62,89,-1,89,62,90,-1,62,73,90,-1,90,73,91,-1,71,92,93,-1,71,93,72,-1,72,93,91,-1,72,91,73,-1,71,69,92,-1,92,69,88,-1,
        ]
    }
}
Shape{
    appearance Appearance {
        material  Material 	{
            diffuseColor 0.34901960784313724 0.34901960784313724 0.34901960784313724
            specularColor 0.34901960784313724 0.34901960784313724 0.34901960784313724
            ambientIntensity 0.2
            transparency 0
            shininess 0.5
        }
    }
    geometry IndexedFaceSet {
        ccw TRUE
        solid FALSE
        coord DEF co Coordinate {
            point [
                0.9433 0.4149 0.0, 0.9432 0.4149 0.0, 0.9436 0.4135 0.0, 0.943 0.4135 0.0, 0.9439 0.4125 0.0, 0.9427 0.4125 0.0, 0.9489 0.3987 0.0, 0.9377 0.3987 0.0, 0.9377 0.3987 0.0
            ]
        }
        coordIndex [
            0,1,2,-1,2,1,3,-1,2,3,4,-1,4,3,5,-1,4,5,6,-1,6,5,7,-1,
        ]
    }
}
Shape{
    appearance Appearance {
        material  Material 	{
            diffuseColor 1.0 1.0 1.0
            specularColor 0.5019607843137255 0.5019607843137255 0.5019607843137255
            ambientIntensity 0.2
            transparency 0
            shininess 0.5
        }
    }
    geometry IndexedFaceSet {
        ccw TRUE
        solid FALSE
        coord DEF co Coordinate {
            point [
                0.8794 0.3896 0.0, 0.8794 0.3896 0.0039, 0.8884 0.3896 0.0, 0.8931 0.3896 0.0039, 0.8931 0.3896 0.0, 0.8794 0.4008 0.0039, 0.8794 0.4008 0.0, 0.8914 0.4008 0.0039, 0.8884 0.4008 0.0, 0.8914 0.4008 0.0, 0.8914 0.4046 0.0039, 0.8914 0.4046 0.0, 0.8794 0.4046 0.0, 0.8794 0.4046 0.0039, 0.8884 0.4046 0.0, 0.8794 0.4153 0.0039, 0.8794 0.4153 0.0, 0.8923 0.4153 0.0039, 0.8884 0.4153 0.0, 0.8923 0.4153 0.0, 0.8923 0.4191 0.0039, 0.8923 0.4191 0.0, 0.8751 0.4191 0.0, 0.8751 0.4191 0.0039, 0.8884 0.4191 0.0, 0.8751 0.3858 0.0039, 0.8751 0.3858 0.0, 0.8931 0.3858 0.0039, 0.8884 0.3858 0.0, 0.8931 0.3858 0.0, 0.8288 0.3896 0.0039, 0.8421 0.3896 0.0039, 0.8288 0.3896 0.0, 0.8421 0.3896 0.0, 0.8288 0.4191 0.0039, 0.8288 0.4191 0.0, 0.8245 0.4191 0.0039, 0.8245 0.4191 0.0, 0.8245 0.3858 0.0039, 0.8245 0.3858 0.0, 0.8421 0.3858 0.0039, 0.8421 0.3858 0.0, 0.8421 0.3858 0.0
            ]
        }
        coordIndex [
            0,1,2,-1,2,1,3,-1,2,3,4,-1,5,1,6,-1,6,1,0,-1,5,6,7,-1,7,6,8,-1,7,8,9,-1,10,7,11,-1,11,7,9,-1,12,13,14,-1,14,13,10,-1,14,10,11,-1,15,13,16,-1,16,13,12,-1,15,16,17,-1,17,16,18,-1,17,18,19,-1,20,17,21,-1,21,17,19,-1,22,23,24,-1,24,23,20,-1,24,20,21,-1,25,23,26,-1,26,23,22,-1,25,26,27,-1,27,26,28,-1,27,28,29,-1,3,27,4,-1,4,27,29,-1,25,27,3,-1,3,1,25,-1,25,1,5,-1,25,5,23,-1,17,20,15,-1,15,20,23,-1,15,23,13,-1,13,23,5,-1,13,5,10,-1,10,5,7,-1,30,31,32,-1,32,31,33,-1,34,30,35,-1,35,30,32,-1,36,34,37,-1,37,34,35,-1,38,36,39,-1,39,36,37,-1,40,38,41,-1,41,38,39,-1,31,40,33,-1,33,40,41,-1,34,36,30,-1,30,36,38,-1,30,38,31,-1,31,38,40,-1,
        ]
    }
}