#VRML V2.0 utf8
# 3D model generated by easyeda2kicad.py (https://github.com/uPesy/easyeda2kicad.py)

Shape{
    appearance Appearance {
        material  Material 	{
            diffuseColor 0.2235294117647059 0.2235294117647059 0.2235294117647059
            specularColor 0.11372549019607843 0.11372549019607843 0.11372549019607843
            ambientIntensity 0.2
            transparency 0
            shininess 0.5
        }
    }
    geometry IndexedFaceSet {
        ccw TRUE
        solid FALSE
        coord DEF co Coordinate {
            point [
                -0.1181 1.2913 -0.5906, 1.5551 1.2598 -0.5906, -1.5551 1.2598 -0.5906, -1.6732 1.378 -0.5906, -1.6732 0.0 -0.5906, -1.5551 0.1181 -0.5906, 1.1024 0.0866 -0.5906, 0.8661 0.0866 -0.5906, 1.5551 0.1181 -0.5906, 0.8661 0.0394 -0.5906, -0.8661 0.0394 -0.5906, -0.8661 0.0866 -0.5906, -1.1024 0.0866 -0.5906, -1.1024 0.0394 -0.5906, 1.6732 0.0 -0.5906, 1.1024 0.0394 -0.5906, -0.1181 1.3386 -0.5906, 0.1181 1.3386 -0.5906, 1.6732 1.378 -0.5906, 0.1181 1.2913 -0.5906, 0.1181 1.2913 -0.5906
            ]
        }
        coordIndex [
            0,1,2,-1,3,2,4,-1,4,2,5,-1,6,7,8,-1,9,10,7,-1,7,10,11,-1,7,11,8,-1,8,11,5,-1,11,12,5,-1,5,12,13,-1,5,13,4,-1,4,13,10,-1,4,10,14,-1,14,10,9,-1,14,9,15,-1,0,2,16,-1,16,2,3,-1,16,3,17,-1,17,3,18,-1,17,18,19,-1,0,19,1,-1,1,19,18,-1,1,18,8,-1,8,18,14,-1,8,14,6,-1,6,14,15,-1,
        ]
    }
}
Shape{
    appearance Appearance {
        material  Material 	{
            diffuseColor 0.9725490196078431 0.9450980392156862 0.7803921568627451
            specularColor 0.48627450980392156 0.47058823529411764 0.38823529411764707
            ambientIntensity 0.2
            transparency 0
            shininess 0.5
        }
    }
    geometry IndexedFaceSet {
        ccw TRUE
        solid FALSE
        coord DEF co Coordinate {
            point [
                -0.689 1.0236 0.6654, -0.6496 0.9843 0.6654, -0.0591 0.9843 0.6654, -0.6496 0.3937 0.6654, -0.689 0.3543 0.6654, -0.0591 0.3937 0.6654, 0.689 0.3543 0.6654, 0.689 1.0236 0.6654, 0.689 1.0236 0.6654
            ]
        }
        coordIndex [
            0,1,2,-1,1,0,3,-1,3,0,4,-1,3,4,5,-1,5,4,6,-1,5,6,2,-1,2,6,7,-1,2,7,0,-1,
        ]
    }
}
Shape{
    appearance Appearance {
        material  Material 	{
            diffuseColor 0.2235294117647059 0.2235294117647059 0.2235294117647059
            specularColor 0.11372549019607843 0.11372549019607843 0.11372549019607843
            ambientIntensity 0.2
            transparency 0
            shininess 0.5
        }
    }
    geometry IndexedFaceSet {
        ccw TRUE
        solid FALSE
        coord DEF co Coordinate {
            point [
                -0.5156 0.1181 -0.7087, -1.5551 0.1181 -0.7087, -1.5551 0.3594 -0.7087, -0.2338 0.4394 -0.7087, -0.1876 0.4506 -0.7087, -0.2447 0.3888 -0.7087, -0.1676 0.368 -0.7087, -0.2498 0.3629 -0.7087, -0.1661 0.3594 -0.7087, -0.2507 0.3594 -0.7087, -0.3682 0.3593 -0.7087, -0.3675 0.3592 -0.7087, -0.3687 0.3594 -0.7087, -0.2549 0.3517 -0.7087, -0.2547 0.3516 -0.7087, -0.2551 0.3519 -0.7087, -0.1646 0.3529 -0.7087, -0.1643 0.3525 -0.7087, -0.164 0.3522 -0.7087, -0.2541 0.3515 -0.7087, -0.2538 0.3516 -0.7087, -0.2534 0.3519 -0.7087, -0.2531 0.3522 -0.7087, -0.2527 0.3528 -0.7087, -0.1632 0.352 -0.7087, 1.5551 0.1181 -0.7087, -0.163 0.3521 -0.7087, 1.5551 0.3594 -0.7087, -0.1627 0.3522 -0.7087, -0.2564 0.3594 -0.7087, -0.2561 0.357 -0.7087, -0.2557 0.3534 -0.7087, -0.2555 0.3526 -0.7087, -0.2543 0.3515 -0.7087, -0.1652 0.3544 -0.7087, -0.165 0.3537 -0.7087, -0.1637 0.3521 -0.7087, -0.1635 0.352 -0.7087, -0.2523 0.3536 -0.7087, -0.2518 0.3548 -0.7087, -0.1625 0.3524 -0.7087, -0.1623 0.3526 -0.7087, -0.1621 0.353 -0.7087, -0.2546 0.3515 -0.7087, -0.162 0.3536 -0.7087, -0.1618 0.3544 -0.7087, -0.1616 0.3557 -0.7087, -0.4545 0.4846 -0.7087, -0.4831 0.4808 -0.7087, -0.4831 0.5556 -0.7087, -0.4996 0.5707 -0.7087, -0.5002 0.5706 -0.7087, -0.5156 1.2598 -0.7087, -0.4984 0.5705 -0.7087, -0.5012 0.57 -0.7087, -0.5013 0.5698 -0.7087, -0.3833 0.5694 -0.7087, -0.3837 0.5689 -0.7087, -0.427 0.581 -0.7087, -0.4428 0.4869 -0.7087, -0.5007 0.5704 -0.7087, -0.501 0.5702 -0.7087, -0.1608 0.3633 -0.7087, -0.1613 0.3594 -0.7087, -0.1615 0.3575 -0.7087, -0.496 0.3677 -0.7087, -0.4962 0.3649 -0.7087, -0.5156 0.3594 -0.7087, -0.4959 0.3636 -0.7087, -0.4955 0.3627 -0.7087, -0.495 0.362 -0.7087, -0.4942 0.3614 -0.7087, -0.4804 0.5688 -0.7087, -0.4862 0.5688 -0.7087, -0.4919 0.5695 -0.7087, -0.1594 0.3785 -0.7087, -0.1592 0.3822 -0.7087, -0.1591 0.3836 -0.7087, -0.1689 0.413 -0.7087, -0.1707 0.421 -0.7087, 1.5551 1.2598 -0.7087, -0.5014 0.5696 -0.7087, -0.5014 0.5689 -0.7087, -0.5013 0.5682 -0.7087, -0.4323 0.5637 -0.7087, -0.4287 0.4934 -0.7087, -0.4403 0.5627 -0.7087, -0.4318 0.4917 -0.7087, -0.4352 0.4896 -0.7087, -0.4411 0.5746 -0.7087, -0.4528 0.5722 -0.7087, -0.4661 0.5699 -0.7087, -0.493 0.5556 -0.7087, -0.4926 0.4 -0.7087, -0.4966 0.5598 -0.7087, -0.4988 0.5625 -0.7087, -0.3807 0.3769 -0.7087, -0.3842 0.5665 -0.7087, -0.3705 0.3769 -0.7087, -0.3839 0.5654 -0.7087, -0.2579 0.3876 -0.7087, -0.2586 0.3855 -0.7087, -0.2915 0.3962 -0.7087, -0.3044 0.5706 -0.7087, -0.3103 0.5737 -0.7087, -0.3182 0.5756 -0.7087, -0.3146 0.37 -0.7087, -0.3098 0.3723 -0.7087, -0.4177 0.4818 -0.7087, -0.4181 0.4826 -0.7087, -0.4189 0.5654 -0.7087, -0.4206 0.4778 -0.7087, -0.4196 0.4778 -0.7087, -0.4199 0.3891 -0.7087, -0.4318 0.578 -0.7087, -0.4301 0.579 -0.7087, -0.4727 0.5689 -0.7087, -0.4794 0.5688 -0.7087, -0.4927 0.3957 -0.7087, -0.493 0.3915 -0.7087, -0.493 0.385 -0.7087, -0.3821 0.377 -0.7087, -0.3828 0.3769 -0.7087, -0.3842 0.5674 -0.7087, -0.3828 0.3769 -0.7087, -0.3831 0.3768 -0.7087, -0.3833 0.3767 -0.7087, -0.3835 0.3764 -0.7087, -0.3834 0.5645 -0.7087, -0.3825 0.5635 -0.7087, -0.3811 0.5624 -0.7087, -0.375 0.5573 -0.7087, -0.3728 0.556 -0.7087, -0.3705 0.5549 -0.7087, -0.4115 0.3732 -0.7087, -0.4104 0.3733 -0.7087, -0.3687 0.3594 -0.7087, -0.41 0.3735 -0.7087, -0.4098 0.3737 -0.7087, -0.2834 0.512 -0.7087, -0.2889 0.5469 -0.7087, -0.2124 0.5838 -0.7087, -0.2939 0.5588 -0.7087, -0.2993 0.5662 -0.7087, -0.2077 0.5838 -0.7087, -0.1747 0.438 -0.7087, -0.4243 0.5647 -0.7087, -0.4189 0.4835 -0.7087, -0.4324 0.384 -0.7087, -0.4831 0.3769 -0.7087, -0.4831 0.4689 -0.7087, -0.1588 0.3871 -0.7087, -0.1589 0.3878 -0.7087, -0.159 0.3884 -0.7087, -0.1594 0.389 -0.7087, -0.4938 0.3762 -0.7087, -0.496 0.3677 -0.7087, -0.3836 0.3762 -0.7087, -0.3839 0.3754 -0.7087, -0.4104 0.3785 -0.7087, -0.4095 0.3773 -0.7087, -0.3839 0.3748 -0.7087, -0.409 0.3753 -0.7087, -0.384 0.3751 -0.7087, -0.409 0.3759 -0.7087, -0.4091 0.3766 -0.7087, -0.3672 0.3593 -0.7087, -0.367 0.3594 -0.7087, -0.3661 0.36 -0.7087, -0.2982 0.384 -0.7087, -0.2588 0.3824 -0.7087, -0.2583 0.3758 -0.7087, -0.4189 0.4781 -0.7087, -0.4185 0.4783 -0.7087, -0.418 0.4788 -0.7087, -0.1606 0.3904 -0.7087, -0.162 0.3925 -0.7087, -0.1642 0.3986 -0.7087, -0.1666 0.4051 -0.7087, -0.5013 0.5672 -0.7087, -0.5009 0.5659 -0.7087, -0.5002 0.5644 -0.7087, -0.2848 0.4198 -0.7087, -0.2556 0.3918 -0.7087, -0.2573 0.3888 -0.7087, -0.2815 0.4587 -0.7087, -0.2474 0.4217 -0.7087, -0.2511 0.4067 -0.7087, -0.3288 0.5763 -0.7087, -0.3363 0.5757 -0.7087, -0.3437 0.5742 -0.7087, -0.3625 0.3621 -0.7087, -0.3569 0.3636 -0.7087, -0.342 0.3653 -0.7087, -0.3263 0.3673 -0.7087, -0.304 0.3769 -0.7087, -0.2566 0.3616 -0.7087, -0.4275 0.3853 -0.7087, -0.4174 0.4811 -0.7087, -0.4179 0.5655 -0.7087, -0.4173 0.4805 -0.7087, -0.4173 0.5657 -0.7087, -0.4167 0.5661 -0.7087, -0.4932 0.361 -0.7087, -0.492 0.3609 -0.7087, -0.4904 0.361 -0.7087, -0.4882 0.3616 -0.7087, -0.4096 0.374 -0.7087, -0.4092 0.3746 -0.7087, -0.3698 0.3601 -0.7087, -0.3746 0.3641 -0.7087, -0.3838 0.3745 -0.7087, -0.3836 0.374 -0.7087, -0.3832 0.3734 -0.7087, -0.4229 0.3874 -0.7087, -0.4161 0.5689 -0.7087, -0.4165 0.5698 -0.7087, -0.4172 0.5709 -0.7087, -0.4163 0.5665 -0.7087, -0.416 0.5669 -0.7087, -0.4159 0.5674 -0.7087, -0.384 0.5683 -0.7087, -0.4158 0.5678 -0.7087, -0.4159 0.5683 -0.7087, -0.3566 0.5705 -0.7087, -0.3637 0.5699 -0.7087, -0.3666 0.5693 -0.7087, -0.4174 0.4799 -0.7087, -0.4176 0.4793 -0.7087, -0.4844 0.3629 -0.7087, -0.4688 0.3657 -0.7087, -0.4432 0.3697 -0.7087, -0.3826 0.3727 -0.7087, -0.3818 0.3718 -0.7087, -0.3777 0.3674 -0.7087, -0.3828 0.5699 -0.7087, -0.3766 0.5688 -0.7087, -0.3695 0.5688 -0.7087, -0.4175 0.3728 -0.7087, -0.4124 0.3731 -0.7087, -0.7238 0.3643 -0.7087, -0.7237 0.3635 -0.7087, -0.7238 0.3663 -0.7087, -0.6008 0.3738 -0.7087, -0.595 0.3678 -0.7087, -0.6486 0.3701 -0.7087, -0.5692 0.3599 -0.7087, -0.5634 0.3606 -0.7087, -0.5552 0.3637 -0.7087, -0.5477 0.3691 -0.7087, -0.5297 0.4435 -0.7087, -0.5352 0.4438 -0.7087, -0.5413 0.4853 -0.7087, -0.6094 0.5248 -0.7087, -0.5441 0.5331 -0.7087, -0.7224 0.3618 -0.7087, -0.722 0.3616 -0.7087, -0.6493 0.369 -0.7087, -0.649 0.3693 -0.7087, -0.5789 0.3604 -0.7087, -0.5881 0.3635 -0.7087, -0.5418 0.3762 -0.7087, -0.5364 0.3872 -0.7087, -0.5322 0.4039 -0.7087, -0.687 0.3773 -0.7087, -0.7132 0.3752 -0.7087, -0.7132 0.5484 -0.7087, -0.5399 0.576 -0.7087, -0.5564 0.573 -0.7087, -0.564 0.5771 -0.7087, -0.7232 0.3626 -0.7087, -0.7228 0.3621 -0.7087, -0.6016 0.5475 -0.7087, -0.5957 0.5568 -0.7087, -0.5676 0.5678 -0.7087, -0.5438 0.392 -0.7087, -0.5481 0.3839 -0.7087, -0.5739 0.3711 -0.7087, -0.5423 0.5559 -0.7087, -0.5453 0.5614 -0.7087, -0.5491 0.5664 -0.7087, -0.6514 0.3682 -0.7087, -0.6507 0.3683 -0.7087, -0.6498 0.3687 -0.7087, -0.6217 0.4408 -0.7087, -0.6174 0.4134 -0.7087, -0.6081 0.3859 -0.7087, -0.5836 0.3731 -0.7087, -0.588 0.3759 -0.7087, -0.539 0.4115 -0.7087, -0.5929 0.3806 -0.7087, -0.5739 0.5797 -0.7087, -0.5786 0.5796 -0.7087, -0.723 0.5885 -0.7087, -1.5551 1.2598 -0.7087, -0.7254 0.5858 -0.7087, -0.7247 0.5824 -0.7087, -0.7223 0.5661 -0.7087, -0.722 0.5495 -0.7087, -0.722 0.3966 -0.7087, -0.5901 0.5624 -0.7087, -0.5843 0.566 -0.7087, -0.5712 0.5685 -0.7087, -0.5783 0.5681 -0.7087, -0.5571 0.5621 -0.7087, -0.5529 0.5573 -0.7087, -0.5484 0.5486 -0.7087, -0.5529 0.3785 -0.7087, -0.5588 0.3744 -0.7087, -0.5662 0.3717 -0.7087, -0.5792 0.3717 -0.7087, -0.5999 0.3906 -0.7087, -0.6052 0.4047 -0.7087, -0.5369 0.4258 -0.7087, -0.6137 0.4533 -0.7087, -0.6123 0.508 -0.7087, -0.5835 0.5786 -0.7087, -0.5886 0.5762 -0.7087, -0.5977 0.5694 -0.7087, -0.6229 0.492 -0.7087, -0.6488 0.3713 -0.7087, -0.6215 0.506 -0.7087, -0.7227 0.3765 -0.7087, -0.7227 0.376 -0.7087, -0.5348 0.4853 -0.7087, -0.5348 0.576 -0.7087, -0.6493 0.3728 -0.7087, -0.6498 0.3737 -0.7087, -0.6509 0.3749 -0.7087, -0.7081 0.5699 -0.7087, -0.6626 0.3853 -0.7087, -0.7117 0.5623 -0.7087, -0.7131 0.5526 -0.7087, -0.664 0.3847 -0.7087, -0.6675 0.3817 -0.7087, -0.6962 0.3639 -0.7087, -0.6764 0.3656 -0.7087, -0.6705 0.3662 -0.7087, -0.6565 0.3682 -0.7087, -0.5625 0.5659 -0.7087, -0.6701 0.3804 -0.7087, -0.6746 0.3793 -0.7087, -0.6049 0.5608 -0.7087, -0.6132 0.543 -0.7087, -0.7207 0.3614 -0.7087, -0.7183 0.3619 -0.7087, -0.7104 0.3626 -0.7087, -0.7215 0.3614 -0.7087, -0.6547 0.3783 -0.7087, -0.6547 0.3783 -0.7087
            ]
        }
        coordIndex [
            0,1,2,-1,3,4,5,-1,5,4,6,-1,5,6,7,-1,7,6,8,-1,7,8,9,-1,10,11,0,-1,10,0,12,-1,13,14,0,-1,13,0,15,-1,16,17,0,-1,0,17,18,-1,19,20,8,-1,20,21,8,-1,8,21,22,-1,8,22,23,-1,0,24,25,-1,25,24,26,-1,25,26,27,-1,27,26,28,-1,29,30,11,-1,11,30,31,-1,11,31,0,-1,0,31,32,-1,0,32,15,-1,19,8,33,-1,33,8,34,-1,33,34,35,-1,18,36,0,-1,0,36,37,-1,0,37,24,-1,23,38,8,-1,8,38,39,-1,8,39,9,-1,28,40,27,-1,27,40,41,-1,27,41,42,-1,14,43,0,-1,0,43,33,-1,0,33,16,-1,16,33,35,-1,42,44,27,-1,27,44,45,-1,27,45,46,-1,47,48,49,-1,50,51,52,-1,50,52,53,-1,54,55,52,-1,56,57,58,-1,47,49,59,-1,51,60,52,-1,52,60,61,-1,52,61,54,-1,62,27,63,-1,63,27,46,-1,63,46,64,-1,65,66,67,-1,67,66,68,-1,68,69,67,-1,67,69,70,-1,67,70,71,-1,72,73,52,-1,52,73,74,-1,52,74,53,-1,62,75,27,-1,27,75,76,-1,27,76,77,-1,78,79,80,-1,81,82,67,-1,67,82,83,-1,84,85,86,-1,86,85,87,-1,86,87,49,-1,49,87,88,-1,49,88,59,-1,89,90,52,-1,52,90,91,-1,92,93,94,-1,94,93,95,-1,96,97,98,-1,98,97,99,-1,100,101,102,-1,103,104,52,-1,52,104,105,-1,29,106,107,-1,108,109,110,-1,111,112,113,-1,89,52,114,-1,114,52,58,-1,114,58,115,-1,91,116,52,-1,52,116,117,-1,52,117,72,-1,93,118,67,-1,67,118,119,-1,67,119,120,-1,96,121,97,-1,97,121,122,-1,97,122,123,-1,122,124,123,-1,123,124,125,-1,123,125,113,-1,113,125,126,-1,113,126,127,-1,99,128,98,-1,98,128,129,-1,98,129,130,-1,130,131,98,-1,98,131,132,-1,98,132,133,-1,134,135,136,-1,136,135,137,-1,136,137,138,-1,139,140,141,-1,141,140,142,-1,141,142,143,-1,143,103,141,-1,141,103,52,-1,141,52,144,-1,144,52,80,-1,144,80,145,-1,145,80,79,-1,84,146,85,-1,85,146,110,-1,85,110,147,-1,147,110,109,-1,148,149,150,-1,77,151,27,-1,27,151,152,-1,27,152,80,-1,80,152,153,-1,80,153,154,-1,120,155,67,-1,67,155,156,-1,67,156,65,-1,127,157,113,-1,113,157,158,-1,113,158,159,-1,159,158,160,-1,161,162,163,-1,163,162,164,-1,163,164,158,-1,158,164,165,-1,158,165,160,-1,11,166,29,-1,29,166,167,-1,29,167,168,-1,102,101,169,-1,169,101,170,-1,169,170,171,-1,112,172,113,-1,113,172,173,-1,113,173,174,-1,175,176,154,-1,154,176,177,-1,154,177,80,-1,80,177,178,-1,80,178,78,-1,83,179,67,-1,67,179,180,-1,67,180,93,-1,93,180,181,-1,93,181,95,-1,182,183,102,-1,102,183,184,-1,102,184,100,-1,139,141,185,-1,185,141,186,-1,185,186,182,-1,182,186,187,-1,182,187,183,-1,105,188,52,-1,52,188,189,-1,52,189,190,-1,191,192,168,-1,168,192,193,-1,168,193,29,-1,29,193,194,-1,29,194,106,-1,107,195,29,-1,29,195,169,-1,29,169,196,-1,196,169,171,-1,148,150,197,-1,108,110,198,-1,198,110,199,-1,198,199,200,-1,200,199,201,-1,200,201,202,-1,71,203,67,-1,67,203,204,-1,67,204,136,-1,136,204,205,-1,136,205,206,-1,138,207,136,-1,136,207,208,-1,136,208,209,-1,209,208,210,-1,161,211,162,-1,162,211,212,-1,162,212,213,-1,111,113,150,-1,150,113,214,-1,150,214,197,-1,215,216,57,-1,57,216,217,-1,57,217,58,-1,218,219,123,-1,123,219,220,-1,123,220,221,-1,221,220,222,-1,221,222,57,-1,57,222,223,-1,57,223,215,-1,190,224,52,-1,52,224,225,-1,52,225,226,-1,202,218,200,-1,200,218,123,-1,200,123,227,-1,227,123,113,-1,227,113,228,-1,228,113,174,-1,206,229,136,-1,136,229,230,-1,136,230,231,-1,213,232,162,-1,162,232,233,-1,162,233,208,-1,208,233,234,-1,208,234,210,-1,56,58,235,-1,235,58,52,-1,235,52,236,-1,236,52,226,-1,236,226,237,-1,231,238,136,-1,136,238,239,-1,136,239,134,-1,240,241,2,-1,240,2,242,-1,243,244,245,-1,246,247,67,-1,67,247,248,-1,67,248,249,-1,250,251,252,-1,252,251,253,-1,252,253,254,-1,2,255,256,-1,257,258,259,-1,259,258,245,-1,259,245,260,-1,260,245,244,-1,249,261,67,-1,67,261,262,-1,67,262,263,-1,264,265,266,-1,267,268,269,-1,241,270,2,-1,2,270,271,-1,2,271,255,-1,259,246,2,-1,2,246,67,-1,2,67,0,-1,0,67,136,-1,0,136,12,-1,55,81,52,-1,52,81,67,-1,52,67,250,-1,250,67,263,-1,272,273,274,-1,275,276,277,-1,278,279,267,-1,267,279,280,-1,267,280,268,-1,281,282,259,-1,259,282,283,-1,259,283,257,-1,284,285,245,-1,245,285,286,-1,245,286,243,-1,287,288,289,-1,289,288,290,-1,291,292,52,-1,52,293,294,-1,294,293,295,-1,294,295,2,-1,2,295,296,-1,296,297,2,-1,2,297,298,-1,2,298,299,-1,273,300,274,-1,274,300,301,-1,274,301,302,-1,302,301,303,-1,304,305,253,-1,253,305,306,-1,253,306,254,-1,276,307,277,-1,277,307,308,-1,277,308,309,-1,275,277,289,-1,289,277,310,-1,289,310,287,-1,290,311,289,-1,289,311,312,-1,289,312,313,-1,313,312,314,-1,313,314,251,-1,251,314,315,-1,251,315,253,-1,292,316,52,-1,52,316,317,-1,52,317,318,-1,284,245,319,-1,319,245,320,-1,319,320,321,-1,299,322,2,-1,2,322,323,-1,2,323,242,-1,252,324,250,-1,250,324,325,-1,250,325,52,-1,52,325,267,-1,52,267,291,-1,291,267,269,-1,320,326,321,-1,321,326,327,-1,321,327,328,-1,329,330,331,-1,331,330,332,-1,332,330,266,-1,266,330,333,-1,266,333,334,-1,335,336,259,-1,259,336,337,-1,259,337,281,-1,281,337,338,-1,272,274,253,-1,253,274,339,-1,253,339,304,-1,334,340,266,-1,266,340,341,-1,266,341,264,-1,318,342,52,-1,52,342,343,-1,52,343,321,-1,344,345,346,-1,256,347,2,-1,2,347,344,-1,2,344,259,-1,259,344,346,-1,259,346,335,-1,328,348,321,-1,321,348,330,-1,321,330,52,-1,52,330,329,-1,52,329,293,-1,
        ]
    }
}
Shape{
    appearance Appearance {
        material  Material 	{
            diffuseColor 0.7529411764705882 0.7529411764705882 0.7529411764705882
            specularColor 0.6039215686274509 0.6039215686274509 0.6039215686274509
            ambientIntensity 0.2
            transparency 0
            shininess 0.5
        }
    }
    geometry IndexedFaceSet {
        ccw TRUE
        solid FALSE
        coord DEF co Coordinate {
            point [
                1.39 0.5175 0.7047, 1.2302 0.4785 0.7047, 1.5512 0.3386 0.7047, 1.643 1.0395 0.7047, 1.643 1.2863 0.7047, 1.3682 1.2863 0.7047, 1.2706 0.4963 0.7047, 1.27 0.4968 0.7047, 1.2689 0.4982 0.7047, 1.3996 0.8907 0.7047, 1.4041 0.8403 0.7047, 1.5512 1.0394 0.7047, 1.4381 0.5271 0.7047, 1.4381 0.5175 0.7047, 1.3682 0.0916 0.7047, 1.643 0.0916 0.7047, 1.643 0.3385 0.7047, 1.2725 0.4962 0.7047, 1.2724 0.496 0.7047, 1.3879 0.8705 0.7047, 1.3894 0.8771 0.7047, 1.2846 0.8675 0.7047, 1.3922 0.8907 0.7047, 1.2615 0.9009 0.7047, 1.6732 1.0394 0.7047, 1.6732 1.0395 0.7047, 1.3747 0.8097 0.7047, 1.3344 0.7458 0.7047, 1.39 0.5815 0.7047, -1.3682 1.378 0.7047, -1.3682 1.2863 0.7047, 1.3682 1.378 0.7047, -0.689 1.0236 0.7047, 0.689 1.0236 0.7047, -1.5512 1.0394 0.7047, -1.5512 0.3386 0.7047, -1.3682 0.0916 0.7047, -1.6732 1.0395 0.7047, -1.6732 1.0394 0.7047, -1.643 1.0395 0.7047, 1.271 0.4961 0.7047, 1.272 0.4959 0.7047, 1.2716 0.496 0.7047, 1.1901 0.5866 0.7047, 1.1866 0.5504 0.7047, 1.2653 0.5069 0.7047, 1.2784 0.8216 0.7047, 1.2784 0.6908 0.7047, 1.3616 0.8154 0.7047, 1.388 0.8264 0.7047, -1.643 0.3385 0.7047, -1.643 0.0916 0.7047, 1.2753 0.5059 0.7047, 1.2735 0.4984 0.7047, 1.2723 0.496 0.7047, 1.2722 0.4959 0.7047, 1.2721 0.4959 0.7047, 1.1907 0.6202 0.7047, 1.4082 0.542 0.7047, 1.413 0.5373 0.7047, -1.6732 0.3386 0.7047, -1.6732 0.3385 0.7047, 1.6732 0.3385 0.7047, 1.6732 0.3386 0.7047, 1.3682 0.0 0.7047, 1.2059 0.4785 0.7047, 1.1765 0.5147 0.7047, 1.1638 0.4948 0.7047, 1.2563 0.8953 0.7047, 1.1833 0.5356 0.7047, 1.2681 0.4995 0.7047, 1.4035 0.5499 0.7047, 1.4212 0.5322 0.7047, 1.4296 0.5294 0.7047, 1.2732 0.4977 0.7047, 1.2727 0.4965 0.7047, 1.1297 0.7819 0.7047, 1.1759 0.6902 0.7047, 1.126 0.8082 0.7047, 1.118 0.8275 0.7047, 1.2559 0.5466 0.7047, 1.2573 0.5503 0.7047, 1.2612 0.5621 0.7047, 0.811 0.6715 0.7047, 0.8221 0.602 0.7047, 0.9317 0.7248 0.7047, 0.9418 0.6557 0.7047, 0.9424 0.7248 0.7047, 0.9509 0.6552 0.7047, 0.9294 0.7878 0.7047, 0.8131 0.7616 0.7047, 0.8103 0.6843 0.7047, 1.2796 0.8448 0.7047, 1.3785 0.845 0.7047, 1.3851 0.86 0.7047, 1.2597 0.53 0.7047, 1.2569 0.5405 0.7047, 1.1923 0.6902 0.7047, 1.1458 0.4791 0.7047, 1.1258 0.4681 0.7047, 1.0975 0.4601 0.7047, 1.0875 0.4592 0.7047, 1.0672 0.4603 0.7047, 1.1266 0.7469 0.7047, 1.1136 0.7113 0.7047, 1.1753 0.6455 0.7047, 1.1034 0.6944 0.7047, 1.1739 0.5984 0.7047, 1.0948 0.6852 0.7047, 1.1702 0.5515 0.7047, 1.0904 0.6818 0.7047, 1.0734 0.6693 0.7047, 0.8852 0.5158 0.7047, 0.8707 0.5163 0.7047, 0.689 0.3543 0.7047, 0.8557 0.521 0.7047, 0.8426 0.5286 0.7047, 1.0124 0.8145 0.7047, 1.0218 0.8334 0.7047, 0.9424 0.876 0.7047, 1.0317 0.8448 0.7047, 1.0424 0.8525 0.7047, 1.0581 0.8584 0.7047, 1.0719 0.8593 0.7047, 1.0836 0.8572 0.7047, 1.0953 0.8517 0.7047, 1.2648 0.5096 0.7047, 1.2562 0.5434 0.7047, 1.2557 0.5456 0.7047, 0.831 0.5731 0.7047, 0.9365 0.609 0.7047, 0.939 0.6257 0.7047, 1.3231 0.7299 0.7047, 1.2784 0.6625 0.7047, 1.3758 0.5736 0.7047, 1.2784 0.5646 0.7047, 1.3846 0.546 0.7047, 1.2767 0.5238 0.7047, 1.2757 0.5093 0.7047, 0.9231 0.5332 0.7047, 0.9108 0.5236 0.7047, 0.897 0.5176 0.7047, 0.9339 0.876 0.7047, 0.894 0.8779 0.7047, 0.907 0.8706 0.7047, 1.1071 0.8421 0.7047, 1.2586 0.8862 0.7047, 1.2616 0.8717 0.7047, 0.8412 0.5557 0.7047, 0.8474 0.5483 0.7047, 0.8553 0.5414 0.7047, 0.9284 0.5716 0.7047, 0.921 0.5569 0.7047, 0.9127 0.5473 0.7047, 0.8412 0.8445 0.7047, 0.8315 0.8292 0.7047, 0.8182 0.7911 0.7047, 1.0161 0.4905 0.7047, 1.0275 0.4787 0.7047, 1.0462 0.4673 0.7047, 1.0093 0.5004 0.7047, 0.9988 0.5232 0.7047, 0.9324 0.5458 0.7047, 0.9405 0.5633 0.7047, 0.8083 0.8101 0.7047, 0.8208 0.8425 0.7047, 0.8315 0.8586 0.7047, 0.8446 0.8708 0.7047, 0.8582 0.8792 0.7047, 0.8653 0.8816 0.7047, 0.8754 0.8822 0.7047, 0.8773 0.8822 0.7047, 0.8626 0.5373 0.7047, 0.8702 0.5352 0.7047, 0.8773 0.5345 0.7047, 0.89 0.5355 0.7047, 0.9025 0.5401 0.7047, 0.8504 0.8535 0.7047, 0.9225 0.8228 0.7047, 0.914 0.8422 0.7047, -1.3682 0.0 0.7047, -0.689 0.3543 0.7047, -1.643 1.2863 0.7047, 0.9183 0.8604 0.7047, 0.9249 0.8516 0.7047, 0.9299 0.8426 0.7047, 1.0109 0.7375 0.7047, 1.0062 0.7756 0.7047, 1.0071 0.7911 0.7047, 1.2637 0.601 0.7047, 1.2637 0.6087 0.7047, 1.2637 0.8296 0.7047, 1.2628 0.8581 0.7047, 0.9074 0.851 0.7047, 0.8999 0.8572 0.7047, 0.892 0.8611 0.7047, 0.9937 0.5492 0.7047, 0.993 0.5724 0.7047, 0.9484 0.6042 0.7047, 0.9996 0.6137 0.7047, 1.0113 0.6426 0.7047, 1.0222 0.6592 0.7047, 1.0199 0.7129 0.7047, 1.0303 0.667 0.7047, 1.0428 0.6772 0.7047, 0.8332 0.5383 0.7047, 0.8202 0.5594 0.7047, 0.8044 0.6068 0.7047, 0.8818 0.8636 0.7047, 0.8701 0.8628 0.7047, 0.8599 0.8594 0.7047, 0.7982 0.6452 0.7047, 0.7947 0.7188 0.7047, 0.798 0.7594 0.7047, 0.798 0.7594 0.7047
            ]
        }
        coordIndex [
            0,1,2,-1,3,4,5,-1,6,7,1,-1,1,7,8,-1,9,10,11,-1,11,10,12,-1,11,12,2,-1,2,12,13,-1,2,13,0,-1,14,15,16,-1,17,18,0,-1,19,20,21,-1,21,20,22,-1,21,22,23,-1,22,9,5,-1,5,9,11,-1,5,11,3,-1,3,11,24,-1,3,24,25,-1,26,27,28,-1,29,30,31,-1,31,30,32,-1,31,32,33,-1,34,35,36,-1,37,38,39,-1,39,38,34,-1,6,1,40,-1,40,1,41,-1,40,41,42,-1,43,44,45,-1,46,47,48,-1,26,28,49,-1,50,51,36,-1,52,53,0,-1,18,54,0,-1,0,54,55,-1,0,55,1,-1,1,55,56,-1,1,56,41,-1,43,45,57,-1,58,59,10,-1,36,35,50,-1,50,35,60,-1,50,60,61,-1,62,63,16,-1,16,63,2,-1,16,2,14,-1,14,2,1,-1,14,1,64,-1,64,1,65,-1,65,66,67,-1,22,5,23,-1,23,5,31,-1,23,31,68,-1,44,69,45,-1,45,69,1,-1,45,1,70,-1,70,1,8,-1,49,28,10,-1,10,28,71,-1,10,71,58,-1,59,72,10,-1,10,72,73,-1,10,73,12,-1,53,74,0,-1,0,74,75,-1,0,75,17,-1,76,77,78,-1,78,77,79,-1,80,81,82,-1,83,84,85,-1,85,84,86,-1,85,86,87,-1,87,86,88,-1,89,90,85,-1,85,90,91,-1,85,91,83,-1,46,48,92,-1,92,48,93,-1,92,93,21,-1,21,93,94,-1,21,94,19,-1,95,96,97,-1,65,67,64,-1,64,67,98,-1,64,98,99,-1,99,100,64,-1,64,100,101,-1,64,101,102,-1,76,103,77,-1,77,103,104,-1,77,104,105,-1,105,104,106,-1,105,106,107,-1,107,106,108,-1,107,108,109,-1,109,108,110,-1,109,110,111,-1,112,113,114,-1,114,113,115,-1,114,115,116,-1,117,118,119,-1,119,118,120,-1,120,121,119,-1,119,121,122,-1,119,122,123,-1,68,124,125,-1,57,45,97,-1,97,45,126,-1,97,126,95,-1,96,127,97,-1,97,127,128,-1,97,128,80,-1,129,130,84,-1,84,130,131,-1,84,131,86,-1,132,133,134,-1,134,133,135,-1,134,135,136,-1,136,135,137,-1,136,137,0,-1,0,137,138,-1,0,138,52,-1,139,140,64,-1,64,140,141,-1,142,143,144,-1,125,145,68,-1,68,145,79,-1,68,79,146,-1,146,79,147,-1,129,148,130,-1,130,148,149,-1,130,149,150,-1,151,130,152,-1,152,130,153,-1,154,155,89,-1,89,155,156,-1,89,156,90,-1,157,139,158,-1,158,139,64,-1,158,64,159,-1,159,64,102,-1,157,160,139,-1,139,160,161,-1,139,161,162,-1,162,161,163,-1,164,165,33,-1,165,166,33,-1,33,166,167,-1,33,167,168,-1,168,169,33,-1,33,169,170,-1,33,170,171,-1,171,143,33,-1,33,143,142,-1,33,142,31,-1,31,142,119,-1,31,119,68,-1,68,119,123,-1,68,123,124,-1,150,172,130,-1,130,172,173,-1,130,173,174,-1,174,175,130,-1,130,175,176,-1,130,176,153,-1,154,89,177,-1,177,89,178,-1,177,178,179,-1,141,112,64,-1,64,112,114,-1,64,114,180,-1,180,114,181,-1,180,181,36,-1,36,181,32,-1,36,32,34,-1,34,32,30,-1,34,30,39,-1,39,30,182,-1,144,183,142,-1,142,183,184,-1,142,184,185,-1,88,186,87,-1,87,186,187,-1,87,187,119,-1,119,187,188,-1,119,188,117,-1,82,189,80,-1,80,189,190,-1,80,190,97,-1,97,190,191,-1,97,191,77,-1,77,191,79,-1,79,191,192,-1,79,192,147,-1,179,193,177,-1,177,193,194,-1,177,194,195,-1,161,196,163,-1,163,196,197,-1,163,197,198,-1,198,197,199,-1,198,199,88,-1,88,199,200,-1,88,200,186,-1,186,200,201,-1,186,201,202,-1,202,201,203,-1,202,203,204,-1,116,205,114,-1,114,205,206,-1,114,206,207,-1,208,209,195,-1,195,209,210,-1,195,210,177,-1,207,211,114,-1,114,211,212,-1,114,212,33,-1,33,212,213,-1,33,213,164,-1,
        ]
    }
}
Shape{
    appearance Appearance {
        material  Material 	{
            diffuseColor 0.2235294117647059 0.2235294117647059 0.2235294117647059
            specularColor 0.11372549019607843 0.11372549019607843 0.11372549019607843
            ambientIntensity 0.2
            transparency 0
            shininess 0.5
        }
    }
    geometry IndexedFaceSet {
        ccw TRUE
        solid FALSE
        coord DEF co Coordinate {
            point [
                1.6732 0.3385 0.7047, 1.6732 0.3385 0.7087, 1.6732 0.0 0.7087, 1.6732 1.378 -0.5906, 1.6732 1.378 0.7087, 1.6732 1.0395 0.7047, 1.6732 1.0395 0.7087, 1.6732 1.0394 0.7047, 1.6732 1.0394 -0.0787, 1.6732 1.1811 -0.0787, 1.6732 1.1811 -0.315, 1.6732 0.0 -0.5906, 1.6732 0.1969 -0.315, 1.6732 0.1969 -0.0787, 1.6732 0.3386 -0.0787, 1.6732 0.3386 0.7047, -1.6732 1.0395 0.7047, -1.6732 1.0395 0.7087, -1.6732 1.378 0.7087, -1.6732 0.0 -0.5906, -1.6732 0.0 0.7087, -1.6732 0.3385 0.7047, -1.6732 0.3385 0.7087, -1.6732 0.3386 0.7047, -1.6732 0.3386 -0.0787, -1.6732 0.1969 -0.0787, -1.6732 0.1969 -0.315, -1.6732 1.378 -0.5906, -1.6732 1.1811 -0.315, -1.6732 1.1811 -0.0787, -1.6732 1.0394 -0.0787, -1.6732 1.0394 0.7047, -1.643 0.3385 0.7087, -1.643 0.0916 0.7087, -1.3682 0.0916 0.7087, -1.3682 0.0 0.7087, -1.3682 1.2863 0.7087, -1.3682 1.378 0.7087, -1.643 1.2863 0.7087, -1.643 1.0395 0.7087, 1.643 1.0395 0.7087, 1.643 1.2863 0.7087, 1.3682 1.2863 0.7087, 1.3682 1.378 0.7087, 1.3682 0.0916 0.7087, 1.3682 0.0 0.7087, 1.643 0.0916 0.7087, 1.643 0.3385 0.7087, -1.3682 1.378 0.7047, 1.3682 1.378 0.7047, 1.3682 0.0 0.7047, -1.3682 0.0 0.7047, 1.5551 1.2598 -0.5906, 1.5551 0.1181 -0.5906, 1.5551 1.2598 -0.7087, 1.5551 0.1181 -0.7087, -1.5551 1.2598 -0.5906, -1.5551 1.2598 -0.7087, -1.5551 0.1181 -0.5906, -1.5551 0.1181 -0.7087, -1.5551 0.1181 -0.7087
            ]
        }
        coordIndex [
            0,1,2,-1,3,4,5,-1,5,4,6,-1,7,8,5,-1,5,8,9,-1,5,9,3,-1,3,9,10,-1,3,10,11,-1,11,10,12,-1,11,12,13,-1,14,15,13,-1,13,15,0,-1,13,0,11,-1,11,0,2,-1,16,17,18,-1,19,20,21,-1,21,20,22,-1,23,24,21,-1,21,24,25,-1,21,25,19,-1,19,25,26,-1,19,26,27,-1,27,26,28,-1,27,28,29,-1,30,31,29,-1,29,31,16,-1,29,16,27,-1,27,16,18,-1,32,22,33,-1,33,22,20,-1,33,20,34,-1,34,20,35,-1,36,37,38,-1,38,37,18,-1,38,18,39,-1,39,18,17,-1,40,6,41,-1,41,6,4,-1,41,4,42,-1,42,4,43,-1,44,45,46,-1,46,45,2,-1,46,2,47,-1,47,2,1,-1,18,37,48,-1,43,4,49,-1,49,4,3,-1,49,3,48,-1,48,3,27,-1,48,27,18,-1,2,45,50,-1,35,20,51,-1,51,20,19,-1,51,19,50,-1,50,19,11,-1,50,11,2,-1,52,53,54,-1,54,53,55,-1,56,52,57,-1,57,52,54,-1,58,56,59,-1,59,56,57,-1,53,58,55,-1,55,58,59,-1,
        ]
    }
}
Shape{
    appearance Appearance {
        material  Material 	{
            diffuseColor 0.7529411764705882 0.7529411764705882 0.7529411764705882
            specularColor 0.6039215686274509 0.6039215686274509 0.6039215686274509
            ambientIntensity 0.2
            transparency 0
            shininess 0.5
        }
    }
    geometry IndexedFaceSet {
        ccw TRUE
        solid FALSE
        coord DEF co Coordinate {
            point [
                1.1024 0.5315 -0.7874, 1.1024 0.1181 -0.7874, 0.8661 0.5315 -0.7874, 0.8661 0.1181 -0.7874, 1.1024 0.5315 -0.7402, 0.8661 0.5315 -0.7402, 1.1024 0.1181 -0.7402, 0.8661 0.1181 -0.7402, 1.1024 0.1111 -0.7394, 0.8661 0.1111 -0.7394, 1.1024 0.1044 -0.737, 0.8661 0.1044 -0.737, 1.1024 0.0985 -0.7333, 0.8661 0.0985 -0.7333, 1.1024 0.0935 -0.7283, 0.8661 0.0935 -0.7283, 1.1024 0.0897 -0.7223, 0.8661 0.0897 -0.7223, 1.1024 0.0874 -0.7157, 0.8661 0.0874 -0.7157, 1.1024 0.0866 -0.7087, 0.8661 0.0866 -0.7087, 1.1024 0.0866 -0.5906, 0.8661 0.0866 -0.5906, 1.1024 0.0394 -0.7087, 1.1024 0.0394 -0.5906, 0.8661 0.0394 -0.7087, 0.8661 0.0394 -0.5906, 0.8661 0.0413 -0.7262, 1.1024 0.0413 -0.7262, 0.8661 0.0472 -0.7428, 1.1024 0.0472 -0.7428, 0.8661 0.0565 -0.7578, 1.1024 0.0565 -0.7578, 0.8661 0.069 -0.7702, 1.1024 0.069 -0.7702, 0.8661 0.0839 -0.7796, 1.1024 0.0839 -0.7796, 0.8661 0.1006 -0.7854, 1.1024 0.1006 -0.7854, -0.8661 0.5315 -0.7874, -0.8661 0.1181 -0.7874, -1.1024 0.5315 -0.7874, -1.1024 0.1181 -0.7874, -0.8661 0.5315 -0.7402, -1.1024 0.5315 -0.7402, -0.8661 0.1181 -0.7402, -1.1024 0.1181 -0.7402, -0.8661 0.1111 -0.7394, -1.1024 0.1111 -0.7394, -0.8661 0.1044 -0.737, -1.1024 0.1044 -0.737, -0.8661 0.0985 -0.7333, -1.1024 0.0985 -0.7333, -0.8661 0.0935 -0.7283, -1.1024 0.0935 -0.7283, -0.8661 0.0897 -0.7223, -1.1024 0.0897 -0.7223, -0.8661 0.0874 -0.7157, -1.1024 0.0874 -0.7157, -0.8661 0.0866 -0.7087, -1.1024 0.0866 -0.7087, -0.8661 0.0866 -0.5906, -1.1024 0.0866 -0.5906, -0.8661 0.0394 -0.7087, -0.8661 0.0394 -0.5906, -1.1024 0.0394 -0.7087, -1.1024 0.0394 -0.5906, -1.1024 0.0413 -0.7262, -0.8661 0.0413 -0.7262, -1.1024 0.0472 -0.7428, -0.8661 0.0472 -0.7428, -1.1024 0.0565 -0.7578, -0.8661 0.0565 -0.7578, -1.1024 0.069 -0.7702, -0.8661 0.069 -0.7702, -1.1024 0.0839 -0.7796, -0.8661 0.0839 -0.7796, -1.1024 0.1006 -0.7854, -0.8661 0.1006 -0.7854, -1.3682 0.0 0.7047, -1.3682 0.0916 0.7047, -1.3682 0.0 0.7087, -1.3682 0.0916 0.7087, -1.643 0.0916 0.7047, -1.643 0.0916 0.7087, -1.643 0.3385 0.7047, -1.643 0.3385 0.7087, -1.6732 0.3385 0.7047, -1.6732 0.3385 0.7087, -1.6732 1.0395 0.7047, -1.643 1.0395 0.7047, -1.6732 1.0395 0.7087, -1.643 1.0395 0.7087, -1.643 1.2863 0.7047, -1.643 1.2863 0.7087, -1.3682 1.2863 0.7047, -1.3682 1.2863 0.7087, -1.3682 1.378 0.7047, -1.3682 1.378 0.7087, 1.3682 1.378 0.7047, 1.3682 1.2863 0.7047, 1.3682 1.378 0.7087, 1.3682 1.2863 0.7087, 1.643 1.2863 0.7047, 1.643 1.2863 0.7087, 1.643 1.0395 0.7047, 1.643 1.0395 0.7087, 1.6732 1.0395 0.7047, 1.6732 1.0395 0.7087, 1.6732 0.3385 0.7047, 1.643 0.3385 0.7047, 1.6732 0.3385 0.7087, 1.643 0.3385 0.7087, 1.643 0.0916 0.7047, 1.643 0.0916 0.7087, 1.3682 0.0916 0.7047, 1.3682 0.0916 0.7087, 1.3682 0.0 0.7047, 1.3682 0.0 0.7087, -1.6693 0.1969 -0.315, -1.6693 1.1811 -0.315, -1.6732 0.1969 -0.315, -1.6732 1.1811 -0.315, -1.6693 1.1811 -0.0787, -1.6732 1.1811 -0.0787, -1.6693 1.0394 -0.0787, -1.6732 1.0394 -0.0787, -1.6535 1.0394 0.6457, -1.6347 1.0394 0.6701, -1.6732 1.0394 0.7047, -1.6653 1.0394 0.6172, -1.6102 1.0394 0.6889, -1.5817 1.0394 0.7007, -1.5512 1.0394 0.7047, -1.6693 1.0394 0.5866, -1.6732 0.3386 0.7047, -1.5512 0.3386 0.7047, -1.5817 0.3386 0.7007, -1.6102 0.3386 0.6889, -1.6347 0.3386 0.6701, -1.6535 0.3386 0.6457, -1.6693 0.3386 -0.0787, -1.6732 0.3386 -0.0787, -1.6693 0.3386 0.5866, -1.6653 0.3386 0.6172, -1.6693 0.1969 -0.0787, -1.6732 0.1969 -0.0787, 1.6693 1.1811 -0.315, 1.6693 0.1969 -0.315, 1.6732 1.1811 -0.315, 1.6732 0.1969 -0.315, 1.6693 0.1969 -0.0787, 1.6732 0.1969 -0.0787, 1.6693 0.3386 -0.0787, 1.6732 0.3386 -0.0787, 1.6535 0.3386 0.6457, 1.6347 0.3386 0.6701, 1.6732 0.3386 0.7047, 1.6653 0.3386 0.6172, 1.6102 0.3386 0.6889, 1.5817 0.3386 0.7007, 1.5512 0.3386 0.7047, 1.6693 0.3386 0.5866, 1.6732 1.0394 0.7047, 1.5512 1.0394 0.7047, 1.5817 1.0394 0.7007, 1.6102 1.0394 0.6889, 1.6347 1.0394 0.6701, 1.6535 1.0394 0.6457, 1.6693 1.0394 -0.0787, 1.6732 1.0394 -0.0787, 1.6693 1.0394 0.5866, 1.6653 1.0394 0.6172, 1.6693 1.1811 -0.0787, 1.6732 1.1811 -0.0787, 1.2784 0.8216 0.7008, 1.2784 0.6908 0.7008, 1.2784 0.8216 0.7047, 1.2784 0.6908 0.7047, 1.3616 0.8154 0.7008, 1.3616 0.8154 0.7047, 1.3894 0.8771 0.7008, 1.3894 0.8771 0.7047, 1.3879 0.8705 0.7047, 1.3879 0.8705 0.7008, 1.3851 0.86 0.7047, 1.3851 0.86 0.7008, 1.3785 0.845 0.7047, 1.3785 0.845 0.7008, 1.3922 0.8907 0.7008, 1.3922 0.8907 0.7047, 1.3996 0.8907 0.7008, 1.3996 0.8907 0.7047, 1.4041 0.8403 0.7008, 1.4041 0.8403 0.7047, 1.3747 0.8097 0.7008, 1.3747 0.8097 0.7047, 1.388 0.8264 0.7047, 1.388 0.8264 0.7008, 1.3344 0.7458 0.7008, 1.3344 0.7458 0.7047, 1.39 0.5815 0.7008, 1.39 0.5815 0.7047, 1.4296 0.5294 0.7008, 1.4296 0.5294 0.7047, 1.4212 0.5322 0.7047, 1.4212 0.5322 0.7008, 1.413 0.5373 0.7047, 1.413 0.5373 0.7008, 1.4082 0.542 0.7047, 1.4082 0.542 0.7008, 1.4035 0.5499 0.7047, 1.4035 0.5499 0.7008, 1.4381 0.5271 0.7008, 1.4381 0.5271 0.7047, 1.4381 0.5175 0.7008, 1.4381 0.5175 0.7047, 1.39 0.5175 0.7008, 1.39 0.5175 0.7047, 1.3758 0.5736 0.7008, 1.3758 0.5736 0.7047, 1.3846 0.546 0.7047, 1.3846 0.546 0.7008, 1.3231 0.7299 0.7008, 1.3231 0.7299 0.7047, 1.2784 0.6625 0.7008, 1.2784 0.6625 0.7047, 1.2784 0.5646 0.7008, 1.2784 0.5646 0.7047, 1.2767 0.5238 0.7008, 1.2767 0.5238 0.7047, 1.2716 0.496 0.7008, 1.2716 0.496 0.7047, 1.272 0.4959 0.7047, 1.272 0.4959 0.7008, 1.2721 0.4959 0.7047, 1.2721 0.4959 0.7008, 1.2722 0.4959 0.7047, 1.2722 0.4959 0.7008, 1.2723 0.496 0.7047, 1.2723 0.496 0.7008, 1.2724 0.496 0.7047, 1.2724 0.496 0.7008, 1.2725 0.4962 0.7047, 1.2725 0.4962 0.7008, 1.2727 0.4965 0.7047, 1.2727 0.4965 0.7008, 1.2732 0.4977 0.7047, 1.2732 0.4977 0.7008, 1.2735 0.4984 0.7047, 1.2735 0.4984 0.7008, 1.2753 0.5059 0.7047, 1.2753 0.5059 0.7008, 1.2757 0.5093 0.7047, 1.2757 0.5093 0.7008, 1.2648 0.5096 0.7008, 1.2648 0.5096 0.7047, 1.2653 0.5069 0.7047, 1.2653 0.5069 0.7008, 1.2681 0.4995 0.7047, 1.2681 0.4995 0.7008, 1.2689 0.4982 0.7047, 1.2689 0.4982 0.7008, 1.27 0.4968 0.7047, 1.27 0.4968 0.7008, 1.2706 0.4963 0.7047, 1.2706 0.4963 0.7008, 1.271 0.4961 0.7047, 1.271 0.4961 0.7008, 1.2597 0.53 0.7008, 1.2597 0.53 0.7047, 1.2637 0.6087 0.7008, 1.2637 0.6087 0.7047, 1.2637 0.601 0.7047, 1.2637 0.601 0.7008, 1.2612 0.5621 0.7047, 1.2612 0.5621 0.7008, 1.2573 0.5503 0.7047, 1.2573 0.5503 0.7008, 1.2559 0.5466 0.7047, 1.2559 0.5466 0.7008, 1.2557 0.5456 0.7047, 1.2557 0.5456 0.7008, 1.2562 0.5434 0.7047, 1.2562 0.5434 0.7008, 1.2569 0.5405 0.7047, 1.2569 0.5405 0.7008, 1.2637 0.8296 0.7008, 1.2637 0.8296 0.7047, 1.2586 0.8862 0.7008, 1.2586 0.8862 0.7047, 1.2616 0.8717 0.7047, 1.2616 0.8717 0.7008, 1.2628 0.8581 0.7047, 1.2628 0.8581 0.7008, 1.2563 0.8953 0.7008, 1.2563 0.8953 0.7047, 1.2615 0.9009 0.7008, 1.2615 0.9009 0.7047, 1.2846 0.8675 0.7008, 1.2846 0.8675 0.7047, 1.2796 0.8448 0.7047, 1.2796 0.8448 0.7008, 1.0904 0.6818 0.7008, 1.0734 0.6693 0.7008, 1.0904 0.6818 0.7047, 1.0734 0.6693 0.7047, 1.1702 0.5515 0.7008, 1.1702 0.5515 0.7047, 1.1753 0.6455 0.7008, 1.1753 0.6455 0.7047, 1.1739 0.5984 0.7047, 1.1739 0.5984 0.7008, 1.1759 0.6902 0.7008, 1.1759 0.6902 0.7047, 1.1923 0.6902 0.7008, 1.1923 0.6902 0.7047, 1.1866 0.5504 0.7008, 1.1866 0.5504 0.7047, 1.1901 0.5866 0.7047, 1.1901 0.5866 0.7008, 1.1907 0.6202 0.7047, 1.1907 0.6202 0.7008, 1.1833 0.5356 0.7008, 1.1833 0.5356 0.7047, 1.2302 0.4785 0.7008, 1.2302 0.4785 0.7047, 1.2059 0.4785 0.7008, 1.2059 0.4785 0.7047, 1.1765 0.5147 0.7008, 1.1765 0.5147 0.7047, 1.0875 0.4592 0.7008, 1.0875 0.4592 0.7047, 1.0975 0.4601 0.7047, 1.0975 0.4601 0.7008, 1.1258 0.4681 0.7047, 1.1258 0.4681 0.7008, 1.1458 0.4791 0.7047, 1.1458 0.4791 0.7008, 1.1638 0.4948 0.7047, 1.1638 0.4948 0.7008, 0.993 0.5724 0.7008, 0.993 0.5724 0.7047, 0.9937 0.5492 0.7047, 0.9937 0.5492 0.7008, 0.9988 0.5232 0.7047, 0.9988 0.5232 0.7008, 1.0093 0.5004 0.7047, 1.0093 0.5004 0.7008, 1.0161 0.4905 0.7047, 1.0161 0.4905 0.7008, 1.0275 0.4787 0.7047, 1.0275 0.4787 0.7008, 1.0462 0.4673 0.7047, 1.0462 0.4673 0.7008, 1.0672 0.4603 0.7047, 1.0672 0.4603 0.7008, 1.0303 0.667 0.7008, 1.0303 0.667 0.7047, 1.0222 0.6592 0.7047, 1.0222 0.6592 0.7008, 1.0113 0.6426 0.7047, 1.0113 0.6426 0.7008, 0.9996 0.6137 0.7047, 0.9996 0.6137 0.7008, 1.0428 0.6772 0.7008, 1.0428 0.6772 0.7047, 1.0071 0.7911 0.7008, 1.0071 0.7911 0.7047, 1.0062 0.7756 0.7047, 1.0062 0.7756 0.7008, 1.0109 0.7375 0.7047, 1.0109 0.7375 0.7008, 1.0199 0.7129 0.7047, 1.0199 0.7129 0.7008, 1.0581 0.8584 0.7008, 1.0581 0.8584 0.7047, 1.0424 0.8525 0.7047, 1.0424 0.8525 0.7008, 1.0317 0.8448 0.7047, 1.0317 0.8448 0.7008, 1.0218 0.8334 0.7047, 1.0218 0.8334 0.7008, 1.0124 0.8145 0.7047, 1.0124 0.8145 0.7008, 1.1266 0.7469 0.7008, 1.1266 0.7469 0.7047, 1.1297 0.7819 0.7047, 1.1297 0.7819 0.7008, 1.126 0.8082 0.7047, 1.126 0.8082 0.7008, 1.118 0.8275 0.7047, 1.118 0.8275 0.7008, 1.1071 0.8421 0.7047, 1.1071 0.8421 0.7008, 1.0953 0.8517 0.7047, 1.0953 0.8517 0.7008, 1.0836 0.8572 0.7047, 1.0836 0.8572 0.7008, 1.0719 0.8593 0.7047, 1.0719 0.8593 0.7008, 1.0948 0.6852 0.7047, 1.0948 0.6852 0.7008, 1.1034 0.6944 0.7047, 1.1034 0.6944 0.7008, 1.1136 0.7113 0.7047, 1.1136 0.7113 0.7008, 1.1071 0.7353 0.7008, 1.0984 0.7208 0.7008, 1.0829 0.7025 0.7008, 1.1112 0.7482 0.7008, 1.113 0.7701 0.7008, 1.1104 0.7938 0.7008, 1.1064 0.8086 0.7008, 1.1012 0.8184 0.7008, 1.0918 0.8286 0.7008, 1.0835 0.8339 0.7008, 1.0765 0.8363 0.7008, 1.0686 0.8368 0.7008, 1.0637 0.8364 0.7008, 1.0528 0.8325 0.7008, 1.0448 0.827 0.7008, 1.0371 0.8183 0.7008, 1.0286 0.802 0.7008, 1.0237 0.7817 0.7008, 1.0237 0.7601 0.7008, 1.0297 0.7355 0.7008, 1.0382 0.7171 0.7008, 1.0496 0.7005 0.7008, 1.0592 0.6869 0.7008, 1.0558 0.6608 0.7008, 1.0357 0.6452 0.7008, 1.0264 0.6335 0.7008, 1.016 0.6103 0.7008, 1.0113 0.5869 0.7008, 1.0114 0.5517 0.7008, 1.0151 0.5334 0.7008, 1.0217 0.5164 0.7008, 1.0293 0.5054 0.7008, 1.0422 0.494 0.7008, 1.0552 0.487 0.7008, 1.0705 0.4832 0.7008, 1.0824 0.4824 0.7008, 1.103 0.4838 0.7008, 1.1168 0.488 0.7008, 1.1391 0.5018 0.7008, 1.1514 0.512 0.7008, 1.158 0.5192 0.7008, 1.16 0.5226 0.7008, 1.1634 0.5306 0.7008, 1.16 0.5226 0.7047, 1.1634 0.5306 0.7047, 1.158 0.5192 0.7047, 1.1514 0.512 0.7047, 1.1391 0.5018 0.7047, 1.1168 0.488 0.7047, 1.103 0.4838 0.7047, 1.0824 0.4824 0.7047, 1.0705 0.4832 0.7047, 1.0552 0.487 0.7047, 1.0422 0.494 0.7047, 1.0293 0.5054 0.7047, 1.0217 0.5164 0.7047, 1.0151 0.5334 0.7047, 1.0114 0.5517 0.7047, 1.0113 0.5869 0.7047, 1.016 0.6103 0.7047, 1.0264 0.6335 0.7047, 1.0357 0.6452 0.7047, 1.0558 0.6608 0.7047, 1.0496 0.7005 0.7047, 1.0592 0.6869 0.7047, 1.0382 0.7171 0.7047, 1.0297 0.7355 0.7047, 1.0237 0.7601 0.7047, 1.0237 0.7817 0.7047, 1.0286 0.802 0.7047, 1.0371 0.8183 0.7047, 1.0448 0.827 0.7047, 1.0528 0.8325 0.7047, 1.0637 0.8364 0.7047, 1.0686 0.8368 0.7047, 1.0765 0.8363 0.7047, 1.0835 0.8339 0.7047, 1.0918 0.8286 0.7047, 1.1012 0.8184 0.7047, 1.1064 0.8086 0.7047, 1.1104 0.7938 0.7047, 1.113 0.7701 0.7047, 1.1112 0.7482 0.7047, 1.1071 0.7353 0.7047, 1.0984 0.7208 0.7047, 1.0829 0.7025 0.7047, 0.9249 0.8516 0.7008, 0.9299 0.8426 0.7008, 0.9249 0.8516 0.7047, 0.9299 0.8426 0.7047, 0.9339 0.876 0.7008, 0.9339 0.876 0.7047, 0.9424 0.876 0.7008, 0.9424 0.876 0.7047, 0.9424 0.7248 0.7008, 0.9424 0.7248 0.7047, 0.9317 0.7248 0.7008, 0.9317 0.7248 0.7047, 0.8818 0.8636 0.7008, 0.8818 0.8636 0.7047, 0.892 0.8611 0.7047, 0.892 0.8611 0.7008, 0.8999 0.8572 0.7047, 0.8999 0.8572 0.7008, 0.9074 0.851 0.7047, 0.9074 0.851 0.7008, 0.914 0.8422 0.7047, 0.914 0.8422 0.7008, 0.9225 0.8228 0.7047, 0.9225 0.8228 0.7008, 0.9294 0.7878 0.7047, 0.9294 0.7878 0.7008, 0.811 0.6715 0.7008, 0.811 0.6715 0.7047, 0.8103 0.6843 0.7047, 0.8103 0.6843 0.7008, 0.8131 0.7616 0.7047, 0.8131 0.7616 0.7008, 0.8182 0.7911 0.7047, 0.8182 0.7911 0.7008, 0.8315 0.8292 0.7047, 0.8315 0.8292 0.7008, 0.8412 0.8445 0.7047, 0.8412 0.8445 0.7008, 0.8504 0.8535 0.7047, 0.8504 0.8535 0.7008, 0.8599 0.8594 0.7047, 0.8599 0.8594 0.7008, 0.8701 0.8628 0.7047, 0.8701 0.8628 0.7008, 0.8773 0.5345 0.7008, 0.8773 0.5345 0.7047, 0.8702 0.5352 0.7047, 0.8702 0.5352 0.7008, 0.8626 0.5373 0.7047, 0.8626 0.5373 0.7008, 0.8553 0.5414 0.7047, 0.8553 0.5414 0.7008, 0.8474 0.5483 0.7047, 0.8474 0.5483 0.7008, 0.8412 0.5557 0.7047, 0.8412 0.5557 0.7008, 0.831 0.5731 0.7047, 0.831 0.5731 0.7008, 0.8221 0.602 0.7047, 0.8221 0.602 0.7008, 0.939 0.6257 0.7008, 0.939 0.6257 0.7047, 0.9365 0.609 0.7047, 0.9365 0.609 0.7008, 0.9284 0.5716 0.7047, 0.9284 0.5716 0.7008, 0.921 0.5569 0.7047, 0.921 0.5569 0.7008, 0.9127 0.5473 0.7047, 0.9127 0.5473 0.7008, 0.9025 0.5401 0.7047, 0.9025 0.5401 0.7008, 0.89 0.5355 0.7047, 0.89 0.5355 0.7008, 0.9418 0.6557 0.7008, 0.9418 0.6557 0.7047, 0.9509 0.6552 0.7008, 0.9509 0.6552 0.7047, 0.8852 0.5158 0.7008, 0.8852 0.5158 0.7047, 0.897 0.5176 0.7047, 0.897 0.5176 0.7008, 0.9108 0.5236 0.7047, 0.9108 0.5236 0.7008, 0.9231 0.5332 0.7047, 0.9231 0.5332 0.7008, 0.9324 0.5458 0.7047, 0.9324 0.5458 0.7008, 0.9405 0.5633 0.7047, 0.9405 0.5633 0.7008, 0.9484 0.6042 0.7047, 0.9484 0.6042 0.7008, 0.798 0.7594 0.7008, 0.798 0.7594 0.7047, 0.7947 0.7188 0.7047, 0.7947 0.7188 0.7008, 0.7982 0.6452 0.7047, 0.7982 0.6452 0.7008, 0.8044 0.6068 0.7047, 0.8044 0.6068 0.7008, 0.8202 0.5594 0.7047, 0.8202 0.5594 0.7008, 0.8332 0.5383 0.7047, 0.8332 0.5383 0.7008, 0.8426 0.5286 0.7047, 0.8426 0.5286 0.7008, 0.8557 0.521 0.7047, 0.8557 0.521 0.7008, 0.8707 0.5163 0.7047, 0.8707 0.5163 0.7008, 0.8773 0.8822 0.7008, 0.8773 0.8822 0.7047, 0.8754 0.8822 0.7047, 0.8754 0.8822 0.7008, 0.8653 0.8816 0.7047, 0.8653 0.8816 0.7008, 0.8582 0.8792 0.7047, 0.8582 0.8792 0.7008, 0.8446 0.8708 0.7047, 0.8446 0.8708 0.7008, 0.8315 0.8586 0.7047, 0.8315 0.8586 0.7008, 0.8208 0.8425 0.7047, 0.8208 0.8425 0.7008, 0.8083 0.8101 0.7047, 0.8083 0.8101 0.7008, 0.9183 0.8604 0.7047, 0.9183 0.8604 0.7008, 0.907 0.8706 0.7047, 0.907 0.8706 0.7008, 0.894 0.8779 0.7047, 0.894 0.8779 0.7008, -0.2338 0.4394 -0.6693, -0.2322 0.4513 -0.6693, -0.2188 0.4541 -0.6693, -0.2561 0.357 -0.6693, -0.2566 0.3616 -0.6693, -0.2498 0.3629 -0.6693, -0.1876 0.4506 -0.6693, -0.1975 0.4645 -0.6693, -0.1883 0.4557 -0.6693, -0.206 0.4587 -0.6693, -0.2091 0.4571 -0.6693, -0.2101 0.5511 -0.6693, -0.1747 0.438 -0.6693, -0.1707 0.421 -0.6693, -0.1689 0.413 -0.6693, -0.1676 0.368 -0.6693, -0.1666 0.4051 -0.6693, -0.1642 0.3986 -0.6693, -0.159 0.3884 -0.6693, -0.1589 0.3878 -0.6693, -0.1588 0.3871 -0.6693, -0.1591 0.3836 -0.6693, -0.1592 0.3822 -0.6693, -0.2573 0.3888 -0.6693, -0.2556 0.3918 -0.6693, -0.2447 0.3888 -0.6693, -0.2511 0.4067 -0.6693, -0.2474 0.4217 -0.6693, -0.2124 0.5838 -0.6693, -0.2077 0.5838 -0.6693, -0.2583 0.3758 -0.6693, -0.2588 0.3824 -0.6693, -0.162 0.3925 -0.6693, -0.1606 0.3904 -0.6693, -0.1594 0.389 -0.6693, -0.2518 0.3548 -0.6693, -0.2523 0.3536 -0.6693, -0.2557 0.3534 -0.6693, -0.2527 0.3528 -0.6693, -0.1594 0.3785 -0.6693, -0.1608 0.3633 -0.6693, -0.1652 0.3544 -0.6693, -0.1615 0.3575 -0.6693, -0.1616 0.3557 -0.6693, -0.1618 0.3544 -0.6693, -0.162 0.3536 -0.6693, -0.165 0.3537 -0.6693, -0.1621 0.353 -0.6693, -0.1623 0.3526 -0.6693, -0.2586 0.3855 -0.6693, -0.2579 0.3876 -0.6693, -0.2531 0.3522 -0.6693, -0.2534 0.3519 -0.6693, -0.2555 0.3526 -0.6693, -0.2551 0.3519 -0.6693, -0.1625 0.3524 -0.6693, -0.1635 0.352 -0.6693, -0.1637 0.3521 -0.6693, -0.164 0.3522 -0.6693, -0.1627 0.3522 -0.6693, -0.163 0.3521 -0.6693, -0.1632 0.352 -0.6693, -0.1643 0.3525 -0.6693, -0.1646 0.3529 -0.6693, -0.2538 0.3516 -0.6693, -0.2541 0.3515 -0.6693, -0.2549 0.3517 -0.6693, -0.2543 0.3515 -0.6693, -0.2547 0.3516 -0.6693, -0.2546 0.3515 -0.6693, -0.1876 0.4506 -0.7087, -0.1676 0.368 -0.7087, -0.1661 0.3594 -0.7087, -0.1652 0.3544 -0.7087, -0.1615 0.3575 -0.7087, -0.1616 0.3557 -0.7087, -0.1618 0.3544 -0.7087, -0.162 0.3536 -0.7087, -0.1621 0.353 -0.7087, -0.1623 0.3526 -0.7087, -0.1625 0.3524 -0.7087, -0.1627 0.3522 -0.7087, -0.163 0.3521 -0.7087, -0.1632 0.352 -0.7087, -0.1635 0.352 -0.7087, -0.1637 0.3521 -0.7087, -0.164 0.3522 -0.7087, -0.1643 0.3525 -0.7087, -0.1646 0.3529 -0.7087, -0.165 0.3537 -0.7087, -0.1613 0.3594 -0.7087, -0.1608 0.3633 -0.7087, -0.1594 0.3785 -0.7087, -0.1642 0.3986 -0.7087, -0.162 0.3925 -0.7087, -0.1606 0.3904 -0.7087, -0.1594 0.389 -0.7087, -0.159 0.3884 -0.7087, -0.1589 0.3878 -0.7087, -0.1588 0.3871 -0.7087, -0.1591 0.3836 -0.7087, -0.1592 0.3822 -0.7087, -0.1666 0.4051 -0.7087, -0.1707 0.421 -0.7087, -0.1689 0.413 -0.7087, -0.1747 0.438 -0.7087, -0.2077 0.5838 -0.7087, -0.2124 0.5838 -0.7087, -0.2474 0.4217 -0.7087, -0.2556 0.3918 -0.7087, -0.2511 0.4067 -0.7087, -0.2573 0.3888 -0.7087, -0.2583 0.3758 -0.7087, -0.2588 0.3824 -0.7087, -0.2586 0.3855 -0.7087, -0.2579 0.3876 -0.7087, -0.2566 0.3616 -0.7087, -0.2564 0.3594 -0.7087, -0.2561 0.357 -0.7087, -0.2557 0.3534 -0.7087, -0.2555 0.3526 -0.7087, -0.2551 0.3519 -0.7087, -0.2549 0.3517 -0.7087, -0.2547 0.3516 -0.7087, -0.2546 0.3515 -0.7087, -0.2543 0.3515 -0.7087, -0.2541 0.3515 -0.7087, -0.2538 0.3516 -0.7087, -0.2534 0.3519 -0.7087, -0.2531 0.3522 -0.7087, -0.2527 0.3528 -0.7087, -0.2523 0.3536 -0.7087, -0.2518 0.3548 -0.7087, -0.2507 0.3594 -0.7087, -0.2498 0.3629 -0.7087, -0.2447 0.3888 -0.7087, -0.2338 0.4394 -0.7087, -0.1883 0.4557 -0.7087, -0.1975 0.4645 -0.7087, -0.2101 0.5511 -0.7087, -0.2322 0.4513 -0.7087, -0.2188 0.4541 -0.7087, -0.2091 0.4571 -0.7087, -0.206 0.4587 -0.7087, -0.3833 0.5694 -0.6693, -0.3828 0.5699 -0.6693, -0.3766 0.5688 -0.6693, -0.361 0.5573 -0.6693, -0.3695 0.5688 -0.6693, -0.3818 0.3718 -0.6693, -0.3826 0.3727 -0.6693, -0.3807 0.3769 -0.6693, -0.3832 0.3734 -0.6693, -0.3836 0.374 -0.6693, -0.3698 0.3601 -0.6693, -0.3746 0.3641 -0.6693, -0.3777 0.3674 -0.6693, -0.3558 0.3774 -0.6693, -0.3505 0.3775 -0.6693, -0.3569 0.3636 -0.6693, -0.2982 0.384 -0.6693, -0.304 0.3769 -0.6693, -0.312 0.385 -0.6693, -0.3098 0.3723 -0.6693, -0.3175 0.3825 -0.6693, -0.3146 0.37 -0.6693, -0.3251 0.3806 -0.6693, -0.3263 0.3673 -0.6693, -0.3356 0.3793 -0.6693, -0.3253 0.5644 -0.6693, -0.3401 0.5633 -0.6693, -0.3363 0.5757 -0.6693, -0.3672 0.3593 -0.6693, -0.3661 0.36 -0.6693, -0.3625 0.3621 -0.6693, -0.3705 0.3769 -0.6693, -0.3666 0.5693 -0.6693, -0.3637 0.5699 -0.6693, -0.3546 0.56 -0.6693, -0.3566 0.5705 -0.6693, -0.3437 0.5742 -0.6693, -0.375 0.5573 -0.6693, -0.3811 0.5624 -0.6693, -0.3825 0.5635 -0.6693, -0.3834 0.5645 -0.6693, -0.3837 0.5689 -0.6693, -0.384 0.5683 -0.6693, -0.361 0.3775 -0.6693, -0.3705 0.5549 -0.6693, -0.3728 0.556 -0.6693, -0.3838 0.3745 -0.6693, -0.3839 0.3748 -0.6693, -0.384 0.3751 -0.6693, -0.3828 0.3769 -0.6693, -0.3836 0.3762 -0.6693, -0.3828 0.3769 -0.6693, -0.3835 0.3764 -0.6693, -0.3831 0.3768 -0.6693, -0.3833 0.3767 -0.6693, -0.3675 0.3592 -0.6693, -0.3682 0.3593 -0.6693, -0.3687 0.3594 -0.6693, -0.3842 0.5674 -0.6693, -0.3839 0.5654 -0.6693, -0.3842 0.5665 -0.6693, -0.342 0.3653 -0.6693, -0.3079 0.3882 -0.6693, -0.304 0.3932 -0.6693, -0.2915 0.3962 -0.6693, -0.297 0.4093 -0.6693, -0.2848 0.4198 -0.6693, -0.3821 0.377 -0.6693, -0.3839 0.3754 -0.6693, -0.3288 0.5763 -0.6693, -0.3182 0.5756 -0.6693, -0.317 0.5629 -0.6693, -0.3103 0.5737 -0.6693, -0.3101 0.5603 -0.6693, -0.3044 0.5706 -0.6693, -0.3062 0.5575 -0.6693, -0.2993 0.5662 -0.6693, -0.3018 0.5524 -0.6693, -0.2939 0.5588 -0.6693, -0.298 0.5451 -0.6693, -0.2889 0.5469 -0.6693, -0.295 0.5348 -0.6693, -0.2815 0.4587 -0.6693, -0.2914 0.4437 -0.6693, -0.291 0.4886 -0.6693, -0.2834 0.512 -0.6693, -0.3705 0.5549 -0.7087, -0.3705 0.3769 -0.7087, -0.3807 0.3769 -0.7087, -0.3818 0.3718 -0.7087, -0.3826 0.3727 -0.7087, -0.3832 0.3734 -0.7087, -0.3836 0.374 -0.7087, -0.3838 0.3745 -0.7087, -0.3839 0.3748 -0.7087, -0.384 0.3751 -0.7087, -0.3839 0.3754 -0.7087, -0.3836 0.3762 -0.7087, -0.3835 0.3764 -0.7087, -0.3833 0.3767 -0.7087, -0.3831 0.3768 -0.7087, -0.3828 0.3769 -0.7087, -0.3828 0.3769 -0.7087, -0.3821 0.377 -0.7087, -0.3777 0.3674 -0.7087, -0.3687 0.3594 -0.7087, -0.3682 0.3593 -0.7087, -0.3675 0.3592 -0.7087, -0.3687 0.3594 -0.7087, -0.3698 0.3601 -0.7087, -0.3746 0.3641 -0.7087, -0.3569 0.3636 -0.7087, -0.3625 0.3621 -0.7087, -0.3661 0.36 -0.7087, -0.367 0.3594 -0.7087, -0.3672 0.3593 -0.7087, -0.342 0.3653 -0.7087, -0.2815 0.4587 -0.7087, -0.2848 0.4198 -0.7087, -0.2915 0.3962 -0.7087, -0.2982 0.384 -0.7087, -0.304 0.3769 -0.7087, -0.3098 0.3723 -0.7087, -0.3146 0.37 -0.7087, -0.3263 0.3673 -0.7087, -0.3288 0.5763 -0.7087, -0.3182 0.5756 -0.7087, -0.3103 0.5737 -0.7087, -0.3044 0.5706 -0.7087, -0.2993 0.5662 -0.7087, -0.2939 0.5588 -0.7087, -0.2889 0.5469 -0.7087, -0.2834 0.512 -0.7087, -0.3437 0.5742 -0.7087, -0.3363 0.5757 -0.7087, -0.3566 0.5705 -0.7087, -0.3637 0.5699 -0.7087, -0.3695 0.5688 -0.7087, -0.3666 0.5693 -0.7087, -0.3766 0.5688 -0.7087, -0.3828 0.5699 -0.7087, -0.3811 0.5624 -0.7087, -0.3825 0.5635 -0.7087, -0.3834 0.5645 -0.7087, -0.3839 0.5654 -0.7087, -0.3842 0.5665 -0.7087, -0.3842 0.5674 -0.7087, -0.384 0.5683 -0.7087, -0.3837 0.5689 -0.7087, -0.3833 0.5694 -0.7087, -0.375 0.5573 -0.7087, -0.3728 0.556 -0.7087, -0.361 0.3775 -0.7087, -0.361 0.5573 -0.7087, -0.3558 0.3774 -0.7087, -0.3505 0.3775 -0.7087, -0.3356 0.3793 -0.7087, -0.3251 0.3806 -0.7087, -0.3175 0.3825 -0.7087, -0.312 0.385 -0.7087, -0.3079 0.3882 -0.7087, -0.304 0.3932 -0.7087, -0.297 0.4093 -0.7087, -0.2914 0.4437 -0.7087, -0.291 0.4886 -0.7087, -0.295 0.5348 -0.7087, -0.298 0.5451 -0.7087, -0.3018 0.5524 -0.7087, -0.3062 0.5575 -0.7087, -0.3101 0.5603 -0.7087, -0.317 0.5629 -0.7087, -0.3253 0.5644 -0.7087, -0.3401 0.5633 -0.7087, -0.3546 0.56 -0.7087, -0.4831 0.5556 -0.6693, -0.4403 0.5627 -0.6693, -0.4831 0.5556 -0.7087, -0.4403 0.5627 -0.7087, -0.4243 0.5647 -0.6693, -0.4243 0.5647 -0.7087, -0.4323 0.5637 -0.7087, -0.4323 0.5637 -0.6693, -0.4189 0.5654 -0.6693, -0.4189 0.5654 -0.7087, -0.4172 0.5709 -0.6693, -0.4172 0.5709 -0.7087, -0.4165 0.5698 -0.7087, -0.4165 0.5698 -0.6693, -0.4161 0.5689 -0.7087, -0.4161 0.5689 -0.6693, -0.4159 0.5683 -0.7087, -0.4159 0.5683 -0.6693, -0.4158 0.5678 -0.7087, -0.4158 0.5678 -0.6693, -0.4159 0.5674 -0.7087, -0.4159 0.5674 -0.6693, -0.416 0.5669 -0.7087, -0.416 0.5669 -0.6693, -0.4163 0.5665 -0.7087, -0.4163 0.5665 -0.6693, -0.4167 0.5661 -0.7087, -0.4167 0.5661 -0.6693, -0.4173 0.5657 -0.7087, -0.4173 0.5657 -0.6693, -0.4179 0.5655 -0.7087, -0.4179 0.5655 -0.6693, -0.427 0.581 -0.6693, -0.427 0.581 -0.7087, -0.4301 0.579 -0.6693, -0.4301 0.579 -0.7087, -0.4528 0.5722 -0.6693, -0.4528 0.5722 -0.7087, -0.4411 0.5746 -0.7087, -0.4411 0.5746 -0.6693, -0.4318 0.578 -0.7087, -0.4318 0.578 -0.6693, -0.4661 0.5699 -0.6693, -0.4661 0.5699 -0.7087, -0.4794 0.5688 -0.6693, -0.4794 0.5688 -0.7087, -0.4727 0.5689 -0.7087, -0.4727 0.5689 -0.6693, -0.4804 0.5688 -0.6693, -0.4804 0.5688 -0.7087, -0.4919 0.5695 -0.6693, -0.4919 0.5695 -0.7087, -0.4862 0.5688 -0.7087, -0.4862 0.5688 -0.6693, -0.4984 0.5705 -0.6693, -0.4984 0.5705 -0.7087, -0.493 0.5556 -0.6693, -0.493 0.5556 -0.7087, -0.4966 0.5598 -0.7087, -0.4966 0.5598 -0.6693, -0.4988 0.5625 -0.7087, -0.4988 0.5625 -0.6693, -0.5002 0.5644 -0.7087, -0.5002 0.5644 -0.6693, -0.5009 0.5659 -0.7087, -0.5009 0.5659 -0.6693, -0.5013 0.5672 -0.7087, -0.5013 0.5672 -0.6693, -0.5013 0.5682 -0.7087, -0.5013 0.5682 -0.6693, -0.5014 0.5689 -0.7087, -0.5014 0.5689 -0.6693, -0.5014 0.5696 -0.7087, -0.5014 0.5696 -0.6693, -0.5013 0.5698 -0.7087, -0.5013 0.5698 -0.6693, -0.5012 0.57 -0.7087, -0.5012 0.57 -0.6693, -0.501 0.5702 -0.7087, -0.501 0.5702 -0.6693, -0.5007 0.5704 -0.7087, -0.5007 0.5704 -0.6693, -0.5002 0.5706 -0.7087, -0.5002 0.5706 -0.6693, -0.4996 0.5707 -0.7087, -0.4996 0.5707 -0.6693, -0.4926 0.4 -0.6693, -0.4926 0.4 -0.7087, -0.493 0.3915 -0.6693, -0.493 0.3915 -0.7087, -0.4927 0.3957 -0.7087, -0.4927 0.3957 -0.6693, -0.493 0.385 -0.6693, -0.493 0.385 -0.7087, -0.496 0.3677 -0.6693, -0.496 0.3677 -0.7087, -0.4938 0.3762 -0.7087, -0.4938 0.3762 -0.6693, -0.4844 0.3629 -0.6693, -0.4844 0.3629 -0.7087, -0.4882 0.3616 -0.7087, -0.4882 0.3616 -0.6693, -0.4904 0.361 -0.7087, -0.4904 0.361 -0.6693, -0.492 0.3609 -0.7087, -0.492 0.3609 -0.6693, -0.4932 0.361 -0.7087, -0.4932 0.361 -0.6693, -0.4942 0.3614 -0.7087, -0.4942 0.3614 -0.6693, -0.495 0.362 -0.7087, -0.495 0.362 -0.6693, -0.4955 0.3627 -0.7087, -0.4955 0.3627 -0.6693, -0.4959 0.3636 -0.7087, -0.4959 0.3636 -0.6693, -0.4962 0.3649 -0.7087, -0.4962 0.3649 -0.6693, -0.496 0.3677 -0.7087, -0.496 0.3677 -0.6693, -0.4688 0.3657 -0.6693, -0.4688 0.3657 -0.7087, -0.4175 0.3728 -0.6693, -0.4175 0.3728 -0.7087, -0.4432 0.3697 -0.7087, -0.4432 0.3697 -0.6693, -0.4124 0.3731 -0.6693, -0.4124 0.3731 -0.7087, -0.4104 0.3785 -0.6693, -0.4104 0.3785 -0.7087, -0.4095 0.3773 -0.7087, -0.4095 0.3773 -0.6693, -0.4091 0.3766 -0.7087, -0.4091 0.3766 -0.6693, -0.409 0.3759 -0.7087, -0.409 0.3759 -0.6693, -0.409 0.3753 -0.7087, -0.409 0.3753 -0.6693, -0.4092 0.3746 -0.7087, -0.4092 0.3746 -0.6693, -0.4096 0.374 -0.7087, -0.4096 0.374 -0.6693, -0.4098 0.3737 -0.7087, -0.4098 0.3737 -0.6693, -0.41 0.3735 -0.7087, -0.41 0.3735 -0.6693, -0.4104 0.3733 -0.7087, -0.4104 0.3733 -0.6693, -0.4115 0.3732 -0.7087, -0.4115 0.3732 -0.6693, -0.4199 0.3891 -0.6693, -0.4199 0.3891 -0.7087, -0.4229 0.3874 -0.6693, -0.4229 0.3874 -0.7087, -0.4324 0.384 -0.6693, -0.4324 0.384 -0.7087, -0.4275 0.3853 -0.7087, -0.4275 0.3853 -0.6693, -0.4831 0.3769 -0.6693, -0.4831 0.3769 -0.7087, -0.4831 0.4689 -0.6693, -0.4831 0.4689 -0.7087, -0.4206 0.4778 -0.6693, -0.4206 0.4778 -0.7087, -0.4189 0.4835 -0.6693, -0.4189 0.4835 -0.7087, -0.4181 0.4826 -0.7087, -0.4181 0.4826 -0.6693, -0.4177 0.4818 -0.7087, -0.4177 0.4818 -0.6693, -0.4174 0.4811 -0.7087, -0.4174 0.4811 -0.6693, -0.4173 0.4805 -0.7087, -0.4173 0.4805 -0.6693, -0.4174 0.4799 -0.7087, -0.4174 0.4799 -0.6693, -0.4176 0.4793 -0.7087, -0.4176 0.4793 -0.6693, -0.418 0.4788 -0.7087, -0.418 0.4788 -0.6693, -0.4185 0.4783 -0.7087, -0.4185 0.4783 -0.6693, -0.4189 0.4781 -0.7087, -0.4189 0.4781 -0.6693, -0.4196 0.4778 -0.7087, -0.4196 0.4778 -0.6693, -0.4287 0.4934 -0.6693, -0.4287 0.4934 -0.7087, -0.4318 0.4917 -0.6693, -0.4318 0.4917 -0.7087, -0.4545 0.4846 -0.6693, -0.4545 0.4846 -0.7087, -0.4428 0.4869 -0.7087, -0.4428 0.4869 -0.6693, -0.4352 0.4896 -0.7087, -0.4352 0.4896 -0.6693, -0.4831 0.4808 -0.6693, -0.4831 0.4808 -0.7087, -0.5423 0.5559 -0.6693, -0.5453 0.5614 -0.6693, -0.5423 0.5559 -0.7087, -0.5453 0.5614 -0.7087, -0.5739 0.5797 -0.6693, -0.5739 0.5797 -0.7087, -0.564 0.5771 -0.7087, -0.564 0.5771 -0.6693, -0.5564 0.573 -0.7087, -0.5564 0.573 -0.6693, -0.5491 0.5664 -0.7087, -0.5491 0.5664 -0.6693, -0.6215 0.506 -0.6693, -0.6215 0.506 -0.7087, -0.6132 0.543 -0.7087, -0.6132 0.543 -0.6693, -0.6049 0.5608 -0.7087, -0.6049 0.5608 -0.6693, -0.5977 0.5694 -0.7087, -0.5977 0.5694 -0.6693, -0.5886 0.5762 -0.7087, -0.5886 0.5762 -0.6693, -0.5835 0.5786 -0.7087, -0.5835 0.5786 -0.6693, -0.5786 0.5796 -0.7087, -0.5786 0.5796 -0.6693, -0.5692 0.3599 -0.6693, -0.5692 0.3599 -0.7087, -0.5789 0.3604 -0.7087, -0.5789 0.3604 -0.6693, -0.5881 0.3635 -0.7087, -0.5881 0.3635 -0.6693, -0.595 0.3678 -0.7087, -0.595 0.3678 -0.6693, -0.6008 0.3738 -0.7087, -0.6008 0.3738 -0.6693, -0.6081 0.3859 -0.7087, -0.6081 0.3859 -0.6693, -0.6174 0.4134 -0.7087, -0.6174 0.4134 -0.6693, -0.6217 0.4408 -0.7087, -0.6217 0.4408 -0.6693, -0.6229 0.492 -0.7087, -0.6229 0.492 -0.6693, -0.5297 0.4435 -0.6693, -0.5297 0.4435 -0.7087, -0.5322 0.4039 -0.7087, -0.5322 0.4039 -0.6693, -0.5364 0.3872 -0.7087, -0.5364 0.3872 -0.6693, -0.5418 0.3762 -0.7087, -0.5418 0.3762 -0.6693, -0.5477 0.3691 -0.7087, -0.5477 0.3691 -0.6693, -0.5552 0.3637 -0.7087, -0.5552 0.3637 -0.6693, -0.5634 0.3606 -0.7087, -0.5634 0.3606 -0.6693, -0.5352 0.4438 -0.6693, -0.5352 0.4438 -0.7087, -0.5369 0.4258 -0.6693, -0.5369 0.4258 -0.7087, -0.5739 0.3711 -0.6693, -0.5739 0.3711 -0.7087, -0.5662 0.3717 -0.7087, -0.5662 0.3717 -0.6693, -0.5588 0.3744 -0.7087, -0.5588 0.3744 -0.6693, -0.5529 0.3785 -0.7087, -0.5529 0.3785 -0.6693, -0.5481 0.3839 -0.7087, -0.5481 0.3839 -0.6693, -0.5438 0.392 -0.7087, -0.5438 0.392 -0.6693, -0.539 0.4115 -0.7087, -0.539 0.4115 -0.6693, -0.6137 0.4533 -0.6693, -0.6137 0.4533 -0.7087, -0.6052 0.4047 -0.7087, -0.6052 0.4047 -0.6693, -0.5999 0.3906 -0.7087, -0.5999 0.3906 -0.6693, -0.5929 0.3806 -0.7087, -0.5929 0.3806 -0.6693, -0.588 0.3759 -0.7087, -0.588 0.3759 -0.6693, -0.5836 0.3731 -0.7087, -0.5836 0.3731 -0.6693, -0.5792 0.3717 -0.7087, -0.5792 0.3717 -0.6693, -0.5712 0.5685 -0.6693, -0.5712 0.5685 -0.7087, -0.5783 0.5681 -0.7087, -0.5783 0.5681 -0.6693, -0.5843 0.566 -0.7087, -0.5843 0.566 -0.6693, -0.5901 0.5624 -0.7087, -0.5901 0.5624 -0.6693, -0.5957 0.5568 -0.7087, -0.5957 0.5568 -0.6693, -0.6016 0.5475 -0.7087, -0.6016 0.5475 -0.6693, -0.6094 0.5248 -0.7087, -0.6094 0.5248 -0.6693, -0.6123 0.508 -0.7087, -0.6123 0.508 -0.6693, -0.5413 0.4853 -0.6693, -0.5413 0.4853 -0.7087, -0.5441 0.5331 -0.7087, -0.5441 0.5331 -0.6693, -0.5484 0.5486 -0.7087, -0.5484 0.5486 -0.6693, -0.5529 0.5573 -0.7087, -0.5529 0.5573 -0.6693, -0.5571 0.5621 -0.7087, -0.5571 0.5621 -0.6693, -0.5625 0.5659 -0.7087, -0.5625 0.5659 -0.6693, -0.5676 0.5678 -0.7087, -0.5676 0.5678 -0.6693, -0.5348 0.4853 -0.6693, -0.5348 0.4853 -0.7087, -0.5348 0.576 -0.6693, -0.5348 0.576 -0.7087, -0.5399 0.576 -0.6693, -0.5399 0.576 -0.7087, -0.7254 0.5858 -0.6693, -0.7247 0.5824 -0.6693, -0.7254 0.5858 -0.7087, -0.7247 0.5824 -0.7087, -0.722 0.5495 -0.6693, -0.722 0.5495 -0.7087, -0.7223 0.5661 -0.7087, -0.7223 0.5661 -0.6693, -0.722 0.3966 -0.6693, -0.722 0.3966 -0.7087, -0.7227 0.3765 -0.6693, -0.7227 0.3765 -0.7087, -0.7183 0.3619 -0.6693, -0.7183 0.3619 -0.7087, -0.7207 0.3614 -0.7087, -0.7207 0.3614 -0.6693, -0.7215 0.3614 -0.7087, -0.7215 0.3614 -0.6693, -0.722 0.3616 -0.7087, -0.722 0.3616 -0.6693, -0.7224 0.3618 -0.7087, -0.7224 0.3618 -0.6693, -0.7228 0.3621 -0.7087, -0.7228 0.3621 -0.6693, -0.7232 0.3626 -0.7087, -0.7232 0.3626 -0.6693, -0.7237 0.3635 -0.7087, -0.7237 0.3635 -0.6693, -0.7238 0.3643 -0.7087, -0.7238 0.3643 -0.6693, -0.7238 0.3663 -0.7087, -0.7238 0.3663 -0.6693, -0.7227 0.376 -0.7087, -0.7227 0.376 -0.6693, -0.7104 0.3626 -0.6693, -0.7104 0.3626 -0.7087, -0.6962 0.3639 -0.6693, -0.6962 0.3639 -0.7087, -0.6486 0.3701 -0.6693, -0.6486 0.3701 -0.7087, -0.649 0.3693 -0.7087, -0.649 0.3693 -0.6693, -0.6493 0.369 -0.7087, -0.6493 0.369 -0.6693, -0.6498 0.3687 -0.7087, -0.6498 0.3687 -0.6693, -0.6507 0.3683 -0.7087, -0.6507 0.3683 -0.6693, -0.6514 0.3682 -0.7087, -0.6514 0.3682 -0.6693, -0.6565 0.3682 -0.7087, -0.6565 0.3682 -0.6693, -0.6705 0.3662 -0.7087, -0.6705 0.3662 -0.6693, -0.6764 0.3656 -0.7087, -0.6764 0.3656 -0.6693, -0.6626 0.3853 -0.6693, -0.6626 0.3853 -0.7087, -0.6547 0.3783 -0.7087, -0.6547 0.3783 -0.6693, -0.6509 0.3749 -0.7087, -0.6509 0.3749 -0.6693, -0.6498 0.3737 -0.7087, -0.6498 0.3737 -0.6693, -0.6493 0.3728 -0.7087, -0.6493 0.3728 -0.6693, -0.6488 0.3713 -0.7087, -0.6488 0.3713 -0.6693, -0.7132 0.3752 -0.6693, -0.7132 0.3752 -0.7087, -0.687 0.3773 -0.7087, -0.687 0.3773 -0.6693, -0.6746 0.3793 -0.7087, -0.6746 0.3793 -0.6693, -0.6701 0.3804 -0.7087, -0.6701 0.3804 -0.6693, -0.6675 0.3817 -0.7087, -0.6675 0.3817 -0.6693, -0.664 0.3847 -0.7087, -0.664 0.3847 -0.6693, -0.7132 0.5484 -0.6693, -0.7132 0.5484 -0.7087, -0.7081 0.5699 -0.6693, -0.7081 0.5699 -0.7087, -0.7117 0.5623 -0.7087, -0.7117 0.5623 -0.6693, -0.7131 0.5526 -0.7087, -0.7131 0.5526 -0.6693, -0.723 0.5885 -0.6693, -0.723 0.5885 -0.7087, -0.723 0.5885 -0.7087
            ]
        }
        coordIndex [
            0,1,2,-1,2,1,3,-1,4,0,5,-1,5,0,2,-1,6,4,7,-1,7,4,5,-1,6,7,8,-1,8,7,9,-1,8,9,10,-1,10,9,11,-1,10,11,12,-1,12,11,13,-1,12,13,14,-1,14,13,15,-1,14,15,16,-1,16,15,17,-1,16,17,18,-1,18,17,19,-1,18,19,20,-1,20,19,21,-1,22,20,23,-1,23,20,21,-1,24,25,26,-1,26,25,27,-1,24,26,28,-1,24,28,29,-1,29,28,30,-1,29,30,31,-1,31,30,32,-1,31,32,33,-1,33,32,34,-1,33,34,35,-1,35,34,36,-1,35,36,37,-1,37,36,38,-1,37,38,39,-1,39,38,3,-1,39,3,1,-1,22,25,20,-1,20,25,24,-1,20,24,18,-1,18,24,29,-1,18,29,16,-1,16,29,31,-1,16,31,14,-1,14,31,33,-1,14,33,12,-1,12,33,35,-1,12,35,10,-1,10,35,37,-1,10,37,8,-1,8,37,39,-1,8,39,6,-1,6,39,1,-1,6,1,4,-1,4,1,0,-1,5,2,7,-1,7,2,3,-1,7,3,9,-1,9,3,38,-1,9,38,11,-1,11,38,36,-1,11,36,13,-1,13,36,34,-1,13,34,15,-1,15,34,32,-1,15,32,17,-1,17,32,30,-1,17,30,19,-1,19,30,28,-1,19,28,21,-1,21,28,26,-1,21,26,23,-1,23,26,27,-1,40,41,42,-1,42,41,43,-1,44,40,45,-1,45,40,42,-1,46,44,47,-1,47,44,45,-1,46,47,48,-1,48,47,49,-1,48,49,50,-1,50,49,51,-1,50,51,52,-1,52,51,53,-1,52,53,54,-1,54,53,55,-1,54,55,56,-1,56,55,57,-1,56,57,58,-1,58,57,59,-1,58,59,60,-1,60,59,61,-1,62,60,63,-1,63,60,61,-1,64,65,66,-1,66,65,67,-1,64,66,68,-1,64,68,69,-1,69,68,70,-1,69,70,71,-1,71,70,72,-1,71,72,73,-1,73,72,74,-1,73,74,75,-1,75,74,76,-1,75,76,77,-1,77,76,78,-1,77,78,79,-1,79,78,43,-1,79,43,41,-1,62,65,60,-1,60,65,64,-1,60,64,58,-1,58,64,69,-1,58,69,56,-1,56,69,71,-1,56,71,54,-1,54,71,73,-1,54,73,52,-1,52,73,75,-1,52,75,50,-1,50,75,77,-1,50,77,48,-1,48,77,79,-1,48,79,46,-1,46,79,41,-1,46,41,44,-1,44,41,40,-1,45,42,47,-1,47,42,43,-1,47,43,49,-1,49,43,78,-1,49,78,51,-1,51,78,76,-1,51,76,53,-1,53,76,74,-1,53,74,55,-1,55,74,72,-1,55,72,57,-1,57,72,70,-1,57,70,59,-1,59,70,68,-1,59,68,61,-1,61,68,66,-1,61,66,63,-1,63,66,67,-1,80,81,82,-1,82,81,83,-1,81,84,83,-1,83,84,85,-1,84,86,85,-1,85,86,87,-1,86,88,87,-1,87,88,89,-1,90,91,92,-1,92,91,93,-1,91,94,93,-1,93,94,95,-1,94,96,95,-1,95,96,97,-1,96,98,97,-1,97,98,99,-1,100,101,102,-1,102,101,103,-1,101,104,103,-1,103,104,105,-1,104,106,105,-1,105,106,107,-1,106,108,107,-1,107,108,109,-1,110,111,112,-1,112,111,113,-1,111,114,113,-1,113,114,115,-1,114,116,115,-1,115,116,117,-1,116,118,117,-1,117,118,119,-1,120,121,122,-1,122,121,123,-1,121,124,123,-1,123,124,125,-1,124,126,125,-1,125,126,127,-1,128,129,130,-1,128,130,131,-1,129,132,130,-1,130,132,133,-1,130,133,134,-1,131,130,135,-1,135,130,127,-1,135,127,126,-1,136,137,138,-1,138,139,136,-1,136,139,140,-1,136,140,141,-1,142,143,144,-1,144,143,136,-1,144,136,145,-1,145,136,141,-1,142,146,143,-1,143,146,147,-1,146,120,147,-1,147,120,122,-1,126,124,121,-1,120,146,142,-1,144,135,142,-1,142,135,126,-1,142,126,120,-1,120,126,121,-1,135,144,145,-1,135,145,131,-1,131,145,141,-1,131,141,128,-1,128,141,140,-1,128,140,129,-1,129,140,139,-1,129,139,132,-1,132,139,138,-1,132,138,133,-1,133,138,137,-1,133,137,134,-1,148,149,150,-1,150,149,151,-1,149,152,151,-1,151,152,153,-1,152,154,153,-1,153,154,155,-1,156,157,158,-1,156,158,159,-1,157,160,158,-1,158,160,161,-1,158,161,162,-1,159,158,163,-1,163,158,155,-1,163,155,154,-1,164,165,166,-1,166,167,164,-1,164,167,168,-1,164,168,169,-1,170,171,172,-1,172,171,164,-1,172,164,173,-1,173,164,169,-1,170,174,171,-1,171,174,175,-1,174,148,175,-1,175,148,150,-1,154,152,149,-1,148,174,170,-1,172,163,170,-1,170,163,154,-1,170,154,148,-1,148,154,149,-1,163,172,173,-1,163,173,159,-1,159,173,169,-1,159,169,156,-1,156,169,168,-1,156,168,157,-1,157,168,167,-1,157,167,160,-1,160,167,166,-1,160,166,161,-1,161,166,165,-1,161,165,162,-1,176,177,178,-1,178,177,179,-1,177,180,179,-1,179,180,181,-1,182,183,184,-1,182,184,185,-1,185,184,186,-1,185,186,187,-1,187,186,188,-1,187,188,189,-1,189,188,181,-1,189,181,180,-1,182,190,183,-1,183,190,191,-1,190,192,191,-1,191,192,193,-1,192,194,193,-1,193,194,195,-1,196,197,198,-1,196,198,199,-1,199,198,195,-1,199,195,194,-1,196,200,197,-1,197,200,201,-1,200,202,201,-1,201,202,203,-1,204,205,206,-1,204,206,207,-1,207,206,208,-1,207,208,209,-1,209,208,210,-1,209,210,211,-1,211,210,212,-1,211,212,213,-1,213,212,203,-1,213,203,202,-1,204,214,205,-1,205,214,215,-1,214,216,215,-1,215,216,217,-1,216,218,217,-1,217,218,219,-1,220,221,222,-1,220,222,223,-1,223,222,219,-1,223,219,218,-1,220,224,221,-1,221,224,225,-1,224,226,225,-1,225,226,227,-1,226,228,227,-1,227,228,229,-1,228,230,229,-1,229,230,231,-1,232,233,234,-1,232,234,235,-1,235,234,236,-1,235,236,237,-1,237,236,238,-1,237,238,239,-1,239,238,240,-1,239,240,241,-1,241,240,242,-1,241,242,243,-1,243,242,244,-1,243,244,245,-1,245,244,246,-1,245,246,247,-1,247,246,248,-1,247,248,249,-1,249,248,250,-1,249,250,251,-1,251,250,252,-1,251,252,253,-1,253,252,254,-1,253,254,255,-1,255,254,231,-1,255,231,230,-1,256,257,258,-1,256,258,259,-1,259,258,260,-1,259,260,261,-1,261,260,262,-1,261,262,263,-1,263,262,264,-1,263,264,265,-1,265,264,266,-1,265,266,267,-1,267,266,268,-1,267,268,269,-1,269,268,233,-1,269,233,232,-1,256,270,257,-1,257,270,271,-1,272,273,274,-1,272,274,275,-1,275,274,276,-1,275,276,277,-1,277,276,278,-1,277,278,279,-1,279,278,280,-1,279,280,281,-1,281,280,282,-1,281,282,283,-1,283,282,284,-1,283,284,285,-1,285,284,286,-1,285,286,287,-1,287,286,271,-1,287,271,270,-1,272,288,273,-1,273,288,289,-1,290,291,292,-1,290,292,293,-1,293,292,294,-1,293,294,295,-1,295,294,289,-1,295,289,288,-1,290,296,291,-1,291,296,297,-1,296,298,297,-1,297,298,299,-1,298,300,299,-1,299,300,301,-1,176,178,302,-1,176,302,303,-1,303,302,301,-1,303,301,300,-1,300,298,296,-1,189,180,224,-1,224,180,177,-1,224,177,226,-1,272,275,228,-1,228,275,277,-1,228,277,230,-1,189,199,187,-1,187,199,194,-1,187,194,185,-1,296,290,300,-1,300,290,293,-1,300,293,303,-1,303,293,295,-1,303,295,176,-1,176,295,288,-1,176,288,177,-1,177,288,272,-1,177,272,226,-1,226,272,228,-1,207,218,204,-1,204,218,216,-1,204,216,214,-1,207,209,218,-1,218,209,211,-1,218,211,223,-1,223,211,213,-1,223,213,220,-1,220,213,202,-1,220,202,224,-1,224,202,200,-1,224,200,189,-1,189,200,196,-1,189,196,199,-1,285,287,230,-1,230,287,270,-1,230,270,255,-1,255,270,256,-1,255,256,259,-1,245,247,237,-1,192,190,194,-1,194,190,182,-1,194,182,185,-1,259,261,255,-1,255,261,263,-1,255,263,265,-1,249,251,232,-1,232,251,253,-1,232,253,255,-1,249,232,247,-1,247,232,235,-1,247,235,237,-1,283,285,281,-1,281,285,230,-1,281,230,279,-1,279,230,277,-1,265,267,255,-1,255,267,269,-1,255,269,232,-1,239,241,237,-1,237,241,243,-1,237,243,245,-1,304,305,306,-1,306,305,307,-1,305,308,307,-1,307,308,309,-1,310,311,312,-1,310,312,313,-1,313,312,309,-1,313,309,308,-1,310,314,311,-1,311,314,315,-1,314,316,315,-1,315,316,317,-1,318,319,320,-1,318,320,321,-1,321,320,322,-1,321,322,323,-1,323,322,317,-1,323,317,316,-1,318,324,319,-1,319,324,325,-1,324,326,325,-1,325,326,327,-1,326,328,327,-1,327,328,329,-1,328,330,329,-1,329,330,331,-1,332,333,334,-1,332,334,335,-1,335,334,336,-1,335,336,337,-1,337,336,338,-1,337,338,339,-1,339,338,340,-1,339,340,341,-1,341,340,331,-1,341,331,330,-1,342,343,344,-1,342,344,345,-1,345,344,346,-1,345,346,347,-1,347,346,348,-1,347,348,349,-1,349,348,350,-1,349,350,351,-1,351,350,352,-1,351,352,353,-1,353,352,354,-1,353,354,355,-1,355,354,356,-1,355,356,357,-1,357,356,333,-1,357,333,332,-1,358,359,360,-1,358,360,361,-1,361,360,362,-1,361,362,363,-1,363,362,364,-1,363,364,365,-1,365,364,343,-1,365,343,342,-1,358,366,359,-1,359,366,367,-1,368,369,370,-1,368,370,371,-1,371,370,372,-1,371,372,373,-1,373,372,374,-1,373,374,375,-1,375,374,367,-1,375,367,366,-1,376,377,378,-1,376,378,379,-1,379,378,380,-1,379,380,381,-1,381,380,382,-1,381,382,383,-1,383,382,384,-1,383,384,385,-1,385,384,369,-1,385,369,368,-1,386,387,388,-1,386,388,389,-1,389,388,390,-1,389,390,391,-1,391,390,392,-1,391,392,393,-1,393,392,394,-1,393,394,395,-1,395,394,396,-1,395,396,397,-1,397,396,398,-1,397,398,399,-1,399,398,400,-1,399,400,401,-1,401,400,377,-1,401,377,376,-1,304,306,402,-1,304,402,403,-1,403,402,404,-1,403,404,405,-1,405,404,406,-1,405,406,407,-1,407,406,387,-1,407,387,386,-1,328,326,330,-1,330,326,324,-1,316,314,323,-1,323,314,310,-1,323,310,321,-1,321,310,313,-1,321,313,318,-1,318,313,308,-1,318,308,324,-1,407,408,409,-1,407,409,405,-1,405,409,410,-1,405,410,403,-1,408,407,411,-1,411,407,386,-1,411,386,412,-1,412,386,389,-1,412,389,413,-1,413,389,391,-1,413,391,414,-1,414,391,415,-1,415,391,393,-1,415,393,416,-1,416,393,395,-1,416,395,417,-1,417,395,397,-1,417,397,418,-1,418,397,399,-1,418,399,419,-1,419,399,401,-1,419,401,420,-1,420,401,376,-1,420,376,421,-1,421,376,379,-1,421,379,422,-1,422,379,381,-1,422,381,423,-1,423,381,383,-1,423,383,424,-1,424,383,385,-1,424,385,425,-1,425,385,368,-1,425,368,426,-1,426,368,371,-1,426,371,427,-1,427,371,373,-1,427,373,428,-1,428,373,375,-1,428,375,429,-1,429,375,366,-1,429,366,430,-1,403,410,304,-1,304,410,430,-1,304,430,305,-1,305,430,366,-1,305,366,431,-1,431,366,358,-1,431,358,432,-1,432,358,361,-1,432,361,433,-1,433,361,363,-1,433,363,434,-1,434,363,365,-1,434,365,435,-1,435,365,342,-1,435,342,436,-1,436,342,345,-1,436,345,437,-1,437,345,347,-1,437,347,438,-1,438,347,349,-1,438,349,439,-1,439,349,351,-1,439,351,440,-1,440,351,353,-1,440,353,441,-1,441,353,355,-1,441,355,442,-1,442,355,357,-1,442,357,443,-1,443,357,332,-1,443,332,444,-1,444,332,335,-1,444,335,445,-1,445,335,337,-1,445,337,446,-1,446,337,339,-1,446,339,447,-1,447,339,341,-1,447,341,448,-1,448,341,330,-1,448,330,449,-1,449,330,324,-1,449,324,450,-1,450,324,308,-1,450,308,431,-1,431,308,305,-1,449,450,451,-1,451,450,452,-1,449,451,453,-1,449,453,448,-1,448,453,454,-1,448,454,447,-1,447,454,455,-1,447,455,446,-1,446,455,456,-1,446,456,445,-1,445,456,457,-1,445,457,444,-1,444,457,458,-1,444,458,443,-1,443,458,459,-1,443,459,442,-1,442,459,460,-1,442,460,441,-1,441,460,461,-1,441,461,440,-1,440,461,462,-1,440,462,439,-1,439,462,463,-1,439,463,438,-1,438,463,464,-1,438,464,437,-1,437,464,465,-1,437,465,436,-1,436,465,466,-1,436,466,435,-1,435,466,467,-1,435,467,434,-1,434,467,468,-1,434,468,433,-1,433,468,469,-1,433,469,432,-1,432,469,470,-1,432,470,431,-1,450,431,452,-1,452,431,470,-1,429,430,471,-1,471,430,472,-1,429,471,473,-1,429,473,428,-1,428,473,474,-1,428,474,427,-1,427,474,475,-1,427,475,426,-1,426,475,476,-1,426,476,425,-1,425,476,477,-1,425,477,424,-1,424,477,478,-1,424,478,423,-1,423,478,479,-1,423,479,422,-1,422,479,480,-1,422,480,421,-1,421,480,481,-1,421,481,420,-1,420,481,482,-1,420,482,419,-1,419,482,483,-1,419,483,418,-1,418,483,484,-1,418,484,417,-1,417,484,485,-1,417,485,416,-1,416,485,486,-1,416,486,415,-1,415,486,487,-1,415,487,414,-1,414,487,488,-1,414,488,413,-1,413,488,489,-1,413,489,412,-1,412,489,490,-1,412,490,411,-1,411,490,491,-1,411,491,408,-1,408,491,492,-1,408,492,409,-1,409,492,493,-1,409,493,410,-1,410,493,472,-1,410,472,430,-1,465,464,458,-1,452,470,469,-1,456,455,466,-1,466,455,454,-1,465,458,466,-1,466,458,457,-1,466,457,456,-1,469,468,452,-1,452,468,467,-1,452,467,451,-1,451,467,466,-1,451,466,453,-1,453,466,454,-1,461,464,462,-1,462,464,463,-1,461,460,464,-1,464,460,459,-1,464,459,458,-1,494,495,496,-1,496,495,497,-1,495,498,497,-1,497,498,499,-1,498,500,499,-1,499,500,501,-1,500,502,501,-1,501,502,503,-1,502,504,503,-1,503,504,505,-1,506,507,508,-1,506,508,509,-1,509,508,510,-1,509,510,511,-1,511,510,512,-1,511,512,513,-1,513,512,514,-1,513,514,515,-1,515,514,516,-1,515,516,517,-1,517,516,518,-1,517,518,519,-1,519,518,505,-1,519,505,504,-1,520,521,522,-1,520,522,523,-1,523,522,524,-1,523,524,525,-1,525,524,526,-1,525,526,527,-1,527,526,528,-1,527,528,529,-1,529,528,530,-1,529,530,531,-1,531,530,532,-1,531,532,533,-1,533,532,534,-1,533,534,535,-1,535,534,536,-1,535,536,537,-1,537,536,507,-1,537,507,506,-1,538,539,540,-1,538,540,541,-1,541,540,542,-1,541,542,543,-1,543,542,544,-1,543,544,545,-1,545,544,546,-1,545,546,547,-1,547,546,548,-1,547,548,549,-1,549,548,550,-1,549,550,551,-1,551,550,552,-1,551,552,553,-1,553,552,521,-1,553,521,520,-1,554,555,556,-1,554,556,557,-1,557,556,558,-1,557,558,559,-1,559,558,560,-1,559,560,561,-1,561,560,562,-1,561,562,563,-1,563,562,564,-1,563,564,565,-1,565,564,566,-1,565,566,567,-1,567,566,539,-1,567,539,538,-1,554,568,555,-1,555,568,569,-1,568,570,569,-1,569,570,571,-1,572,573,574,-1,572,574,575,-1,575,574,576,-1,575,576,577,-1,577,576,578,-1,577,578,579,-1,579,578,580,-1,579,580,581,-1,581,580,582,-1,581,582,583,-1,583,582,584,-1,583,584,585,-1,585,584,571,-1,585,571,570,-1,586,587,588,-1,586,588,589,-1,589,588,590,-1,589,590,591,-1,591,590,592,-1,591,592,593,-1,593,592,594,-1,593,594,595,-1,595,594,596,-1,595,596,597,-1,597,596,598,-1,597,598,599,-1,599,598,600,-1,599,600,601,-1,601,600,602,-1,601,602,603,-1,603,602,573,-1,603,573,572,-1,604,605,606,-1,604,606,607,-1,607,606,608,-1,607,608,609,-1,609,608,610,-1,609,610,611,-1,611,610,612,-1,611,612,613,-1,613,612,614,-1,613,614,615,-1,615,614,616,-1,615,616,617,-1,617,616,618,-1,617,618,619,-1,619,618,587,-1,619,587,586,-1,494,496,620,-1,494,620,621,-1,621,620,622,-1,621,622,623,-1,623,622,624,-1,623,624,625,-1,625,624,605,-1,625,605,604,-1,502,500,495,-1,495,500,498,-1,513,515,495,-1,513,495,511,-1,511,495,509,-1,509,495,494,-1,509,494,621,-1,504,502,519,-1,519,502,495,-1,519,495,517,-1,517,495,515,-1,621,623,509,-1,509,623,625,-1,509,625,506,-1,585,570,568,-1,568,554,585,-1,585,554,557,-1,585,557,583,-1,583,557,559,-1,583,559,581,-1,581,559,561,-1,581,561,579,-1,579,561,563,-1,579,563,577,-1,577,563,565,-1,577,565,575,-1,575,565,567,-1,575,567,572,-1,572,567,538,-1,572,538,603,-1,603,538,541,-1,603,541,601,-1,601,541,543,-1,601,543,599,-1,599,543,545,-1,599,545,597,-1,625,604,506,-1,506,604,607,-1,506,607,537,-1,537,607,609,-1,537,609,535,-1,535,609,611,-1,535,611,533,-1,533,611,613,-1,533,613,531,-1,531,613,615,-1,531,615,529,-1,529,615,617,-1,529,617,527,-1,527,617,619,-1,527,619,525,-1,525,619,586,-1,525,586,523,-1,523,586,589,-1,523,589,520,-1,520,589,591,-1,520,591,553,-1,553,591,593,-1,553,593,551,-1,551,593,595,-1,551,595,549,-1,549,595,597,-1,549,597,547,-1,547,597,545,-1,492,471,493,-1,493,471,472,-1,492,491,471,-1,471,491,490,-1,471,490,473,-1,473,490,489,-1,487,476,488,-1,488,476,475,-1,488,475,489,-1,489,475,474,-1,489,474,473,-1,478,482,479,-1,479,482,481,-1,479,481,480,-1,487,486,476,-1,476,486,485,-1,476,485,484,-1,478,477,482,-1,482,477,476,-1,482,476,483,-1,483,476,484,-1,626,627,628,-1,629,630,631,-1,626,628,632,-1,633,634,635,-1,635,634,632,-1,635,632,636,-1,636,632,628,-1,637,638,634,-1,634,638,639,-1,634,639,632,-1,632,639,640,-1,632,640,641,-1,641,640,642,-1,641,642,643,-1,644,645,646,-1,646,647,641,-1,641,647,648,-1,649,650,651,-1,651,650,652,-1,651,652,626,-1,626,652,653,-1,626,653,627,-1,627,653,654,-1,627,654,637,-1,637,654,655,-1,637,655,638,-1,631,630,651,-1,651,630,656,-1,651,656,657,-1,643,658,641,-1,641,658,659,-1,641,659,646,-1,646,659,660,-1,646,660,644,-1,631,661,629,-1,629,661,662,-1,629,662,663,-1,663,662,664,-1,648,665,641,-1,641,665,666,-1,641,666,667,-1,667,666,668,-1,667,668,669,-1,669,670,667,-1,667,670,671,-1,667,671,672,-1,672,671,673,-1,672,673,674,-1,657,675,651,-1,651,675,676,-1,651,676,649,-1,664,677,663,-1,663,677,678,-1,663,678,679,-1,679,678,680,-1,681,682,674,-1,674,682,683,-1,674,683,684,-1,681,685,682,-1,682,685,686,-1,682,686,687,-1,684,688,674,-1,674,688,689,-1,674,689,672,-1,678,690,680,-1,680,690,691,-1,680,691,692,-1,692,691,693,-1,692,693,694,-1,694,693,695,-1,632,641,696,-1,696,641,697,-1,697,641,698,-1,698,641,667,-1,698,667,699,-1,668,700,701,-1,668,701,669,-1,669,701,702,-1,669,702,670,-1,670,702,703,-1,670,703,671,-1,671,703,704,-1,671,704,673,-1,673,704,705,-1,673,705,674,-1,674,705,706,-1,674,706,681,-1,681,706,707,-1,681,707,685,-1,685,707,708,-1,685,708,686,-1,686,708,709,-1,686,709,687,-1,687,709,710,-1,687,710,682,-1,682,710,711,-1,682,711,683,-1,683,711,712,-1,683,712,684,-1,684,712,713,-1,684,713,688,-1,688,713,714,-1,688,714,689,-1,689,714,715,-1,689,715,672,-1,672,715,699,-1,672,699,667,-1,700,668,716,-1,716,668,666,-1,716,666,717,-1,666,665,717,-1,717,665,718,-1,643,719,720,-1,643,720,658,-1,658,720,721,-1,658,721,659,-1,659,721,722,-1,659,722,660,-1,660,722,723,-1,660,723,644,-1,644,723,724,-1,644,724,645,-1,645,724,725,-1,645,725,646,-1,646,725,726,-1,646,726,647,-1,647,726,727,-1,647,727,648,-1,648,727,718,-1,648,718,665,-1,643,642,719,-1,719,642,728,-1,639,729,730,-1,639,730,640,-1,640,730,728,-1,640,728,642,-1,639,638,729,-1,729,638,731,-1,638,655,731,-1,731,655,732,-1,655,654,732,-1,732,654,733,-1,654,653,733,-1,733,653,734,-1,650,735,736,-1,650,736,652,-1,652,736,734,-1,652,734,653,-1,650,649,735,-1,735,649,737,-1,656,738,739,-1,656,739,657,-1,657,739,740,-1,657,740,675,-1,675,740,741,-1,675,741,676,-1,676,741,737,-1,676,737,649,-1,656,630,738,-1,738,630,742,-1,742,630,743,-1,743,630,629,-1,743,629,744,-1,744,629,663,-1,744,663,745,-1,745,663,679,-1,745,679,746,-1,746,679,680,-1,746,680,747,-1,747,680,692,-1,747,692,748,-1,748,692,694,-1,748,694,749,-1,749,694,695,-1,749,695,750,-1,750,695,693,-1,750,693,751,-1,751,693,691,-1,751,691,752,-1,752,691,690,-1,752,690,753,-1,753,690,678,-1,753,678,754,-1,754,678,677,-1,754,677,755,-1,755,677,664,-1,755,664,756,-1,756,664,662,-1,756,662,757,-1,757,662,661,-1,757,661,758,-1,758,661,759,-1,759,661,631,-1,759,631,760,-1,631,651,760,-1,760,651,761,-1,651,626,761,-1,761,626,762,-1,626,632,762,-1,762,632,696,-1,634,633,763,-1,763,633,764,-1,637,634,765,-1,765,634,763,-1,627,637,766,-1,766,637,765,-1,627,766,767,-1,627,767,628,-1,628,767,768,-1,628,768,636,-1,636,768,769,-1,636,769,635,-1,633,635,764,-1,764,635,769,-1,770,771,772,-1,773,772,774,-1,775,776,777,-1,777,776,778,-1,777,778,779,-1,780,781,777,-1,777,781,782,-1,777,782,775,-1,783,784,785,-1,786,787,788,-1,788,787,789,-1,788,789,790,-1,790,789,791,-1,790,791,792,-1,792,791,793,-1,792,793,794,-1,795,796,797,-1,798,780,799,-1,799,780,777,-1,799,777,800,-1,800,777,801,-1,800,801,785,-1,774,802,773,-1,773,802,803,-1,773,803,804,-1,804,803,805,-1,804,805,796,-1,796,805,806,-1,796,806,797,-1,807,808,772,-1,772,808,809,-1,772,809,770,-1,770,809,810,-1,770,810,811,-1,811,810,812,-1,783,785,813,-1,813,785,801,-1,813,801,773,-1,773,801,814,-1,773,814,772,-1,772,814,815,-1,772,815,807,-1,779,816,777,-1,777,816,817,-1,777,817,818,-1,819,820,821,-1,821,820,822,-1,821,822,823,-1,823,822,824,-1,825,826,798,-1,798,826,827,-1,798,827,780,-1,812,810,828,-1,828,810,829,-1,828,829,830,-1,794,793,784,-1,784,793,831,-1,784,831,785,-1,788,832,786,-1,786,832,833,-1,786,833,834,-1,834,833,835,-1,834,835,836,-1,819,837,820,-1,820,837,777,-1,820,777,838,-1,838,777,818,-1,797,839,795,-1,795,839,840,-1,795,840,841,-1,841,840,842,-1,841,842,843,-1,843,842,844,-1,843,844,845,-1,845,844,846,-1,845,846,847,-1,847,846,848,-1,847,848,849,-1,849,848,850,-1,849,850,851,-1,836,835,852,-1,852,835,853,-1,852,853,854,-1,851,850,854,-1,854,850,855,-1,854,855,852,-1,814,801,856,-1,856,801,857,-1,801,777,857,-1,857,777,858,-1,775,859,860,-1,775,860,776,-1,776,860,861,-1,776,861,778,-1,778,861,862,-1,778,862,779,-1,779,862,863,-1,779,863,816,-1,816,863,864,-1,816,864,817,-1,817,864,865,-1,817,865,818,-1,818,865,866,-1,818,866,838,-1,838,866,867,-1,838,867,820,-1,820,867,868,-1,820,868,822,-1,822,868,869,-1,822,869,824,-1,824,869,870,-1,824,870,823,-1,823,870,871,-1,823,871,821,-1,821,871,872,-1,821,872,819,-1,819,872,873,-1,819,873,837,-1,837,873,858,-1,837,858,777,-1,775,782,859,-1,859,782,874,-1,875,826,876,-1,876,826,825,-1,876,825,877,-1,878,780,875,-1,875,780,827,-1,875,827,826,-1,878,879,780,-1,780,879,880,-1,780,880,781,-1,781,880,874,-1,781,874,782,-1,877,825,798,-1,785,881,882,-1,785,882,800,-1,800,882,883,-1,800,883,799,-1,799,883,884,-1,799,884,798,-1,798,884,885,-1,798,885,877,-1,785,831,881,-1,881,831,886,-1,852,887,888,-1,852,888,836,-1,836,888,889,-1,836,889,834,-1,834,889,890,-1,834,890,786,-1,786,890,891,-1,786,891,787,-1,787,891,892,-1,787,892,789,-1,789,892,893,-1,789,893,791,-1,791,893,894,-1,791,894,793,-1,793,894,886,-1,793,886,831,-1,839,895,896,-1,839,896,840,-1,840,896,897,-1,840,897,842,-1,842,897,898,-1,842,898,844,-1,844,898,899,-1,844,899,846,-1,846,899,900,-1,846,900,848,-1,848,900,901,-1,848,901,850,-1,850,901,902,-1,850,902,855,-1,855,902,887,-1,855,887,852,-1,806,903,904,-1,806,904,797,-1,797,904,895,-1,797,895,839,-1,806,805,903,-1,903,805,905,-1,805,803,905,-1,905,803,906,-1,774,907,908,-1,774,908,802,-1,802,908,906,-1,802,906,803,-1,774,772,907,-1,907,772,909,-1,772,771,909,-1,909,771,910,-1,808,911,912,-1,808,912,809,-1,809,912,913,-1,809,913,810,-1,810,913,914,-1,810,914,829,-1,829,914,915,-1,829,915,830,-1,830,915,916,-1,830,916,828,-1,828,916,917,-1,828,917,812,-1,812,917,918,-1,812,918,811,-1,811,918,919,-1,811,919,770,-1,770,919,910,-1,770,910,771,-1,808,807,911,-1,911,807,920,-1,814,856,921,-1,814,921,815,-1,815,921,920,-1,815,920,807,-1,813,773,922,-1,922,773,923,-1,813,922,924,-1,813,924,783,-1,783,924,925,-1,783,925,784,-1,794,784,926,-1,926,784,925,-1,794,926,927,-1,794,927,792,-1,792,927,928,-1,792,928,790,-1,790,928,929,-1,790,929,788,-1,788,929,930,-1,788,930,832,-1,832,930,931,-1,832,931,833,-1,833,931,932,-1,833,932,835,-1,835,932,933,-1,835,933,853,-1,853,933,934,-1,853,934,854,-1,854,934,935,-1,854,935,851,-1,851,935,936,-1,851,936,849,-1,849,936,937,-1,849,937,847,-1,847,937,938,-1,847,938,845,-1,845,938,939,-1,845,939,843,-1,843,939,940,-1,843,940,841,-1,841,940,941,-1,841,941,795,-1,795,941,942,-1,795,942,796,-1,796,942,943,-1,796,943,804,-1,773,804,923,-1,923,804,943,-1,944,945,946,-1,946,945,947,-1,948,949,950,-1,948,950,951,-1,951,950,947,-1,951,947,945,-1,948,952,949,-1,949,952,953,-1,954,955,956,-1,954,956,957,-1,957,956,958,-1,957,958,959,-1,959,958,960,-1,959,960,961,-1,961,960,962,-1,961,962,963,-1,963,962,964,-1,963,964,965,-1,965,964,966,-1,965,966,967,-1,967,966,968,-1,967,968,969,-1,969,968,970,-1,969,970,971,-1,971,970,972,-1,971,972,973,-1,973,972,974,-1,973,974,975,-1,975,974,953,-1,975,953,952,-1,954,976,955,-1,955,976,977,-1,976,978,977,-1,977,978,979,-1,980,981,982,-1,980,982,983,-1,983,982,984,-1,983,984,985,-1,985,984,979,-1,985,979,978,-1,980,986,981,-1,981,986,987,-1,988,989,990,-1,988,990,991,-1,991,990,987,-1,991,987,986,-1,988,992,989,-1,989,992,993,-1,994,995,996,-1,994,996,997,-1,997,996,993,-1,997,993,992,-1,994,998,995,-1,995,998,999,-1,1000,1001,1002,-1,1000,1002,1003,-1,1003,1002,1004,-1,1003,1004,1005,-1,1005,1004,1006,-1,1005,1006,1007,-1,1007,1006,1008,-1,1007,1008,1009,-1,1009,1008,1010,-1,1009,1010,1011,-1,1011,1010,1012,-1,1011,1012,1013,-1,1013,1012,1014,-1,1013,1014,1015,-1,1015,1014,1016,-1,1015,1016,1017,-1,1017,1016,1018,-1,1017,1018,1019,-1,1019,1018,1020,-1,1019,1020,1021,-1,1021,1020,1022,-1,1021,1022,1023,-1,1023,1022,1024,-1,1023,1024,1025,-1,1025,1024,1026,-1,1025,1026,1027,-1,1027,1026,1028,-1,1027,1028,1029,-1,1029,1028,999,-1,1029,999,998,-1,1000,1030,1001,-1,1001,1030,1031,-1,1032,1033,1034,-1,1032,1034,1035,-1,1035,1034,1031,-1,1035,1031,1030,-1,1032,1036,1033,-1,1033,1036,1037,-1,1038,1039,1040,-1,1038,1040,1041,-1,1041,1040,1037,-1,1041,1037,1036,-1,1042,1043,1044,-1,1042,1044,1045,-1,1045,1044,1046,-1,1045,1046,1047,-1,1047,1046,1048,-1,1047,1048,1049,-1,1049,1048,1050,-1,1049,1050,1051,-1,1051,1050,1052,-1,1051,1052,1053,-1,1053,1052,1054,-1,1053,1054,1055,-1,1055,1054,1056,-1,1055,1056,1057,-1,1057,1056,1058,-1,1057,1058,1059,-1,1059,1058,1060,-1,1059,1060,1061,-1,1061,1060,1062,-1,1061,1062,1063,-1,1063,1062,1039,-1,1063,1039,1038,-1,1042,1064,1043,-1,1043,1064,1065,-1,1066,1067,1068,-1,1066,1068,1069,-1,1069,1068,1065,-1,1069,1065,1064,-1,1066,1070,1067,-1,1067,1070,1071,-1,1072,1073,1074,-1,1072,1074,1075,-1,1075,1074,1076,-1,1075,1076,1077,-1,1077,1076,1078,-1,1077,1078,1079,-1,1079,1078,1080,-1,1079,1080,1081,-1,1081,1080,1082,-1,1081,1082,1083,-1,1083,1082,1084,-1,1083,1084,1085,-1,1085,1084,1086,-1,1085,1086,1087,-1,1087,1086,1088,-1,1087,1088,1089,-1,1089,1088,1090,-1,1089,1090,1091,-1,1091,1090,1092,-1,1091,1092,1093,-1,1093,1092,1071,-1,1093,1071,1070,-1,1072,1094,1073,-1,1073,1094,1095,-1,1094,1096,1095,-1,1095,1096,1097,-1,1098,1099,1100,-1,1098,1100,1101,-1,1101,1100,1097,-1,1101,1097,1096,-1,1098,1102,1099,-1,1099,1102,1103,-1,1102,1104,1103,-1,1103,1104,1105,-1,1104,1106,1105,-1,1105,1106,1107,-1,1108,1109,1110,-1,1108,1110,1111,-1,1111,1110,1112,-1,1111,1112,1113,-1,1113,1112,1114,-1,1113,1114,1115,-1,1115,1114,1116,-1,1115,1116,1117,-1,1117,1116,1118,-1,1117,1118,1119,-1,1119,1118,1120,-1,1119,1120,1121,-1,1121,1120,1122,-1,1121,1122,1123,-1,1123,1122,1124,-1,1123,1124,1125,-1,1125,1124,1126,-1,1125,1126,1127,-1,1127,1126,1128,-1,1127,1128,1129,-1,1129,1128,1107,-1,1129,1107,1106,-1,1108,1130,1109,-1,1109,1130,1131,-1,1130,1132,1131,-1,1131,1132,1133,-1,1134,1135,1136,-1,1134,1136,1137,-1,1137,1136,1138,-1,1137,1138,1139,-1,1139,1138,1133,-1,1139,1133,1132,-1,1134,1140,1135,-1,1135,1140,1141,-1,1140,944,1141,-1,1141,944,946,-1,1023,1025,944,-1,1129,1106,1113,-1,1066,1101,1096,-1,1093,1070,1072,-1,1137,1139,1106,-1,1106,1139,1132,-1,1042,1045,1102,-1,1102,1045,1047,-1,1066,1096,1070,-1,1070,1096,1094,-1,1070,1094,1072,-1,994,997,944,-1,944,991,986,-1,985,978,952,-1,952,978,976,-1,952,976,954,-1,1003,944,1000,-1,1000,944,1140,-1,1000,1140,1030,-1,1023,944,1021,-1,1132,1130,1108,-1,1132,1108,1106,-1,1106,1108,1111,-1,1106,1111,1113,-1,1059,1061,1102,-1,1102,1061,1063,-1,1102,1063,1038,-1,1038,1041,1102,-1,1102,1041,1036,-1,1102,1036,1032,-1,1101,1066,1098,-1,1098,1066,1069,-1,1098,1069,1102,-1,1102,1069,1064,-1,1102,1064,1042,-1,994,944,998,-1,944,986,945,-1,954,957,952,-1,952,957,959,-1,952,959,961,-1,1003,1005,944,-1,944,1005,1007,-1,944,1007,1009,-1,1032,1035,1102,-1,1102,1035,1030,-1,1102,1030,1104,-1,1104,1030,1140,-1,1104,1140,1106,-1,1106,1140,1134,-1,1106,1134,1137,-1,1047,1049,1102,-1,1102,1049,1051,-1,1102,1051,1053,-1,997,992,944,-1,944,992,988,-1,944,988,991,-1,952,948,985,-1,985,948,951,-1,985,951,983,-1,983,951,945,-1,983,945,980,-1,980,945,986,-1,1009,1011,944,-1,944,1011,1013,-1,944,1013,1015,-1,1053,1055,1102,-1,1102,1055,1057,-1,1102,1057,1059,-1,1015,1017,944,-1,944,1017,1019,-1,944,1019,1021,-1,1075,1077,1083,-1,1083,1077,1079,-1,1083,1079,1081,-1,1075,1083,1072,-1,1072,1083,1085,-1,1072,1085,1087,-1,1025,1027,944,-1,944,1027,1029,-1,944,1029,998,-1,961,963,965,-1,1121,1115,1119,-1,1119,1115,1117,-1,1121,1123,1115,-1,1115,1123,1125,-1,1115,1125,1113,-1,1113,1125,1127,-1,1113,1127,1129,-1,1087,1089,1072,-1,1072,1089,1091,-1,1072,1091,1093,-1,965,967,961,-1,961,967,969,-1,961,969,971,-1,971,973,961,-1,961,973,975,-1,961,975,952,-1,1142,1143,1144,-1,1144,1143,1145,-1,1146,1147,1148,-1,1146,1148,1149,-1,1149,1148,1150,-1,1149,1150,1151,-1,1151,1150,1152,-1,1151,1152,1153,-1,1153,1152,1145,-1,1153,1145,1143,-1,1154,1155,1156,-1,1154,1156,1157,-1,1157,1156,1158,-1,1157,1158,1159,-1,1159,1158,1160,-1,1159,1160,1161,-1,1161,1160,1162,-1,1161,1162,1163,-1,1163,1162,1164,-1,1163,1164,1165,-1,1165,1164,1166,-1,1165,1166,1167,-1,1167,1166,1147,-1,1167,1147,1146,-1,1168,1169,1170,-1,1168,1170,1171,-1,1171,1170,1172,-1,1171,1172,1173,-1,1173,1172,1174,-1,1173,1174,1175,-1,1175,1174,1176,-1,1175,1176,1177,-1,1177,1176,1178,-1,1177,1178,1179,-1,1179,1178,1180,-1,1179,1180,1181,-1,1181,1180,1182,-1,1181,1182,1183,-1,1183,1182,1184,-1,1183,1184,1185,-1,1185,1184,1155,-1,1185,1155,1154,-1,1186,1187,1188,-1,1186,1188,1189,-1,1189,1188,1190,-1,1189,1190,1191,-1,1191,1190,1192,-1,1191,1192,1193,-1,1193,1192,1194,-1,1193,1194,1195,-1,1195,1194,1196,-1,1195,1196,1197,-1,1197,1196,1198,-1,1197,1198,1199,-1,1199,1198,1169,-1,1199,1169,1168,-1,1186,1200,1187,-1,1187,1200,1201,-1,1200,1202,1201,-1,1201,1202,1203,-1,1204,1205,1206,-1,1204,1206,1207,-1,1207,1206,1208,-1,1207,1208,1209,-1,1209,1208,1210,-1,1209,1210,1211,-1,1211,1210,1212,-1,1211,1212,1213,-1,1213,1212,1214,-1,1213,1214,1215,-1,1215,1214,1216,-1,1215,1216,1217,-1,1217,1216,1203,-1,1217,1203,1202,-1,1218,1219,1220,-1,1218,1220,1221,-1,1221,1220,1222,-1,1221,1222,1223,-1,1223,1222,1224,-1,1223,1224,1225,-1,1225,1224,1226,-1,1225,1226,1227,-1,1227,1226,1228,-1,1227,1228,1229,-1,1229,1228,1230,-1,1229,1230,1231,-1,1231,1230,1205,-1,1231,1205,1204,-1,1232,1233,1234,-1,1232,1234,1235,-1,1235,1234,1236,-1,1235,1236,1237,-1,1237,1236,1238,-1,1237,1238,1239,-1,1239,1238,1240,-1,1239,1240,1241,-1,1241,1240,1242,-1,1241,1242,1243,-1,1243,1242,1244,-1,1243,1244,1245,-1,1245,1244,1246,-1,1245,1246,1247,-1,1247,1246,1219,-1,1247,1219,1218,-1,1248,1249,1250,-1,1248,1250,1251,-1,1251,1250,1252,-1,1251,1252,1253,-1,1253,1252,1254,-1,1253,1254,1255,-1,1255,1254,1256,-1,1255,1256,1257,-1,1257,1256,1258,-1,1257,1258,1259,-1,1259,1258,1260,-1,1259,1260,1261,-1,1261,1260,1233,-1,1261,1233,1232,-1,1248,1262,1249,-1,1249,1262,1263,-1,1262,1264,1263,-1,1263,1264,1265,-1,1264,1266,1265,-1,1265,1266,1267,-1,1266,1142,1267,-1,1267,1142,1144,-1,1262,1248,1264,-1,1264,1248,1142,-1,1264,1142,1266,-1,1200,1186,1202,-1,1202,1186,1189,-1,1202,1189,1217,-1,1248,1251,1142,-1,1142,1251,1253,-1,1142,1253,1143,-1,1143,1253,1255,-1,1143,1255,1153,-1,1153,1255,1257,-1,1153,1257,1151,-1,1151,1257,1259,-1,1151,1259,1149,-1,1149,1259,1261,-1,1149,1261,1146,-1,1146,1261,1232,-1,1146,1232,1167,-1,1167,1232,1235,-1,1167,1235,1165,-1,1165,1235,1237,-1,1165,1237,1163,-1,1163,1237,1161,-1,1161,1237,1239,-1,1161,1239,1159,-1,1159,1239,1241,-1,1159,1241,1157,-1,1241,1243,1157,-1,1157,1243,1245,-1,1157,1245,1154,-1,1154,1245,1247,-1,1217,1189,1215,-1,1215,1189,1191,-1,1215,1191,1213,-1,1213,1191,1193,-1,1213,1193,1211,-1,1211,1193,1195,-1,1211,1195,1209,-1,1209,1195,1197,-1,1209,1197,1207,-1,1207,1197,1199,-1,1207,1199,1204,-1,1204,1199,1168,-1,1204,1168,1231,-1,1231,1168,1171,-1,1231,1171,1229,-1,1229,1171,1173,-1,1229,1173,1227,-1,1227,1173,1175,-1,1227,1175,1225,-1,1225,1175,1177,-1,1225,1177,1223,-1,1223,1177,1179,-1,1223,1179,1221,-1,1221,1179,1181,-1,1221,1181,1218,-1,1218,1181,1183,-1,1218,1183,1247,-1,1247,1183,1185,-1,1247,1185,1154,-1,1268,1269,1270,-1,1270,1269,1271,-1,1272,1273,1274,-1,1272,1274,1275,-1,1275,1274,1271,-1,1275,1271,1269,-1,1272,1276,1273,-1,1273,1276,1277,-1,1276,1278,1277,-1,1277,1278,1279,-1,1280,1281,1282,-1,1280,1282,1283,-1,1283,1282,1284,-1,1283,1284,1285,-1,1285,1284,1286,-1,1285,1286,1287,-1,1287,1286,1288,-1,1287,1288,1289,-1,1289,1288,1290,-1,1289,1290,1291,-1,1291,1290,1292,-1,1291,1292,1293,-1,1293,1292,1294,-1,1293,1294,1295,-1,1295,1294,1296,-1,1295,1296,1297,-1,1297,1296,1298,-1,1297,1298,1299,-1,1299,1298,1300,-1,1299,1300,1301,-1,1301,1300,1279,-1,1301,1279,1278,-1,1280,1302,1281,-1,1281,1302,1303,-1,1302,1304,1303,-1,1303,1304,1305,-1,1306,1307,1308,-1,1306,1308,1309,-1,1309,1308,1310,-1,1309,1310,1311,-1,1311,1310,1312,-1,1311,1312,1313,-1,1313,1312,1314,-1,1313,1314,1315,-1,1315,1314,1316,-1,1315,1316,1317,-1,1317,1316,1318,-1,1317,1318,1319,-1,1319,1318,1320,-1,1319,1320,1321,-1,1321,1320,1322,-1,1321,1322,1323,-1,1323,1322,1305,-1,1323,1305,1304,-1,1324,1325,1326,-1,1324,1326,1327,-1,1327,1326,1328,-1,1327,1328,1329,-1,1329,1328,1330,-1,1329,1330,1331,-1,1331,1330,1332,-1,1331,1332,1333,-1,1333,1332,1334,-1,1333,1334,1335,-1,1335,1334,1307,-1,1335,1307,1306,-1,1336,1337,1338,-1,1336,1338,1339,-1,1339,1338,1340,-1,1339,1340,1341,-1,1341,1340,1342,-1,1341,1342,1343,-1,1343,1342,1344,-1,1343,1344,1345,-1,1345,1344,1346,-1,1345,1346,1347,-1,1347,1346,1325,-1,1347,1325,1324,-1,1336,1348,1337,-1,1337,1348,1349,-1,1350,1351,1352,-1,1350,1352,1353,-1,1353,1352,1354,-1,1353,1354,1355,-1,1355,1354,1349,-1,1355,1349,1348,-1,1350,1356,1351,-1,1351,1356,1357,-1,1356,1268,1357,-1,1357,1268,1270,-1,1293,1295,1336,-1,1268,1356,1269,-1,1269,1356,1350,-1,1269,1350,1275,-1,1275,1350,1353,-1,1275,1353,1272,-1,1339,1341,1321,-1,1321,1341,1343,-1,1321,1343,1319,-1,1319,1327,1329,-1,1324,1327,1347,-1,1347,1327,1319,-1,1347,1319,1345,-1,1345,1319,1343,-1,1295,1297,1336,-1,1336,1297,1299,-1,1336,1299,1301,-1,1301,1278,1336,-1,1336,1278,1276,-1,1336,1276,1348,-1,1348,1276,1272,-1,1348,1272,1355,-1,1355,1272,1353,-1,1280,1283,1336,-1,1336,1283,1285,-1,1336,1285,1287,-1,1321,1323,1339,-1,1339,1323,1304,-1,1339,1304,1336,-1,1336,1304,1302,-1,1336,1302,1280,-1,1287,1289,1336,-1,1336,1289,1291,-1,1336,1291,1293,-1,1329,1331,1319,-1,1319,1331,1333,-1,1319,1333,1335,-1,1313,1315,1335,-1,1335,1315,1317,-1,1335,1317,1319,-1,1306,1309,1335,-1,1335,1309,1311,-1,1335,1311,1313,-1,
        ]
    }
}
Shape{
    appearance Appearance {
        material  Material 	{
            diffuseColor 0.2235294117647059 0.2235294117647059 0.2235294117647059
            specularColor 0.11372549019607843 0.11372549019607843 0.11372549019607843
            ambientIntensity 0.2
            transparency 0
            shininess 0.5
        }
    }
    geometry IndexedFaceSet {
        ccw TRUE
        solid FALSE
        coord DEF co Coordinate {
            point [
                -0.1883 0.4557 -0.7087, -0.1975 0.4645 -0.7087, -0.2101 0.5511 -0.7087, -0.206 0.4587 -0.7087, -0.2091 0.4571 -0.7087, -0.2188 0.4541 -0.7087, -0.2322 0.4513 -0.7087, -0.3251 0.3806 -0.7087, -0.3356 0.3793 -0.7087, -0.3546 0.56 -0.7087, -0.361 0.3775 -0.7087, -0.361 0.5573 -0.7087, -0.3558 0.3774 -0.7087, -0.3505 0.3775 -0.7087, -0.3401 0.5633 -0.7087, -0.3253 0.5644 -0.7087, -0.291 0.4886 -0.7087, -0.317 0.5629 -0.7087, -0.295 0.5348 -0.7087, -0.298 0.5451 -0.7087, -0.304 0.3932 -0.7087, -0.3079 0.3882 -0.7087, -0.3101 0.5603 -0.7087, -0.3062 0.5575 -0.7087, -0.3018 0.5524 -0.7087, -0.297 0.4093 -0.7087, -0.312 0.385 -0.7087, -0.3175 0.3825 -0.7087, -0.2914 0.4437 -0.7087, -0.2914 0.4437 -0.7087
            ]
        }
        coordIndex [
            0,1,2,-1,2,1,3,-1,3,4,2,-1,2,4,5,-1,2,5,6,-1,7,8,9,-1,10,11,12,-1,12,11,9,-1,12,9,13,-1,13,9,8,-1,14,15,16,-1,16,15,17,-1,16,17,18,-1,18,17,19,-1,20,21,9,-1,22,23,17,-1,17,23,24,-1,17,24,19,-1,20,9,25,-1,21,26,9,-1,9,26,27,-1,9,27,7,-1,14,16,9,-1,9,16,28,-1,9,28,25,-1,
        ]
    }
}
Shape{
    appearance Appearance {
        material  Material 	{
            diffuseColor 0.9725490196078431 0.9450980392156862 0.7803921568627451
            specularColor 0.48627450980392156 0.47058823529411764 0.38823529411764707
            ambientIntensity 0.2
            transparency 0
            shininess 0.5
        }
    }
    geometry IndexedFaceSet {
        ccw TRUE
        solid FALSE
        coord DEF co Coordinate {
            point [
                0.689 1.0236 0.6654, 0.689 0.3543 0.6654, 0.689 1.0236 0.7047, 0.689 0.3543 0.7047, -0.689 0.3543 0.6654, -0.689 0.3543 0.7047, -0.689 1.0236 0.6654, -0.689 1.0236 0.7047, -0.0591 0.3937 1.0197, -0.0591 0.3937 0.6654, -0.0591 0.9843 1.0197, -0.0591 0.9843 0.6654, -0.6496 0.9843 1.0197, -0.6496 0.9843 0.6654, -0.6496 0.3937 1.0197, -0.6496 0.3937 0.6654, -0.0984 0.9449 1.0591, -0.6102 0.9449 1.0591, -0.0984 0.4331 1.0591, -0.6102 0.4331 1.0591, -0.6102 0.4331 1.0591
            ]
        }
        coordIndex [
            0,1,2,-1,2,1,3,-1,1,4,3,-1,3,4,5,-1,4,6,5,-1,5,6,7,-1,6,0,7,-1,7,0,2,-1,8,9,10,-1,10,9,11,-1,10,11,12,-1,12,11,13,-1,12,13,14,-1,14,13,15,-1,14,15,8,-1,8,15,9,-1,16,17,18,-1,18,17,19,-1,14,19,12,-1,12,19,17,-1,8,18,14,-1,14,18,19,-1,16,10,17,-1,17,10,12,-1,10,16,8,-1,8,16,18,-1,
        ]
    }
}
Shape{
    appearance Appearance {
        material  Material 	{
            diffuseColor 0.7529411764705882 0.7529411764705882 0.7529411764705882
            specularColor 0.6039215686274509 0.6039215686274509 0.6039215686274509
            ambientIntensity 0.2
            transparency 0
            shininess 0.5
        }
    }
    geometry IndexedFaceSet {
        ccw TRUE
        solid FALSE
        coord DEF co Coordinate {
            point [
                0.1181 0.8465 -0.7402, 0.1181 1.2598 -0.7402, -0.1181 0.8465 -0.7402, -0.1181 1.2598 -0.7402, 0.1181 0.8465 -0.7874, -0.1181 0.8465 -0.7874, 0.1181 1.2598 -0.7874, -0.1181 1.2598 -0.7874, -0.1181 1.2802 -0.7847, 0.1181 1.2802 -0.7847, -0.1181 1.2992 -0.7769, 0.1181 1.2992 -0.7769, -0.1181 1.3155 -0.7643, 0.1181 1.3155 -0.7643, -0.1181 1.328 -0.748, 0.1181 1.328 -0.748, -0.1181 1.3359 -0.729, 0.1181 1.3359 -0.729, -0.1181 1.3386 -0.7087, 0.1181 1.3386 -0.7087, 0.1181 1.3386 -0.5906, -0.1181 1.3386 -0.5906, 0.1181 1.2913 -0.7087, 0.1181 1.2913 -0.5906, -0.1181 1.2913 -0.7087, -0.1181 1.2913 -0.5906, 0.1181 1.2903 -0.7168, -0.1181 1.2903 -0.7168, 0.1181 1.2871 -0.7244, -0.1181 1.2871 -0.7244, 0.1181 1.2821 -0.7309, -0.1181 1.2821 -0.7309, 0.1181 1.2756 -0.7359, -0.1181 1.2756 -0.7359, 0.1181 1.268 -0.7391, -0.1181 1.268 -0.7391, -0.1181 1.268 -0.7391
            ]
        }
        coordIndex [
            0,1,2,-1,2,1,3,-1,4,0,5,-1,5,0,2,-1,6,4,7,-1,7,4,5,-1,6,7,8,-1,6,8,9,-1,9,8,10,-1,9,10,11,-1,11,10,12,-1,11,12,13,-1,13,12,14,-1,13,14,15,-1,15,14,16,-1,15,16,17,-1,17,16,18,-1,17,18,19,-1,20,19,21,-1,21,19,18,-1,22,23,24,-1,24,23,25,-1,22,24,26,-1,26,24,27,-1,26,27,28,-1,28,27,29,-1,28,29,30,-1,30,29,31,-1,30,31,32,-1,32,31,33,-1,32,33,34,-1,34,33,35,-1,34,35,1,-1,1,35,3,-1,0,4,1,-1,1,4,6,-1,1,6,34,-1,34,6,9,-1,34,9,32,-1,32,9,11,-1,32,11,30,-1,30,11,13,-1,30,13,28,-1,28,13,15,-1,28,15,26,-1,26,15,17,-1,26,17,22,-1,22,17,19,-1,22,19,23,-1,23,19,20,-1,25,21,24,-1,24,21,18,-1,24,18,27,-1,27,18,16,-1,27,16,29,-1,29,16,14,-1,29,14,31,-1,31,14,12,-1,31,12,33,-1,33,12,10,-1,33,10,35,-1,35,10,8,-1,35,8,3,-1,3,8,7,-1,3,7,2,-1,2,7,5,-1,
        ]
    }
}