#VRML V2.0 utf8
# 3D model generated by easyeda2kicad.py (https://github.com/uPesy/easyeda2kicad.py)

Shape{
    appearance Appearance {
        material  Material 	{
            diffuseColor 0.20784313725490197 0.20784313725490197 0.20784313725490197
            specularColor 0.01568627450980392 0.01568627450980392 0.01568627450980392
            ambientIntensity 0.298
            transparency 0.0
            shininess 0.5
        }
    }
    geometry IndexedFaceSet {
        ccw TRUE
        solid FALSE
        coord DEF co Coordinate {
            point [
                -0.1181 -0.4528 0.0004, -0.1181 -0.0193 0.0004, 0.0206 -0.0193 0.0004, 0.5909 -0.3937 0.0004, 0.5909 -0.0594 0.0004, 0.6299 -0.0984 0.0004, 0.0337 0.0165 0.0004, 0.0376 0.0161 0.0004, 0.0252 -0.0131 0.0004, 0.5319 0.4528 0.0004, 0.1181 0.4528 0.0004, 0.0206 0.4921 0.0004, 0.0245 -0.0127 0.0004, 0.0245 -0.017 0.0004, 0.0287 -0.0187 0.0004, 0.6299 0.0984 0.0004, 0.5909 0.0594 0.0004, 0.6299 0.4331 0.0004, 0.5909 0.3937 0.0004, 0.6146 0.4351 0.0004, 0.6004 0.441 0.0004, 0.1181 -0.0193 0.0004, 0.0773 -0.019 0.0004, 0.0773 0.0203 0.0004, 0.044 -0.0177 0.0004, 0.0571 -0.019 0.0004, 0.0402 -0.019 0.0004, 0.0376 -0.0193 0.0004, 0.0405 0.015 0.0004, 0.0433 0.0132 0.0004, 0.0456 0.0106 0.0004, 0.0485 0.0002 0.0004, 0.0481 -0.004 0.0004, 0.047 -0.0074 0.0004, 0.0383 -0.0148 0.0004, 0.0346 -0.0152 0.0004, 0.0411 -0.0137 0.0004, 0.0435 -0.0121 0.0004, 0.0454 -0.0101 0.0004, 0.0294 -0.0146 0.0004, 0.0289 0.0159 0.0004, 0.0245 0.014 0.0004, 0.0245 0.0193 0.0004, 0.0473 0.0075 0.0004, 0.0483 0.0033 0.0004, 0.5757 0.3957 0.0004, 0.5614 0.4016 0.0004, 0.5882 0.4504 0.0004, 0.0517 0.01 0.0004, 0.0494 0.0137 0.0004, 0.072 0.0203 0.0004, 0.5709 0.4921 0.0004, 0.5729 0.4768 0.0004, 0.5339 0.4375 0.0004, 0.5788 0.4626 0.0004, 0.5398 0.4232 0.0004, 0.5492 0.411 0.0004, 0.0472 -0.0157 0.0004, 0.0501 -0.0126 0.0004, 0.0571 -0.0147 0.0004, 0.0522 -0.0088 0.0004, 0.072 -0.0147 0.0004, 0.0458 0.0171 0.0004, 0.0421 0.0192 0.0004, 0.0377 0.0205 0.0004, 0.0534 -0.0046 0.0004, 0.0538 -0.0001 0.0004, 0.0532 0.0055 0.0004, 0.0338 0.0208 0.0004, 0.029 0.0205 0.0004, 0.0353 -0.0195 0.0004, 0.1181 -0.4528 0.0004, 0.0342 -0.0195 0.0004, 0.0327 -0.0193 0.0004, 0.0206 -0.4921 0.0004, 0.5709 -0.4921 0.0004, 0.5319 -0.4528 0.0004, 0.5729 -0.4768 0.0004, 0.5788 -0.4626 0.0004, 0.6299 -0.4331 0.0004, 0.6146 -0.4351 0.0004, 0.5757 -0.3957 0.0004, 0.6004 -0.441 0.0004, 0.5614 -0.4016 0.0004, 0.5882 -0.4504 0.0004, 0.5339 -0.4375 0.0004, 0.5398 -0.4232 0.0004, 0.5492 -0.411 0.0004, -0.6299 -0.0984 0.0004, -0.5909 -0.0594 0.0004, -0.6299 -0.4331 0.0004, -0.5909 -0.3937 0.0004, -0.5757 -0.3957 0.0004, -0.5614 -0.4016 0.0004, -0.6004 -0.441 0.0004, -0.5882 -0.4504 0.0004, -0.6146 -0.4351 0.0004, -0.5709 -0.4921 0.0004, -0.5319 -0.4528 0.0004, -0.5729 -0.4768 0.0004, -0.5339 -0.4375 0.0004, -0.5788 -0.4626 0.0004, -0.5398 -0.4232 0.0004, -0.5492 -0.411 0.0004, -0.5909 0.3937 0.0004, -0.5909 0.0594 0.0004, -0.6299 0.0984 0.0004, -0.0417 -0.0082 0.0004, -0.0395 -0.0118 0.0004, -0.0466 -0.019 0.0004, -0.0362 -0.0149 0.0004, 0.0168 0.0203 0.0004, -0.0034 0.0203 0.0004, -0.0321 -0.0172 0.0004, -0.0276 -0.0186 0.0004, -0.0227 -0.019 0.0004, -0.5319 0.4528 0.0004, -0.5339 0.4375 0.0004, -0.5788 0.4626 0.0004, -0.5398 0.4232 0.0004, -0.5882 0.4504 0.0004, -0.5729 0.4768 0.0004, -0.5709 0.4921 0.0004, -0.1969 0.4528 0.0004, -0.1181 0.374 0.0004, -0.0034 0.016 0.0004, -0.0024 -0.0013 0.0004, -0.012 -0.019 0.0004, -0.0024 0.0031 0.0004, -0.012 0.0203 0.0004, -0.6299 0.4331 0.0004, -0.6146 0.4351 0.0004, -0.5757 0.3957 0.0004, -0.6004 0.441 0.0004, -0.5614 0.4016 0.0004, -0.5492 0.411 0.0004, 0.0115 0.016 0.0004, 0.0115 0.0031 0.0004, -0.0231 0.0203 0.0004, -0.0288 0.0197 0.0004, -0.0334 0.0181 0.0004, -0.0377 0.0152 0.0004, -0.0615 0.0203 0.0004, -0.0667 0.0203 0.0004, -0.0821 -0.019 0.0004, -0.0763 -0.019 0.0004, -0.0377 0.0152 0.0004, -0.0405 0.0121 0.0004, -0.0423 0.0087 0.0004, -0.0434 0.0049 0.0004, -0.0437 0.0012 0.0004, -0.0431 -0.0041 0.0004, 0.0115 -0.0013 0.0004, 0.0115 -0.0147 0.0004, -0.0043 -0.0147 0.0004, -0.0043 -0.019 0.0004, 0.0168 -0.019 0.0004, -0.0724 -0.008 0.0004, -0.0561 -0.008 0.0004, -0.0523 -0.019 0.0004, -0.5906 -0.0591 0.276, -0.5906 -0.3937 0.276, -0.5906 -0.3937 0.3941, -0.5906 0.3937 0.3941, -0.5906 0.3937 0.276, -0.5906 0.0591 0.276, -0.5906 0.0591 0.0713, -0.5906 -0.0591 0.0713, 0.5906 0.0591 0.276, 0.5906 0.3937 0.276, 0.5906 0.3937 0.3941, 0.5906 -0.3937 0.3941, 0.5906 -0.3937 0.276, 0.5906 -0.0591 0.276, 0.5906 -0.0591 0.0713, 0.5906 0.0591 0.0713, 0.5909 -0.0594 0.0713, 0.6299 -0.0984 0.276, 0.5909 0.0594 0.0713, 0.6299 0.0984 0.276, -0.6299 0.4331 0.276, -0.6299 0.0984 0.276, -0.6146 0.4351 0.276, 0.5709 0.4921 0.276, -0.5709 0.4921 0.276, 0.5729 0.4768 0.276, -0.5729 0.4768 0.276, -0.5788 0.4626 0.276, -0.5571 0.4469 0.276, -0.5446 0.4513 0.276, -0.5891 0.4068 0.276, -0.6004 0.441 0.276, -0.5847 0.4193 0.276, -0.5882 0.4504 0.276, -0.5777 0.4305 0.276, -0.5683 0.4399 0.276, 0.6004 0.441 0.276, 0.5847 0.4193 0.276, 0.6146 0.4351 0.276, 0.5891 0.4068 0.276, 0.6299 0.4331 0.276, -0.5315 0.4528 0.276, 0.5315 0.4528 0.276, 0.5446 0.4513 0.276, 0.5788 0.4626 0.276, 0.5571 0.4469 0.276, 0.5882 0.4504 0.276, 0.5683 0.4399 0.276, 0.5777 0.4305 0.276, 0.6299 -0.4331 0.276, 0.6146 -0.4351 0.276, -0.6299 -0.0984 0.276, -0.6299 -0.4331 0.276, -0.6146 -0.4351 0.276, -0.5891 -0.4068 0.276, -0.5847 -0.4193 0.276, -0.6004 -0.441 0.276, -0.5777 -0.4305 0.276, -0.5882 -0.4504 0.276, -0.5683 -0.4399 0.276, -0.5788 -0.4626 0.276, -0.5571 -0.4469 0.276, -0.5709 -0.4921 0.276, 0.5709 -0.4921 0.276, -0.5729 -0.4768 0.276, 0.5729 -0.4768 0.276, 0.5788 -0.4626 0.276, 0.5571 -0.4469 0.276, 0.5446 -0.4513 0.276, 0.5891 -0.4068 0.276, 0.6004 -0.441 0.276, 0.5847 -0.4193 0.276, 0.5882 -0.4504 0.276, 0.5777 -0.4305 0.276, 0.5683 -0.4399 0.276, 0.5315 -0.4528 0.276, -0.5315 -0.4528 0.276, -0.5446 -0.4513 0.276, 0.5891 0.4068 0.3941, 0.5847 0.4193 0.3941, 0.5777 0.4305 0.3941, 0.5683 0.4399 0.3941, 0.5571 0.4469 0.3941, 0.5446 0.4513 0.3941, 0.5315 0.4528 0.3941, -0.5315 0.4528 0.3941, -0.5446 0.4513 0.3941, -0.5571 0.4469 0.3941, -0.5683 0.4399 0.3941, -0.5777 0.4305 0.3941, -0.5847 0.4193 0.3941, -0.5891 0.4068 0.3941, -0.5891 -0.4068 0.3941, -0.5847 -0.4193 0.3941, -0.5777 -0.4305 0.3941, -0.5683 -0.4399 0.3941, -0.5571 -0.4469 0.3941, -0.5446 -0.4513 0.3941, -0.5315 -0.4528 0.3941, 0.5315 -0.4528 0.3941, 0.5446 -0.4513 0.3941, 0.5571 -0.4469 0.3941, 0.5683 -0.4399 0.3941, 0.5777 -0.4305 0.3941, 0.5847 -0.4193 0.3941, 0.5891 -0.4068 0.3941, -0.5909 -0.0594 0.0713, -0.5909 0.0594 0.0713
            ]
        }
        coordIndex [
            0,1,2,-1,3,4,5,-1,6,7,8,-1,9,10,11,-1,12,13,2,-1,2,13,14,-1,15,16,17,-1,17,16,18,-1,17,18,19,-1,19,18,20,-1,21,22,23,-1,24,25,26,-1,26,25,27,-1,7,28,8,-1,8,28,29,-1,8,29,30,-1,31,32,8,-1,8,32,33,-1,34,35,36,-1,36,35,37,-1,33,38,8,-1,8,38,37,-1,8,37,39,-1,39,37,35,-1,6,8,40,-1,40,8,12,-1,40,12,41,-1,41,12,11,-1,41,11,42,-1,30,43,8,-1,8,43,44,-1,8,44,31,-1,18,45,20,-1,20,45,46,-1,20,46,47,-1,48,49,50,-1,50,49,11,-1,50,11,23,-1,23,11,10,-1,23,10,21,-1,11,51,9,-1,9,51,52,-1,9,52,53,-1,53,52,54,-1,53,54,55,-1,55,54,47,-1,55,47,56,-1,56,47,46,-1,24,57,25,-1,25,57,58,-1,25,58,59,-1,59,58,60,-1,59,60,61,-1,49,62,11,-1,11,62,63,-1,11,63,64,-1,60,65,61,-1,61,65,66,-1,61,66,50,-1,50,66,67,-1,50,67,48,-1,64,68,11,-1,11,68,69,-1,11,69,42,-1,25,22,27,-1,27,22,21,-1,27,21,70,-1,70,21,71,-1,70,71,72,-1,73,72,74,-1,74,72,71,-1,74,71,75,-1,75,71,76,-1,75,76,77,-1,77,76,78,-1,5,79,3,-1,3,79,80,-1,3,80,81,-1,81,80,82,-1,81,82,83,-1,83,82,84,-1,76,85,78,-1,78,85,86,-1,78,86,84,-1,84,86,87,-1,84,87,83,-1,88,89,90,-1,90,89,91,-1,92,93,94,-1,94,93,95,-1,92,94,91,-1,91,94,96,-1,91,96,90,-1,14,73,2,-1,2,73,74,-1,2,74,0,-1,0,74,97,-1,0,97,98,-1,98,97,99,-1,98,99,100,-1,100,99,101,-1,100,101,102,-1,102,101,95,-1,102,95,103,-1,103,95,93,-1,104,105,106,-1,107,108,109,-1,109,108,110,-1,12,2,11,-1,11,2,111,-1,11,111,112,-1,110,113,109,-1,109,113,114,-1,109,114,115,-1,116,117,118,-1,118,117,119,-1,118,119,120,-1,118,121,116,-1,116,121,122,-1,116,122,123,-1,123,122,11,-1,123,11,124,-1,124,11,112,-1,124,112,125,-1,126,127,128,-1,128,127,129,-1,106,130,104,-1,104,130,131,-1,104,131,132,-1,132,131,133,-1,132,133,134,-1,134,133,120,-1,134,120,135,-1,135,120,119,-1,136,137,125,-1,125,137,128,-1,125,128,124,-1,124,128,129,-1,124,129,138,-1,138,139,124,-1,124,139,140,-1,124,140,141,-1,109,142,124,-1,124,142,143,-1,124,143,1,-1,1,143,144,-1,1,144,145,-1,141,146,124,-1,124,146,147,-1,124,147,148,-1,148,149,124,-1,124,149,150,-1,124,150,109,-1,109,150,151,-1,109,151,107,-1,152,153,126,-1,126,153,154,-1,126,154,127,-1,127,154,155,-1,127,155,2,-1,2,155,156,-1,2,156,111,-1,157,158,145,-1,145,158,159,-1,145,159,1,-1,1,159,109,-1,1,109,2,-1,2,109,115,-1,2,115,127,-1,160,161,162,-1,163,164,165,-1,166,167,165,-1,165,167,160,-1,165,160,163,-1,163,160,162,-1,168,169,170,-1,171,172,173,-1,174,175,173,-1,173,175,168,-1,173,168,171,-1,171,168,170,-1,5,4,176,-1,174,173,176,-1,176,173,177,-1,176,177,5,-1,16,15,178,-1,178,15,179,-1,178,179,175,-1,175,179,168,-1,180,181,182,-1,182,181,165,-1,183,184,185,-1,185,184,186,-1,187,188,186,-1,186,188,189,-1,165,164,182,-1,182,164,190,-1,182,190,191,-1,191,190,192,-1,191,192,193,-1,193,192,194,-1,193,194,187,-1,187,194,195,-1,187,195,188,-1,196,197,198,-1,198,197,199,-1,179,200,168,-1,168,200,198,-1,168,198,169,-1,169,198,199,-1,189,201,186,-1,186,201,202,-1,186,202,185,-1,185,202,203,-1,185,203,204,-1,204,203,205,-1,204,205,206,-1,206,205,207,-1,206,207,196,-1,196,207,208,-1,196,208,197,-1,209,177,210,-1,210,177,173,-1,211,212,160,-1,160,212,213,-1,160,213,161,-1,161,213,214,-1,214,213,215,-1,215,213,216,-1,215,216,217,-1,217,216,218,-1,217,218,219,-1,219,218,220,-1,219,220,221,-1,222,223,224,-1,224,223,225,-1,224,225,220,-1,226,227,225,-1,225,227,228,-1,173,172,210,-1,210,172,229,-1,210,229,230,-1,230,229,231,-1,230,231,232,-1,232,231,233,-1,232,233,226,-1,226,233,234,-1,226,234,227,-1,228,235,225,-1,225,235,236,-1,225,236,220,-1,220,236,237,-1,220,237,221,-1,17,200,15,-1,15,200,179,-1,209,79,177,-1,177,79,5,-1,88,90,211,-1,211,90,212,-1,181,180,106,-1,106,180,130,-1,222,97,223,-1,223,97,74,-1,223,74,75,-1,122,184,11,-1,11,184,183,-1,11,183,51,-1,130,180,131,-1,131,180,182,-1,131,182,133,-1,133,182,191,-1,133,191,120,-1,120,191,193,-1,120,193,118,-1,118,193,187,-1,118,187,121,-1,121,187,186,-1,121,186,122,-1,122,186,184,-1,51,183,52,-1,52,183,185,-1,52,185,54,-1,54,185,204,-1,54,204,47,-1,47,204,206,-1,47,206,20,-1,20,206,196,-1,20,196,19,-1,19,196,198,-1,19,198,17,-1,17,198,200,-1,79,209,80,-1,80,209,210,-1,80,210,82,-1,82,210,230,-1,82,230,84,-1,84,230,232,-1,84,232,78,-1,78,232,226,-1,78,226,77,-1,77,226,225,-1,77,225,75,-1,75,225,223,-1,97,222,99,-1,99,222,224,-1,99,224,101,-1,101,224,220,-1,101,220,95,-1,95,220,218,-1,95,218,94,-1,94,218,216,-1,94,216,96,-1,96,216,213,-1,96,213,90,-1,90,213,212,-1,170,169,199,-1,170,199,238,-1,238,199,197,-1,238,197,239,-1,239,197,208,-1,239,208,240,-1,240,208,207,-1,240,207,241,-1,241,207,205,-1,241,205,242,-1,242,205,203,-1,242,203,243,-1,243,203,202,-1,243,202,244,-1,245,244,201,-1,201,244,202,-1,245,201,189,-1,245,189,246,-1,246,189,188,-1,246,188,247,-1,247,188,195,-1,247,195,248,-1,248,195,194,-1,248,194,249,-1,249,194,192,-1,249,192,250,-1,250,192,190,-1,250,190,251,-1,251,190,164,-1,251,164,163,-1,162,161,214,-1,162,214,252,-1,252,214,215,-1,252,215,253,-1,253,215,217,-1,253,217,254,-1,254,217,219,-1,254,219,255,-1,255,219,221,-1,255,221,256,-1,256,221,237,-1,256,237,257,-1,257,237,236,-1,257,236,258,-1,259,258,235,-1,235,258,236,-1,259,235,228,-1,259,228,260,-1,260,228,227,-1,260,227,261,-1,261,227,234,-1,261,234,262,-1,262,234,233,-1,262,233,263,-1,263,233,231,-1,263,231,264,-1,264,231,229,-1,264,229,265,-1,265,229,172,-1,265,172,171,-1,170,163,171,-1,171,163,162,-1,171,259,260,-1,239,244,238,-1,238,244,170,-1,239,240,244,-1,244,240,241,-1,244,241,243,-1,243,241,242,-1,262,263,261,-1,261,263,264,-1,261,264,260,-1,260,264,265,-1,260,265,171,-1,170,244,163,-1,163,244,245,-1,163,245,251,-1,251,245,246,-1,251,246,247,-1,247,248,251,-1,251,248,249,-1,251,249,250,-1,259,171,258,-1,258,171,162,-1,258,162,257,-1,257,162,252,-1,257,252,253,-1,253,254,257,-1,257,254,255,-1,257,255,256,-1,89,88,266,-1,266,88,211,-1,266,211,167,-1,167,211,160,-1,106,105,267,-1,166,165,267,-1,267,165,181,-1,267,181,106,-1,
        ]
    }
}
Shape{
    appearance Appearance {
        material  Material 	{
            diffuseColor 0.6666666666666666 0.6666666666666666 0.6666666666666666
            specularColor 0.4666666666666667 0.4666666666666667 0.4666666666666667
            ambientIntensity 0.6667
            transparency 0.0
            shininess 0.5
        }
    }
    geometry IndexedFaceSet {
        ccw TRUE
        solid FALSE
        coord DEF co Coordinate {
            point [
                0.5909 -0.0594 0.0713, 0.5909 0.0594 0.0713, 0.5906 -0.0591 0.0713, 0.5906 0.0591 0.0713, 0.5339 -0.4375 0.0, 0.5319 -0.4528 0.0, 0.1181 -0.4528 0.0, 0.5492 0.411 0.0, 0.5614 0.4016 0.0, 0.5909 -0.3937 0.0, 0.5757 0.3957 0.0, 0.5909 0.3937 0.0, 0.1181 0.4528 0.0, 0.5319 0.4528 0.0, 0.5757 -0.3957 0.0, 0.5339 0.4375 0.0, 0.5398 0.4232 0.0, 0.5614 -0.4016 0.0, 0.5492 -0.411 0.0, 0.5398 -0.4232 0.0, 0.5319 -0.4528 0.0004, 0.5339 -0.4375 0.0004, 0.5398 -0.4232 0.0004, 0.5492 -0.411 0.0004, 0.5614 -0.4016 0.0004, 0.5757 -0.3957 0.0004, 0.5909 -0.3937 0.0004, 0.5909 0.0594 0.0004, 0.5909 -0.0594 0.0004, 0.5909 0.3937 0.0004, 0.5757 0.3957 0.0004, 0.5614 0.4016 0.0004, 0.5492 0.411 0.0004, 0.5398 0.4232 0.0004, 0.5339 0.4375 0.0004, 0.5319 0.4528 0.0004, 0.1181 0.4528 0.0004, 0.1181 -0.0193 0.0004, 0.1181 -0.4528 0.0004, -0.5906 -0.0591 0.0713, -0.5906 0.0591 0.0713, -0.5909 -0.0594 0.0713, -0.5909 0.0594 0.0713, -0.5398 -0.4232 0.0, -0.1181 0.374 0.0, -0.5339 -0.4375 0.0, -0.1181 -0.4528 0.0, -0.5319 -0.4528 0.0, -0.5909 -0.3937 0.0, -0.5909 0.3937 0.0, -0.5757 -0.3957 0.0, -0.5757 0.3957 0.0, -0.5614 0.4016 0.0, -0.5492 0.411 0.0, -0.5398 0.4232 0.0, -0.1969 0.4528 0.0, -0.5339 0.4375 0.0, -0.5319 0.4528 0.0, -0.5614 -0.4016 0.0, -0.5492 -0.411 0.0, -0.5909 -0.3937 0.0004, -0.5757 -0.3957 0.0004, -0.5614 -0.4016 0.0004, -0.5492 -0.411 0.0004, -0.5398 -0.4232 0.0004, -0.5339 -0.4375 0.0004, -0.5319 -0.4528 0.0004, -0.1181 -0.4528 0.0004, -0.1181 -0.0193 0.0004, -0.1181 0.374 0.0004, -0.1969 0.4528 0.0004, -0.5319 0.4528 0.0004, -0.5339 0.4375 0.0004, -0.5398 0.4232 0.0004, -0.5492 0.411 0.0004, -0.5614 0.4016 0.0004, -0.5757 0.3957 0.0004, -0.5909 0.3937 0.0004, -0.5909 -0.0594 0.0004, -0.5909 0.0594 0.0004
            ]
        }
        coordIndex [
            0,1,2,-1,2,1,3,-1,4,5,6,-1,7,8,9,-1,9,8,10,-1,9,10,11,-1,12,13,14,-1,14,13,15,-1,14,15,9,-1,9,15,16,-1,9,16,7,-1,14,17,12,-1,12,17,18,-1,12,18,6,-1,6,18,19,-1,6,19,4,-1,20,5,21,-1,21,5,4,-1,21,4,22,-1,22,4,19,-1,22,19,23,-1,23,19,18,-1,23,18,24,-1,24,18,17,-1,24,17,25,-1,25,17,14,-1,25,14,26,-1,26,14,9,-1,1,0,27,-1,27,0,28,-1,28,26,9,-1,28,9,27,-1,27,9,11,-1,27,11,29,-1,29,11,30,-1,30,11,10,-1,30,10,31,-1,31,10,8,-1,31,8,32,-1,32,8,7,-1,32,7,33,-1,33,7,16,-1,33,16,34,-1,34,16,15,-1,34,15,35,-1,35,15,13,-1,35,13,36,-1,36,13,12,-1,36,12,37,-1,37,12,6,-1,37,6,38,-1,6,5,38,-1,38,5,20,-1,39,40,41,-1,41,40,42,-1,43,44,45,-1,45,44,46,-1,45,46,47,-1,48,49,50,-1,50,49,51,-1,50,51,52,-1,53,54,55,-1,55,54,56,-1,55,56,57,-1,52,53,50,-1,50,53,55,-1,50,55,58,-1,58,55,44,-1,58,44,59,-1,59,44,43,-1,60,48,61,-1,61,48,50,-1,61,50,62,-1,62,50,58,-1,62,58,63,-1,63,58,59,-1,63,59,64,-1,64,59,43,-1,64,43,65,-1,65,43,45,-1,65,45,66,-1,66,45,47,-1,66,47,67,-1,67,47,46,-1,67,46,68,-1,68,46,44,-1,68,44,69,-1,55,57,70,-1,70,57,71,-1,71,57,72,-1,72,57,56,-1,72,56,73,-1,73,56,54,-1,73,54,74,-1,74,54,53,-1,74,53,75,-1,75,53,52,-1,75,52,76,-1,76,52,51,-1,76,51,77,-1,77,51,49,-1,41,42,78,-1,78,42,79,-1,79,77,49,-1,79,49,78,-1,78,49,48,-1,78,48,60,-1,44,55,69,-1,69,55,70,-1,
        ]
    }
}
Shape{
    appearance Appearance {
        material  Material 	{
            diffuseColor 1.0 1.0 1.0
            specularColor 0.8784313725490196 0.8784313725490196 0.8784313725490196
            ambientIntensity 1.0
            transparency 0.0
            shininess 0.5
        }
    }
    geometry IndexedFaceSet {
        ccw TRUE
        solid FALSE
        coord DEF co Coordinate {
            point [
                -0.0667 0.0203 0.0083, -0.0821 -0.019 0.0083, -0.0667 0.0203 0.0004, -0.0821 -0.019 0.0004, -0.0763 -0.019 0.0083, -0.0763 -0.019 0.0004, -0.0724 -0.008 0.0083, -0.0724 -0.008 0.0004, -0.0561 -0.008 0.0083, -0.0561 -0.008 0.0004, -0.0523 -0.019 0.0083, -0.0523 -0.019 0.0004, -0.0466 -0.019 0.0083, -0.0466 -0.019 0.0004, -0.0615 0.0203 0.0083, -0.0615 0.0203 0.0004, -0.0574 -0.0037 0.0083, -0.0706 -0.0037 0.0083, -0.0633 0.0128 0.0083, -0.0637 0.0141 0.0083, -0.0639 0.0155 0.0083, -0.0641 0.0155 0.0083, -0.0643 0.0142 0.0083, -0.0647 0.0128 0.0083, -0.0574 -0.0037 0.0004, -0.0706 -0.0037 0.0004, -0.0633 0.0128 0.0004, -0.0637 0.0141 0.0004, -0.0639 0.0155 0.0004, -0.0641 0.0155 0.0004, -0.0643 0.0142 0.0004, -0.0647 0.0128 0.0004, -0.0227 -0.019 0.0083, -0.012 -0.019 0.0083, -0.0227 -0.019 0.0004, -0.012 -0.019 0.0004, -0.012 0.0203 0.0083, -0.012 0.0203 0.0004, -0.0231 0.0203 0.0083, -0.0231 0.0203 0.0004, -0.0437 0.0012 0.0083, -0.0437 0.0012 0.0004, -0.0434 0.0049 0.0004, -0.0434 0.0049 0.0083, -0.0423 0.0087 0.0004, -0.0423 0.0087 0.0083, -0.0405 0.0121 0.0004, -0.0405 0.0121 0.0083, -0.0377 0.0152 0.0004, -0.0377 0.0152 0.0083, -0.0377 0.0152 0.0004, -0.0377 0.0152 0.0083, -0.0334 0.0181 0.0004, -0.0334 0.0181 0.0083, -0.0288 0.0197 0.0004, -0.0288 0.0197 0.0083, -0.0276 -0.0186 0.0004, -0.0276 -0.0186 0.0083, -0.0321 -0.0172 0.0004, -0.0321 -0.0172 0.0083, -0.0362 -0.0149 0.0004, -0.0362 -0.0149 0.0083, -0.0395 -0.0118 0.0004, -0.0395 -0.0118 0.0083, -0.0417 -0.0082 0.0004, -0.0417 -0.0082 0.0083, -0.0431 -0.0041 0.0004, -0.0431 -0.0041 0.0083, -0.0358 0.0105 0.0083, -0.0339 0.0125 0.0083, -0.031 0.0144 0.0083, -0.0278 0.0155 0.0083, -0.0231 0.016 0.0083, -0.0173 0.016 0.0083, -0.0173 -0.0147 0.0083, -0.0229 -0.0147 0.0083, -0.027 -0.0143 0.0083, -0.0303 -0.0133 0.0083, -0.033 -0.0117 0.0083, -0.0352 -0.0095 0.0083, -0.0369 -0.0068 0.0083, -0.038 -0.0031 0.0083, -0.0384 0.001 0.0083, -0.0381 0.005 0.0083, -0.0372 0.0081 0.0083, -0.0231 0.016 0.0004, -0.0173 0.016 0.0004, -0.0278 0.0155 0.0004, -0.031 0.0144 0.0004, -0.0339 0.0125 0.0004, -0.0358 0.0105 0.0004, -0.0372 0.0081 0.0004, -0.0381 0.005 0.0004, -0.0384 0.001 0.0004, -0.038 -0.0031 0.0004, -0.0369 -0.0068 0.0004, -0.0352 -0.0095 0.0004, -0.033 -0.0117 0.0004, -0.0303 -0.0133 0.0004, -0.027 -0.0143 0.0004, -0.0229 -0.0147 0.0004, -0.0173 -0.0147 0.0004, -0.0043 -0.0147 0.0083, -0.0043 -0.019 0.0083, -0.0043 -0.0147 0.0004, -0.0043 -0.019 0.0004, 0.0168 -0.019 0.0083, 0.0168 -0.019 0.0004, 0.0168 0.0203 0.0083, 0.0168 0.0203 0.0004, -0.0034 0.0203 0.0083, -0.0034 0.0203 0.0004, -0.0034 0.016 0.0083, -0.0034 0.016 0.0004, 0.0115 0.016 0.0083, 0.0115 0.016 0.0004, 0.0115 0.0031 0.0083, 0.0115 0.0031 0.0004, -0.0024 0.0031 0.0083, -0.0024 0.0031 0.0004, -0.0024 -0.0013 0.0083, -0.0024 -0.0013 0.0004, 0.0115 -0.0013 0.0083, 0.0115 -0.0013 0.0004, 0.0115 -0.0147 0.0083, 0.0115 -0.0147 0.0004, 0.0245 -0.0127 0.0083, 0.0245 -0.017 0.0083, 0.0245 -0.0127 0.0004, 0.0245 -0.017 0.0004, 0.0287 -0.0187 0.0083, 0.0353 -0.0195 0.0083, 0.0353 -0.0195 0.0004, 0.0342 -0.0195 0.0004, 0.0342 -0.0195 0.0083, 0.0327 -0.0193 0.0004, 0.0287 -0.0187 0.0004, 0.0376 -0.0193 0.0004, 0.0402 -0.019 0.0083, 0.0402 -0.019 0.0004, 0.044 -0.0177 0.0083, 0.044 -0.0177 0.0004, 0.0472 -0.0157 0.0083, 0.0472 -0.0157 0.0004, 0.0501 -0.0126 0.0083, 0.0501 -0.0126 0.0004, 0.0522 -0.0088 0.0083, 0.0522 -0.0088 0.0004, 0.0534 -0.0046 0.0083, 0.0534 -0.0046 0.0004, 0.0538 -0.0001 0.0083, 0.0538 -0.0001 0.0004, 0.0338 0.0208 0.0083, 0.0338 0.0208 0.0004, 0.0377 0.0205 0.0004, 0.0377 0.0205 0.0083, 0.0421 0.0192 0.0004, 0.0421 0.0192 0.0083, 0.0458 0.0171 0.0004, 0.0458 0.0171 0.0083, 0.0494 0.0137 0.0004, 0.0494 0.0137 0.0083, 0.0517 0.01 0.0004, 0.0517 0.01 0.0083, 0.0532 0.0055 0.0004, 0.0532 0.0055 0.0083, 0.0245 0.0193 0.0083, 0.0245 0.0193 0.0004, 0.029 0.0205 0.0004, 0.029 0.0205 0.0083, 0.0245 0.014 0.0083, 0.0245 0.014 0.0004, 0.0337 0.0165 0.0083, 0.0337 0.0165 0.0004, 0.0289 0.0159 0.0004, 0.0289 0.0159 0.0083, 0.0485 0.0002 0.0083, 0.0485 0.0002 0.0004, 0.0483 0.0033 0.0004, 0.0483 0.0033 0.0083, 0.0473 0.0075 0.0004, 0.0473 0.0075 0.0083, 0.0456 0.0106 0.0004, 0.0456 0.0106 0.0083, 0.0433 0.0132 0.0004, 0.0433 0.0132 0.0083, 0.0405 0.015 0.0004, 0.0405 0.015 0.0083, 0.0376 0.0161 0.0004, 0.0376 0.0161 0.0083, 0.0346 -0.0152 0.0083, 0.0346 -0.0152 0.0004, 0.0383 -0.0148 0.0004, 0.0383 -0.0148 0.0083, 0.0411 -0.0137 0.0004, 0.0411 -0.0137 0.0083, 0.0435 -0.0121 0.0004, 0.0435 -0.0121 0.0083, 0.0454 -0.0101 0.0004, 0.0454 -0.0101 0.0083, 0.047 -0.0074 0.0004, 0.047 -0.0074 0.0083, 0.0481 -0.004 0.0004, 0.0481 -0.004 0.0083, 0.0252 -0.0131 0.0004, 0.0252 -0.0131 0.0083, 0.0294 -0.0146 0.0004, 0.0294 -0.0146 0.0083, 0.0571 -0.0147 0.0083, 0.0571 -0.019 0.0083, 0.0571 -0.0147 0.0004, 0.0571 -0.019 0.0004, 0.0773 -0.019 0.0083, 0.0773 -0.019 0.0004, 0.0773 0.0203 0.0083, 0.0773 0.0203 0.0004, 0.072 0.0203 0.0083, 0.072 0.0203 0.0004, 0.072 -0.0147 0.0083, 0.072 -0.0147 0.0004
            ]
        }
        coordIndex [
            0,1,2,-1,2,1,3,-1,1,4,3,-1,3,4,5,-1,4,6,5,-1,5,6,7,-1,6,8,7,-1,7,8,9,-1,8,10,9,-1,9,10,11,-1,10,12,11,-1,11,12,13,-1,12,14,13,-1,13,14,15,-1,14,0,15,-1,15,0,2,-1,16,8,17,-1,17,8,6,-1,18,14,16,-1,16,14,12,-1,16,12,8,-1,8,12,10,-1,18,19,14,-1,14,19,20,-1,14,20,0,-1,0,20,21,-1,0,21,22,-1,22,23,0,-1,0,23,17,-1,0,17,1,-1,1,17,6,-1,1,6,4,-1,16,17,24,-1,24,17,25,-1,18,16,26,-1,26,16,24,-1,18,26,27,-1,18,27,19,-1,19,27,28,-1,19,28,20,-1,21,20,29,-1,29,20,28,-1,21,29,30,-1,21,30,22,-1,22,30,31,-1,22,31,23,-1,17,23,25,-1,25,23,31,-1,32,33,34,-1,34,33,35,-1,33,36,35,-1,35,36,37,-1,36,38,37,-1,37,38,39,-1,40,41,42,-1,40,42,43,-1,43,42,44,-1,43,44,45,-1,45,44,46,-1,45,46,47,-1,47,46,48,-1,47,48,49,-1,49,48,50,-1,49,50,51,-1,51,50,52,-1,51,52,53,-1,53,52,54,-1,53,54,55,-1,55,54,39,-1,55,39,38,-1,32,34,56,-1,32,56,57,-1,57,56,58,-1,57,58,59,-1,59,58,60,-1,59,60,61,-1,61,60,62,-1,61,62,63,-1,63,62,64,-1,63,64,65,-1,65,64,66,-1,65,66,67,-1,67,66,41,-1,67,41,40,-1,45,47,68,-1,68,47,49,-1,68,49,69,-1,69,49,51,-1,69,51,70,-1,70,51,53,-1,70,53,71,-1,71,53,55,-1,71,55,72,-1,72,55,38,-1,72,38,73,-1,73,38,36,-1,73,36,74,-1,74,36,33,-1,74,33,75,-1,75,33,32,-1,75,32,76,-1,76,32,57,-1,76,57,77,-1,77,57,59,-1,77,59,78,-1,78,59,61,-1,78,61,79,-1,79,61,63,-1,79,63,80,-1,80,63,65,-1,80,65,81,-1,81,65,67,-1,81,67,82,-1,82,67,40,-1,82,40,83,-1,83,40,43,-1,83,43,84,-1,84,43,45,-1,84,45,68,-1,72,73,85,-1,85,73,86,-1,72,85,87,-1,72,87,71,-1,71,87,88,-1,71,88,70,-1,70,88,89,-1,70,89,69,-1,69,89,90,-1,69,90,68,-1,68,90,91,-1,68,91,84,-1,84,91,92,-1,84,92,83,-1,83,92,93,-1,83,93,82,-1,82,93,94,-1,82,94,81,-1,81,94,95,-1,81,95,80,-1,80,95,96,-1,80,96,79,-1,79,96,97,-1,79,97,78,-1,78,97,98,-1,78,98,77,-1,77,98,99,-1,77,99,76,-1,76,99,100,-1,76,100,75,-1,74,75,101,-1,101,75,100,-1,73,74,86,-1,86,74,101,-1,102,103,104,-1,104,103,105,-1,103,106,105,-1,105,106,107,-1,106,108,107,-1,107,108,109,-1,108,110,109,-1,109,110,111,-1,110,112,111,-1,111,112,113,-1,112,114,113,-1,113,114,115,-1,114,116,115,-1,115,116,117,-1,116,118,117,-1,117,118,119,-1,118,120,119,-1,119,120,121,-1,120,122,121,-1,121,122,123,-1,122,124,123,-1,123,124,125,-1,124,102,125,-1,125,102,104,-1,106,103,102,-1,102,124,106,-1,106,124,122,-1,106,122,108,-1,112,110,114,-1,114,110,108,-1,114,108,116,-1,116,108,122,-1,116,122,118,-1,118,122,120,-1,126,127,128,-1,128,127,129,-1,129,127,130,-1,131,132,133,-1,131,133,134,-1,134,133,135,-1,134,135,130,-1,130,135,136,-1,130,136,129,-1,132,131,137,-1,137,131,138,-1,137,138,139,-1,139,138,140,-1,139,140,141,-1,141,140,142,-1,141,142,143,-1,143,142,144,-1,143,144,145,-1,145,144,146,-1,145,146,147,-1,147,146,148,-1,147,148,149,-1,149,148,150,-1,149,150,151,-1,152,153,154,-1,152,154,155,-1,155,154,156,-1,155,156,157,-1,157,156,158,-1,157,158,159,-1,159,158,160,-1,159,160,161,-1,161,160,162,-1,161,162,163,-1,163,162,164,-1,163,164,165,-1,165,164,151,-1,165,151,150,-1,166,167,168,-1,166,168,169,-1,169,168,153,-1,169,153,152,-1,166,170,167,-1,167,170,171,-1,172,173,174,-1,172,174,175,-1,175,174,171,-1,175,171,170,-1,176,177,178,-1,176,178,179,-1,179,178,180,-1,179,180,181,-1,181,180,182,-1,181,182,183,-1,183,182,184,-1,183,184,185,-1,185,184,186,-1,185,186,187,-1,187,186,188,-1,187,188,189,-1,189,188,173,-1,189,173,172,-1,190,191,192,-1,190,192,193,-1,193,192,194,-1,193,194,195,-1,195,194,196,-1,195,196,197,-1,197,196,198,-1,197,198,199,-1,199,198,200,-1,199,200,201,-1,201,200,202,-1,201,202,203,-1,203,202,177,-1,203,177,176,-1,126,128,204,-1,126,204,205,-1,205,204,206,-1,205,206,207,-1,207,206,191,-1,207,191,190,-1,193,131,190,-1,190,131,134,-1,190,134,207,-1,207,134,130,-1,207,130,205,-1,205,130,127,-1,205,127,126,-1,170,166,175,-1,175,166,169,-1,175,169,172,-1,172,169,152,-1,172,152,189,-1,189,152,155,-1,189,155,187,-1,187,155,157,-1,187,157,185,-1,185,157,159,-1,185,159,183,-1,183,159,161,-1,183,161,181,-1,181,161,163,-1,181,163,179,-1,179,163,165,-1,179,165,176,-1,176,165,150,-1,176,150,203,-1,203,150,148,-1,203,148,201,-1,201,148,146,-1,201,146,199,-1,199,146,144,-1,199,144,197,-1,197,144,142,-1,197,142,195,-1,195,142,140,-1,195,140,193,-1,193,140,138,-1,193,138,131,-1,208,209,210,-1,210,209,211,-1,209,212,211,-1,211,212,213,-1,212,214,213,-1,213,214,215,-1,214,216,215,-1,215,216,217,-1,216,218,217,-1,217,218,219,-1,218,208,219,-1,219,208,210,-1,216,214,218,-1,218,214,212,-1,218,212,208,-1,208,212,209,-1,
        ]
    }
}
Shape{
    appearance Appearance {
        material  Material 	{
            diffuseColor 0.20784313725490197 0.20784313725490197 0.20784313725490197
            specularColor 0.01568627450980392 0.01568627450980392 0.01568627450980392
            ambientIntensity 0.298
            transparency 0.0
            shininess 0.5
        }
    }
    geometry IndexedFaceSet {
        ccw TRUE
        solid FALSE
        coord DEF co Coordinate {
            point [
                -0.0574 -0.0037 0.0004, -0.0706 -0.0037 0.0004, -0.0633 0.0128 0.0004, -0.0647 0.0128 0.0004, -0.0637 0.0141 0.0004, -0.0643 0.0142 0.0004, -0.0639 0.0155 0.0004, -0.0641 0.0155 0.0004, -0.0173 0.016 0.0004, -0.0173 -0.0147 0.0004, -0.0231 0.016 0.0004, -0.0229 -0.0147 0.0004, -0.027 -0.0143 0.0004, -0.0384 0.001 0.0004, -0.0381 0.005 0.0004, -0.0372 0.0081 0.0004, -0.0278 0.0155 0.0004, -0.0303 -0.0133 0.0004, -0.033 -0.0117 0.0004, -0.0352 -0.0095 0.0004, -0.0369 -0.0068 0.0004, -0.038 -0.0031 0.0004, -0.0358 0.0105 0.0004, -0.0339 0.0125 0.0004, -0.031 0.0144 0.0004
            ]
        }
        coordIndex [
            0,1,2,-1,2,1,3,-1,2,3,4,-1,4,3,5,-1,4,5,6,-1,6,5,7,-1,8,9,10,-1,10,9,11,-1,10,11,12,-1,13,14,10,-1,10,14,15,-1,10,15,16,-1,12,17,10,-1,10,17,18,-1,10,18,19,-1,19,20,10,-1,10,20,21,-1,10,21,13,-1,22,23,15,-1,15,23,24,-1,15,24,16,-1,
        ]
    }
}